<mxfile host="app.diagrams.net" agent="Mozilla/5.0 (Windows NT 10.0; Win64; x64) AppleWebKit/537.36 (KHTML, like Gecko) Chrome/131.0.0.0 Safari/537.36" version="25.0.3">
  <diagram name="ER Diagram" id="0">
    <mxGraphModel dx="1290" dy="565" grid="1" gridSize="10" guides="1" tooltips="1" connect="1" arrows="1" fold="1" page="1" pageScale="1" pageWidth="827" pageHeight="1169" math="0" shadow="0">
      <root>
        <mxCell id="0" />
        <mxCell id="1" parent="0" />
        <mxCell id="TcOs8MlBDePF8n8dFPZF-59" value="" style="shape=table;startSize=0;container=1;collapsible=0;childLayout=tableLayout;" vertex="1" parent="1">
          <mxGeometry x="62" y="709" width="897" height="931" as="geometry" />
        </mxCell>
        <mxCell id="TcOs8MlBDePF8n8dFPZF-60" value="" style="shape=tableRow;horizontal=0;startSize=0;swimlaneHead=0;swimlaneBody=0;strokeColor=inherit;top=0;left=0;bottom=0;right=0;collapsible=0;dropTarget=0;fillColor=none;points=[[0,0.5],[1,0.5]];portConstraint=eastwest;" vertex="1" parent="TcOs8MlBDePF8n8dFPZF-59">
          <mxGeometry width="897" height="40" as="geometry" />
        </mxCell>
        <mxCell id="TcOs8MlBDePF8n8dFPZF-61" value="&lt;font color=&quot;#4f4f4f&quot;&gt;&lt;span style=&quot;font-size: 16px;&quot;&gt;&lt;b&gt;№&lt;/b&gt;&lt;/span&gt;&lt;/font&gt;" style="shape=partialRectangle;html=1;whiteSpace=wrap;connectable=0;strokeColor=#36393d;overflow=hidden;fillColor=#eeeeee;top=0;left=0;bottom=0;right=0;pointerEvents=1;" vertex="1" parent="TcOs8MlBDePF8n8dFPZF-60">
          <mxGeometry width="40" height="40" as="geometry">
            <mxRectangle width="40" height="40" as="alternateBounds" />
          </mxGeometry>
        </mxCell>
        <mxCell id="TcOs8MlBDePF8n8dFPZF-62" value="&lt;font color=&quot;#4f4f4f&quot; style=&quot;font-size: 16px;&quot;&gt;&lt;b style=&quot;&quot;&gt;Описание&lt;/b&gt;&lt;/font&gt;" style="shape=partialRectangle;html=1;whiteSpace=wrap;connectable=0;strokeColor=#36393d;overflow=hidden;fillColor=#eeeeee;top=0;left=0;bottom=0;right=0;pointerEvents=1;align=center;" vertex="1" parent="TcOs8MlBDePF8n8dFPZF-60">
          <mxGeometry x="40" width="857" height="40" as="geometry">
            <mxRectangle width="857" height="40" as="alternateBounds" />
          </mxGeometry>
        </mxCell>
        <mxCell id="TcOs8MlBDePF8n8dFPZF-63" value="" style="shape=tableRow;horizontal=0;startSize=0;swimlaneHead=0;swimlaneBody=0;strokeColor=inherit;top=0;left=0;bottom=0;right=0;collapsible=0;dropTarget=0;fillColor=none;points=[[0,0.5],[1,0.5]];portConstraint=eastwest;" vertex="1" parent="TcOs8MlBDePF8n8dFPZF-59">
          <mxGeometry y="40" width="897" height="51" as="geometry" />
        </mxCell>
        <mxCell id="TcOs8MlBDePF8n8dFPZF-64" value="&lt;font color=&quot;#4f4f4f&quot; style=&quot;font-size: 16px;&quot;&gt;&lt;b&gt;1&lt;/b&gt;&lt;/font&gt;" style="shape=partialRectangle;html=1;whiteSpace=wrap;connectable=0;strokeColor=inherit;overflow=hidden;fillColor=none;top=0;left=0;bottom=0;right=0;pointerEvents=1;" vertex="1" parent="TcOs8MlBDePF8n8dFPZF-63">
          <mxGeometry width="40" height="51" as="geometry">
            <mxRectangle width="40" height="51" as="alternateBounds" />
          </mxGeometry>
        </mxCell>
        <mxCell id="TcOs8MlBDePF8n8dFPZF-65" value="&lt;table&gt;&lt;tbody&gt;&lt;tr&gt;&lt;td&gt;&lt;font style=&quot;font-size: 18px;&quot;&gt;Клиент отправляет запрос на получение доступных слотов через фронтенд.&lt;/font&gt;&lt;/td&gt;&lt;/tr&gt;&lt;/tbody&gt;&lt;/table&gt;&lt;table&gt;&lt;tbody&gt;&lt;tr&gt;&lt;td&gt;&lt;/td&gt;&lt;/tr&gt;&lt;/tbody&gt;&lt;/table&gt;" style="shape=partialRectangle;html=1;whiteSpace=wrap;connectable=0;strokeColor=inherit;overflow=hidden;fillColor=none;top=0;left=0;bottom=0;right=0;pointerEvents=1;align=left;" vertex="1" parent="TcOs8MlBDePF8n8dFPZF-63">
          <mxGeometry x="40" width="857" height="51" as="geometry">
            <mxRectangle width="857" height="51" as="alternateBounds" />
          </mxGeometry>
        </mxCell>
        <mxCell id="TcOs8MlBDePF8n8dFPZF-66" value="" style="shape=tableRow;horizontal=0;startSize=0;swimlaneHead=0;swimlaneBody=0;strokeColor=inherit;top=0;left=0;bottom=0;right=0;collapsible=0;dropTarget=0;fillColor=none;points=[[0,0.5],[1,0.5]];portConstraint=eastwest;" vertex="1" parent="TcOs8MlBDePF8n8dFPZF-59">
          <mxGeometry y="91" width="897" height="60" as="geometry" />
        </mxCell>
        <mxCell id="TcOs8MlBDePF8n8dFPZF-67" value="&lt;span style=&quot;color: rgb(79, 79, 79); font-size: 16px;&quot;&gt;&lt;b&gt;2&lt;/b&gt;&lt;/span&gt;" style="shape=partialRectangle;html=1;whiteSpace=wrap;connectable=0;strokeColor=inherit;overflow=hidden;fillColor=none;top=0;left=0;bottom=0;right=0;pointerEvents=1;" vertex="1" parent="TcOs8MlBDePF8n8dFPZF-66">
          <mxGeometry width="40" height="60" as="geometry">
            <mxRectangle width="40" height="60" as="alternateBounds" />
          </mxGeometry>
        </mxCell>
        <mxCell id="TcOs8MlBDePF8n8dFPZF-68" value="&lt;br&gt;&lt;table&gt;&lt;tbody&gt;&lt;tr&gt;&lt;td&gt;&lt;font style=&quot;font-size: 18px;&quot;&gt;Фронтенд отправляет HTTP-запрос на бэкенд для получения списка доступных слотов.&lt;/font&gt;&lt;/td&gt;&lt;/tr&gt;&lt;/tbody&gt;&lt;/table&gt;&lt;table&gt;&lt;tbody&gt;&lt;tr&gt;&lt;td&gt;&lt;/td&gt;&lt;/tr&gt;&lt;/tbody&gt;&lt;/table&gt;&lt;div&gt;&lt;br/&gt;&lt;/div&gt;" style="shape=partialRectangle;html=1;whiteSpace=wrap;connectable=0;strokeColor=inherit;overflow=hidden;fillColor=none;top=0;left=0;bottom=0;right=0;pointerEvents=1;align=left;" vertex="1" parent="TcOs8MlBDePF8n8dFPZF-66">
          <mxGeometry x="40" width="857" height="60" as="geometry">
            <mxRectangle width="857" height="60" as="alternateBounds" />
          </mxGeometry>
        </mxCell>
        <mxCell id="TcOs8MlBDePF8n8dFPZF-69" value="" style="shape=tableRow;horizontal=0;startSize=0;swimlaneHead=0;swimlaneBody=0;strokeColor=inherit;top=0;left=0;bottom=0;right=0;collapsible=0;dropTarget=0;fillColor=none;points=[[0,0.5],[1,0.5]];portConstraint=eastwest;" vertex="1" parent="TcOs8MlBDePF8n8dFPZF-59">
          <mxGeometry y="151" width="897" height="60" as="geometry" />
        </mxCell>
        <mxCell id="TcOs8MlBDePF8n8dFPZF-70" value="&lt;span style=&quot;color: rgb(79, 79, 79); font-size: 16px;&quot;&gt;&lt;b&gt;3&lt;/b&gt;&lt;/span&gt;" style="shape=partialRectangle;html=1;whiteSpace=wrap;connectable=0;strokeColor=inherit;overflow=hidden;fillColor=none;top=0;left=0;bottom=0;right=0;pointerEvents=1;" vertex="1" parent="TcOs8MlBDePF8n8dFPZF-69">
          <mxGeometry width="40" height="60" as="geometry">
            <mxRectangle width="40" height="60" as="alternateBounds" />
          </mxGeometry>
        </mxCell>
        <mxCell id="TcOs8MlBDePF8n8dFPZF-71" value="&lt;br&gt;&lt;table&gt;&lt;tbody&gt;&lt;tr&gt;&lt;td&gt;&lt;font style=&quot;font-size: 18px;&quot;&gt;Бэкенд выполняет валидацию запроса для проверки его корректности.&lt;/font&gt;&lt;/td&gt;&lt;/tr&gt;&lt;/tbody&gt;&lt;/table&gt;&lt;table&gt;&lt;tbody&gt;&lt;tr&gt;&lt;td&gt;&lt;/td&gt;&lt;/tr&gt;&lt;/tbody&gt;&lt;/table&gt;&lt;div&gt;&lt;br/&gt;&lt;/div&gt;" style="shape=partialRectangle;html=1;whiteSpace=wrap;connectable=0;strokeColor=inherit;overflow=hidden;fillColor=none;top=0;left=0;bottom=0;right=0;pointerEvents=1;align=left;" vertex="1" parent="TcOs8MlBDePF8n8dFPZF-69">
          <mxGeometry x="40" width="857" height="60" as="geometry">
            <mxRectangle width="857" height="60" as="alternateBounds" />
          </mxGeometry>
        </mxCell>
        <mxCell id="TcOs8MlBDePF8n8dFPZF-72" value="" style="shape=tableRow;horizontal=0;startSize=0;swimlaneHead=0;swimlaneBody=0;strokeColor=inherit;top=0;left=0;bottom=0;right=0;collapsible=0;dropTarget=0;fillColor=none;points=[[0,0.5],[1,0.5]];portConstraint=eastwest;" vertex="1" parent="TcOs8MlBDePF8n8dFPZF-59">
          <mxGeometry y="211" width="897" height="60" as="geometry" />
        </mxCell>
        <mxCell id="TcOs8MlBDePF8n8dFPZF-73" value="&lt;span style=&quot;color: rgb(79, 79, 79); font-size: 16px;&quot;&gt;&lt;b&gt;4&lt;/b&gt;&lt;/span&gt;" style="shape=partialRectangle;html=1;whiteSpace=wrap;connectable=0;strokeColor=inherit;overflow=hidden;fillColor=none;top=0;left=0;bottom=0;right=0;pointerEvents=1;" vertex="1" parent="TcOs8MlBDePF8n8dFPZF-72">
          <mxGeometry width="40" height="60" as="geometry">
            <mxRectangle width="40" height="60" as="alternateBounds" />
          </mxGeometry>
        </mxCell>
        <mxCell id="TcOs8MlBDePF8n8dFPZF-74" value="&lt;br&gt;&lt;table&gt;&lt;tbody&gt;&lt;tr&gt;&lt;td&gt;&lt;font style=&quot;font-size: 18px;&quot;&gt;Бэкенд отправляет SQL-запрос в базу данных для получения доступных слотов.&lt;/font&gt;&lt;/td&gt;&lt;/tr&gt;&lt;/tbody&gt;&lt;/table&gt;&lt;table&gt;&lt;tbody&gt;&lt;tr&gt;&lt;td&gt;&lt;br&gt;&lt;/td&gt;&lt;/tr&gt;&lt;/tbody&gt;&lt;/table&gt;&lt;div&gt;&lt;br&gt;&lt;/div&gt;" style="shape=partialRectangle;html=1;whiteSpace=wrap;connectable=0;strokeColor=inherit;overflow=hidden;fillColor=none;top=0;left=0;bottom=0;right=0;pointerEvents=1;align=left;" vertex="1" parent="TcOs8MlBDePF8n8dFPZF-72">
          <mxGeometry x="40" width="857" height="60" as="geometry">
            <mxRectangle width="857" height="60" as="alternateBounds" />
          </mxGeometry>
        </mxCell>
        <mxCell id="TcOs8MlBDePF8n8dFPZF-75" value="" style="shape=tableRow;horizontal=0;startSize=0;swimlaneHead=0;swimlaneBody=0;strokeColor=inherit;top=0;left=0;bottom=0;right=0;collapsible=0;dropTarget=0;fillColor=none;points=[[0,0.5],[1,0.5]];portConstraint=eastwest;" vertex="1" parent="TcOs8MlBDePF8n8dFPZF-59">
          <mxGeometry y="271" width="897" height="60" as="geometry" />
        </mxCell>
        <mxCell id="TcOs8MlBDePF8n8dFPZF-76" value="&lt;span style=&quot;color: rgb(79, 79, 79); font-size: 16px;&quot;&gt;&lt;b&gt;5&lt;/b&gt;&lt;/span&gt;" style="shape=partialRectangle;html=1;whiteSpace=wrap;connectable=0;strokeColor=inherit;overflow=hidden;fillColor=none;top=0;left=0;bottom=0;right=0;pointerEvents=1;" vertex="1" parent="TcOs8MlBDePF8n8dFPZF-75">
          <mxGeometry width="40" height="60" as="geometry">
            <mxRectangle width="40" height="60" as="alternateBounds" />
          </mxGeometry>
        </mxCell>
        <mxCell id="TcOs8MlBDePF8n8dFPZF-77" value="&lt;br&gt;&lt;table&gt;&lt;tbody&gt;&lt;tr&gt;&lt;td&gt;&lt;font style=&quot;font-size: 18px;&quot;&gt;База данных возвращает список доступных слотов.&lt;/font&gt;&lt;/td&gt;&lt;/tr&gt;&lt;/tbody&gt;&lt;/table&gt;&lt;table&gt;&lt;tbody&gt;&lt;tr&gt;&lt;td&gt;&lt;/td&gt;&lt;/tr&gt;&lt;/tbody&gt;&lt;/table&gt;&lt;div&gt;&lt;br/&gt;&lt;/div&gt;" style="shape=partialRectangle;html=1;whiteSpace=wrap;connectable=0;strokeColor=inherit;overflow=hidden;fillColor=none;top=0;left=0;bottom=0;right=0;pointerEvents=1;align=left;" vertex="1" parent="TcOs8MlBDePF8n8dFPZF-75">
          <mxGeometry x="40" width="857" height="60" as="geometry">
            <mxRectangle width="857" height="60" as="alternateBounds" />
          </mxGeometry>
        </mxCell>
        <mxCell id="TcOs8MlBDePF8n8dFPZF-78" value="" style="shape=tableRow;horizontal=0;startSize=0;swimlaneHead=0;swimlaneBody=0;strokeColor=inherit;top=0;left=0;bottom=0;right=0;collapsible=0;dropTarget=0;fillColor=none;points=[[0,0.5],[1,0.5]];portConstraint=eastwest;" vertex="1" parent="TcOs8MlBDePF8n8dFPZF-59">
          <mxGeometry y="331" width="897" height="60" as="geometry" />
        </mxCell>
        <mxCell id="TcOs8MlBDePF8n8dFPZF-79" value="&lt;span style=&quot;color: rgb(79, 79, 79); font-size: 16px;&quot;&gt;&lt;b&gt;6&lt;/b&gt;&lt;/span&gt;" style="shape=partialRectangle;html=1;whiteSpace=wrap;connectable=0;strokeColor=inherit;overflow=hidden;fillColor=none;top=0;left=0;bottom=0;right=0;pointerEvents=1;" vertex="1" parent="TcOs8MlBDePF8n8dFPZF-78">
          <mxGeometry width="40" height="60" as="geometry">
            <mxRectangle width="40" height="60" as="alternateBounds" />
          </mxGeometry>
        </mxCell>
        <mxCell id="TcOs8MlBDePF8n8dFPZF-80" value="&lt;br&gt;&lt;table&gt;&lt;tbody&gt;&lt;tr&gt;&lt;td&gt;&lt;font style=&quot;font-size: 18px;&quot;&gt;Бэкенд отправляет JSON с доступными слотами на фронтенд.&lt;/font&gt;&lt;/td&gt;&lt;/tr&gt;&lt;/tbody&gt;&lt;/table&gt;&lt;table&gt;&lt;tbody&gt;&lt;tr&gt;&lt;td&gt;&lt;/td&gt;&lt;/tr&gt;&lt;/tbody&gt;&lt;/table&gt;&lt;div&gt;&lt;br/&gt;&lt;/div&gt;" style="shape=partialRectangle;html=1;whiteSpace=wrap;connectable=0;strokeColor=inherit;overflow=hidden;fillColor=none;top=0;left=0;bottom=0;right=0;pointerEvents=1;align=left;" vertex="1" parent="TcOs8MlBDePF8n8dFPZF-78">
          <mxGeometry x="40" width="857" height="60" as="geometry">
            <mxRectangle width="857" height="60" as="alternateBounds" />
          </mxGeometry>
        </mxCell>
        <mxCell id="TcOs8MlBDePF8n8dFPZF-81" value="" style="shape=tableRow;horizontal=0;startSize=0;swimlaneHead=0;swimlaneBody=0;strokeColor=inherit;top=0;left=0;bottom=0;right=0;collapsible=0;dropTarget=0;fillColor=none;points=[[0,0.5],[1,0.5]];portConstraint=eastwest;" vertex="1" parent="TcOs8MlBDePF8n8dFPZF-59">
          <mxGeometry y="391" width="897" height="60" as="geometry" />
        </mxCell>
        <mxCell id="TcOs8MlBDePF8n8dFPZF-82" value="&lt;span style=&quot;color: rgb(79, 79, 79); font-size: 16px;&quot;&gt;&lt;b&gt;7&lt;/b&gt;&lt;/span&gt;" style="shape=partialRectangle;html=1;whiteSpace=wrap;connectable=0;strokeColor=inherit;overflow=hidden;fillColor=none;top=0;left=0;bottom=0;right=0;pointerEvents=1;" vertex="1" parent="TcOs8MlBDePF8n8dFPZF-81">
          <mxGeometry width="40" height="60" as="geometry">
            <mxRectangle width="40" height="60" as="alternateBounds" />
          </mxGeometry>
        </mxCell>
        <mxCell id="TcOs8MlBDePF8n8dFPZF-83" value="&lt;br&gt;&lt;table&gt;&lt;tbody&gt;&lt;tr&gt;&lt;td&gt;&lt;font style=&quot;font-size: 18px;&quot;&gt;Фронтенд отображает список доступных слотов клиенту.&lt;/font&gt;&lt;/td&gt;&lt;/tr&gt;&lt;/tbody&gt;&lt;/table&gt;&lt;table&gt;&lt;tbody&gt;&lt;tr&gt;&lt;td&gt;&lt;/td&gt;&lt;/tr&gt;&lt;/tbody&gt;&lt;/table&gt;&lt;div&gt;&lt;br/&gt;&lt;/div&gt;" style="shape=partialRectangle;html=1;whiteSpace=wrap;connectable=0;strokeColor=inherit;overflow=hidden;fillColor=none;top=0;left=0;bottom=0;right=0;pointerEvents=1;align=left;" vertex="1" parent="TcOs8MlBDePF8n8dFPZF-81">
          <mxGeometry x="40" width="857" height="60" as="geometry">
            <mxRectangle width="857" height="60" as="alternateBounds" />
          </mxGeometry>
        </mxCell>
        <mxCell id="TcOs8MlBDePF8n8dFPZF-84" value="" style="shape=tableRow;horizontal=0;startSize=0;swimlaneHead=0;swimlaneBody=0;strokeColor=inherit;top=0;left=0;bottom=0;right=0;collapsible=0;dropTarget=0;fillColor=none;points=[[0,0.5],[1,0.5]];portConstraint=eastwest;" vertex="1" parent="TcOs8MlBDePF8n8dFPZF-59">
          <mxGeometry y="451" width="897" height="60" as="geometry" />
        </mxCell>
        <mxCell id="TcOs8MlBDePF8n8dFPZF-85" value="&lt;span style=&quot;color: rgb(79, 79, 79); font-size: 16px;&quot;&gt;&lt;b&gt;8&lt;/b&gt;&lt;/span&gt;" style="shape=partialRectangle;html=1;whiteSpace=wrap;connectable=0;strokeColor=inherit;overflow=hidden;fillColor=none;top=0;left=0;bottom=0;right=0;pointerEvents=1;" vertex="1" parent="TcOs8MlBDePF8n8dFPZF-84">
          <mxGeometry width="40" height="60" as="geometry">
            <mxRectangle width="40" height="60" as="alternateBounds" />
          </mxGeometry>
        </mxCell>
        <mxCell id="TcOs8MlBDePF8n8dFPZF-86" value="&lt;br&gt;&lt;table&gt;&lt;tbody&gt;&lt;tr&gt;&lt;td&gt;&lt;font style=&quot;font-size: 18px;&quot;&gt;Клиент выбирает слот для записи и отправляет этот выбор через фронтенд.&lt;/font&gt;&lt;/td&gt;&lt;/tr&gt;&lt;/tbody&gt;&lt;/table&gt;&lt;table&gt;&lt;tbody&gt;&lt;tr&gt;&lt;td&gt;&lt;/td&gt;&lt;/tr&gt;&lt;/tbody&gt;&lt;/table&gt;&lt;div&gt;&lt;br/&gt;&lt;/div&gt;" style="shape=partialRectangle;html=1;whiteSpace=wrap;connectable=0;strokeColor=inherit;overflow=hidden;fillColor=none;top=0;left=0;bottom=0;right=0;pointerEvents=1;align=left;" vertex="1" parent="TcOs8MlBDePF8n8dFPZF-84">
          <mxGeometry x="40" width="857" height="60" as="geometry">
            <mxRectangle width="857" height="60" as="alternateBounds" />
          </mxGeometry>
        </mxCell>
        <mxCell id="TcOs8MlBDePF8n8dFPZF-87" value="" style="shape=tableRow;horizontal=0;startSize=0;swimlaneHead=0;swimlaneBody=0;strokeColor=inherit;top=0;left=0;bottom=0;right=0;collapsible=0;dropTarget=0;fillColor=none;points=[[0,0.5],[1,0.5]];portConstraint=eastwest;" vertex="1" parent="TcOs8MlBDePF8n8dFPZF-59">
          <mxGeometry y="511" width="897" height="60" as="geometry" />
        </mxCell>
        <mxCell id="TcOs8MlBDePF8n8dFPZF-88" value="&lt;span style=&quot;color: rgb(79, 79, 79); font-size: 16px;&quot;&gt;&lt;b&gt;9&lt;/b&gt;&lt;/span&gt;" style="shape=partialRectangle;html=1;whiteSpace=wrap;connectable=0;strokeColor=inherit;overflow=hidden;fillColor=none;top=0;left=0;bottom=0;right=0;pointerEvents=1;" vertex="1" parent="TcOs8MlBDePF8n8dFPZF-87">
          <mxGeometry width="40" height="60" as="geometry">
            <mxRectangle width="40" height="60" as="alternateBounds" />
          </mxGeometry>
        </mxCell>
        <mxCell id="TcOs8MlBDePF8n8dFPZF-89" value="&lt;table&gt;&lt;tbody&gt;&lt;tr&gt;&lt;td&gt;&lt;font style=&quot;font-size: 18px;&quot;&gt;Фронтенд отправляет HTTP-запрос на бэкенд для бронирования слота.&lt;/font&gt;&lt;/td&gt;&lt;/tr&gt;&lt;/tbody&gt;&lt;/table&gt;&lt;table&gt;&lt;tbody&gt;&lt;tr&gt;&lt;td&gt;&lt;/td&gt;&lt;/tr&gt;&lt;/tbody&gt;&lt;/table&gt;" style="shape=partialRectangle;html=1;whiteSpace=wrap;connectable=0;strokeColor=inherit;overflow=hidden;fillColor=none;top=0;left=0;bottom=0;right=0;pointerEvents=1;align=left;" vertex="1" parent="TcOs8MlBDePF8n8dFPZF-87">
          <mxGeometry x="40" width="857" height="60" as="geometry">
            <mxRectangle width="857" height="60" as="alternateBounds" />
          </mxGeometry>
        </mxCell>
        <mxCell id="TcOs8MlBDePF8n8dFPZF-90" value="" style="shape=tableRow;horizontal=0;startSize=0;swimlaneHead=0;swimlaneBody=0;strokeColor=inherit;top=0;left=0;bottom=0;right=0;collapsible=0;dropTarget=0;fillColor=none;points=[[0,0.5],[1,0.5]];portConstraint=eastwest;" vertex="1" parent="TcOs8MlBDePF8n8dFPZF-59">
          <mxGeometry y="571" width="897" height="60" as="geometry" />
        </mxCell>
        <mxCell id="TcOs8MlBDePF8n8dFPZF-91" value="&lt;span style=&quot;color: rgb(79, 79, 79); font-size: 16px;&quot;&gt;&lt;b&gt;10&lt;/b&gt;&lt;/span&gt;" style="shape=partialRectangle;html=1;whiteSpace=wrap;connectable=0;strokeColor=inherit;overflow=hidden;fillColor=none;top=0;left=0;bottom=0;right=0;pointerEvents=1;" vertex="1" parent="TcOs8MlBDePF8n8dFPZF-90">
          <mxGeometry width="40" height="60" as="geometry">
            <mxRectangle width="40" height="60" as="alternateBounds" />
          </mxGeometry>
        </mxCell>
        <mxCell id="TcOs8MlBDePF8n8dFPZF-92" value="&lt;br&gt;&lt;table&gt;&lt;tbody&gt;&lt;tr&gt;&lt;td&gt;&lt;font style=&quot;font-size: 18px;&quot;&gt;Бэкенд выполняет валидацию выбранного слота в базе данных (проверяет, свободен ли он).&lt;/font&gt;&lt;/td&gt;&lt;/tr&gt;&lt;/tbody&gt;&lt;/table&gt;&lt;table&gt;&lt;tbody&gt;&lt;tr&gt;&lt;td&gt;&lt;/td&gt;&lt;/tr&gt;&lt;/tbody&gt;&lt;/table&gt;&lt;div&gt;&lt;br/&gt;&lt;/div&gt;" style="shape=partialRectangle;html=1;whiteSpace=wrap;connectable=0;strokeColor=inherit;overflow=hidden;fillColor=none;top=0;left=0;bottom=0;right=0;pointerEvents=1;align=left;" vertex="1" parent="TcOs8MlBDePF8n8dFPZF-90">
          <mxGeometry x="40" width="857" height="60" as="geometry">
            <mxRectangle width="857" height="60" as="alternateBounds" />
          </mxGeometry>
        </mxCell>
        <mxCell id="TcOs8MlBDePF8n8dFPZF-93" value="" style="shape=tableRow;horizontal=0;startSize=0;swimlaneHead=0;swimlaneBody=0;strokeColor=inherit;top=0;left=0;bottom=0;right=0;collapsible=0;dropTarget=0;fillColor=none;points=[[0,0.5],[1,0.5]];portConstraint=eastwest;" vertex="1" parent="TcOs8MlBDePF8n8dFPZF-59">
          <mxGeometry y="631" width="897" height="60" as="geometry" />
        </mxCell>
        <mxCell id="TcOs8MlBDePF8n8dFPZF-94" value="&lt;span style=&quot;color: rgb(79, 79, 79); font-size: 16px;&quot;&gt;&lt;b&gt;11&lt;/b&gt;&lt;/span&gt;" style="shape=partialRectangle;html=1;whiteSpace=wrap;connectable=0;strokeColor=inherit;overflow=hidden;fillColor=none;top=0;left=0;bottom=0;right=0;pointerEvents=1;" vertex="1" parent="TcOs8MlBDePF8n8dFPZF-93">
          <mxGeometry width="40" height="60" as="geometry">
            <mxRectangle width="40" height="60" as="alternateBounds" />
          </mxGeometry>
        </mxCell>
        <mxCell id="TcOs8MlBDePF8n8dFPZF-95" value="&lt;br&gt;&lt;table&gt;&lt;tbody&gt;&lt;tr&gt;&lt;td&gt;&lt;font style=&quot;font-size: 18px;&quot;&gt;База данных подтверждает, что слот доступен для бронирования.&lt;/font&gt;&lt;/td&gt;&lt;/tr&gt;&lt;/tbody&gt;&lt;/table&gt;&lt;table&gt;&lt;tbody&gt;&lt;tr&gt;&lt;td&gt;&lt;/td&gt;&lt;/tr&gt;&lt;/tbody&gt;&lt;/table&gt;&lt;div&gt;&lt;br/&gt;&lt;/div&gt;" style="shape=partialRectangle;html=1;whiteSpace=wrap;connectable=0;strokeColor=inherit;overflow=hidden;fillColor=none;top=0;left=0;bottom=0;right=0;pointerEvents=1;align=left;" vertex="1" parent="TcOs8MlBDePF8n8dFPZF-93">
          <mxGeometry x="40" width="857" height="60" as="geometry">
            <mxRectangle width="857" height="60" as="alternateBounds" />
          </mxGeometry>
        </mxCell>
        <mxCell id="TcOs8MlBDePF8n8dFPZF-96" value="" style="shape=tableRow;horizontal=0;startSize=0;swimlaneHead=0;swimlaneBody=0;strokeColor=inherit;top=0;left=0;bottom=0;right=0;collapsible=0;dropTarget=0;fillColor=none;points=[[0,0.5],[1,0.5]];portConstraint=eastwest;" vertex="1" parent="TcOs8MlBDePF8n8dFPZF-59">
          <mxGeometry y="691" width="897" height="60" as="geometry" />
        </mxCell>
        <mxCell id="TcOs8MlBDePF8n8dFPZF-97" value="&lt;span style=&quot;color: rgb(79, 79, 79); font-size: 16px;&quot;&gt;&lt;b&gt;12&lt;/b&gt;&lt;/span&gt;" style="shape=partialRectangle;html=1;whiteSpace=wrap;connectable=0;strokeColor=inherit;overflow=hidden;fillColor=none;top=0;left=0;bottom=0;right=0;pointerEvents=1;" vertex="1" parent="TcOs8MlBDePF8n8dFPZF-96">
          <mxGeometry width="40" height="60" as="geometry">
            <mxRectangle width="40" height="60" as="alternateBounds" />
          </mxGeometry>
        </mxCell>
        <mxCell id="TcOs8MlBDePF8n8dFPZF-98" value="&lt;br&gt;&lt;table&gt;&lt;tbody&gt;&lt;tr&gt;&lt;td&gt;&lt;font style=&quot;font-size: 18px;&quot;&gt;Бэкенд записывает данные о бронировании клиента в таблицу Клиенты психологов.&lt;/font&gt;&lt;/td&gt;&lt;/tr&gt;&lt;/tbody&gt;&lt;/table&gt;&lt;table&gt;&lt;tbody&gt;&lt;tr&gt;&lt;td&gt;&lt;/td&gt;&lt;/tr&gt;&lt;/tbody&gt;&lt;/table&gt;&lt;div&gt;&lt;br&gt;&lt;/div&gt;" style="shape=partialRectangle;html=1;whiteSpace=wrap;connectable=0;strokeColor=inherit;overflow=hidden;fillColor=none;top=0;left=0;bottom=0;right=0;pointerEvents=1;align=left;" vertex="1" parent="TcOs8MlBDePF8n8dFPZF-96">
          <mxGeometry x="40" width="857" height="60" as="geometry">
            <mxRectangle width="857" height="60" as="alternateBounds" />
          </mxGeometry>
        </mxCell>
        <mxCell id="TcOs8MlBDePF8n8dFPZF-99" value="" style="shape=tableRow;horizontal=0;startSize=0;swimlaneHead=0;swimlaneBody=0;strokeColor=inherit;top=0;left=0;bottom=0;right=0;collapsible=0;dropTarget=0;fillColor=none;points=[[0,0.5],[1,0.5]];portConstraint=eastwest;" vertex="1" parent="TcOs8MlBDePF8n8dFPZF-59">
          <mxGeometry y="751" width="897" height="60" as="geometry" />
        </mxCell>
        <mxCell id="TcOs8MlBDePF8n8dFPZF-100" value="&lt;span style=&quot;color: rgb(79, 79, 79); font-size: 16px;&quot;&gt;&lt;b&gt;13&lt;/b&gt;&lt;/span&gt;" style="shape=partialRectangle;html=1;whiteSpace=wrap;connectable=0;strokeColor=inherit;overflow=hidden;fillColor=none;top=0;left=0;bottom=0;right=0;pointerEvents=1;" vertex="1" parent="TcOs8MlBDePF8n8dFPZF-99">
          <mxGeometry width="40" height="60" as="geometry">
            <mxRectangle width="40" height="60" as="alternateBounds" />
          </mxGeometry>
        </mxCell>
        <mxCell id="TcOs8MlBDePF8n8dFPZF-101" value="&lt;br&gt;&lt;table&gt;&lt;tbody&gt;&lt;tr&gt;&lt;td&gt;&lt;font style=&quot;font-size: 18px;&quot;&gt;База данных подтверждает успешное добавление записи о бронировании.&lt;/font&gt;&lt;/td&gt;&lt;/tr&gt;&lt;/tbody&gt;&lt;/table&gt;&lt;table&gt;&lt;tbody&gt;&lt;tr&gt;&lt;td&gt;&lt;/td&gt;&lt;/tr&gt;&lt;/tbody&gt;&lt;/table&gt;&lt;div&gt;&lt;br/&gt;&lt;/div&gt;" style="shape=partialRectangle;html=1;whiteSpace=wrap;connectable=0;strokeColor=inherit;overflow=hidden;fillColor=none;top=0;left=0;bottom=0;right=0;pointerEvents=1;align=left;" vertex="1" parent="TcOs8MlBDePF8n8dFPZF-99">
          <mxGeometry x="40" width="857" height="60" as="geometry">
            <mxRectangle width="857" height="60" as="alternateBounds" />
          </mxGeometry>
        </mxCell>
        <mxCell id="TcOs8MlBDePF8n8dFPZF-102" value="" style="shape=tableRow;horizontal=0;startSize=0;swimlaneHead=0;swimlaneBody=0;strokeColor=inherit;top=0;left=0;bottom=0;right=0;collapsible=0;dropTarget=0;fillColor=none;points=[[0,0.5],[1,0.5]];portConstraint=eastwest;" vertex="1" parent="TcOs8MlBDePF8n8dFPZF-59">
          <mxGeometry y="811" width="897" height="60" as="geometry" />
        </mxCell>
        <mxCell id="TcOs8MlBDePF8n8dFPZF-103" value="&lt;span style=&quot;color: rgb(79, 79, 79); font-size: 16px;&quot;&gt;&lt;b&gt;14&lt;/b&gt;&lt;/span&gt;" style="shape=partialRectangle;html=1;whiteSpace=wrap;connectable=0;strokeColor=inherit;overflow=hidden;fillColor=none;top=0;left=0;bottom=0;right=0;pointerEvents=1;" vertex="1" parent="TcOs8MlBDePF8n8dFPZF-102">
          <mxGeometry width="40" height="60" as="geometry">
            <mxRectangle width="40" height="60" as="alternateBounds" />
          </mxGeometry>
        </mxCell>
        <mxCell id="TcOs8MlBDePF8n8dFPZF-104" value="&lt;br&gt;&lt;table&gt;&lt;tbody&gt;&lt;tr&gt;&lt;td&gt;&lt;font style=&quot;font-size: 18px;&quot;&gt;Бэкенд отправляет фронтенду подтверждение успешного бронирования.&lt;/font&gt;&lt;/td&gt;&lt;/tr&gt;&lt;/tbody&gt;&lt;/table&gt;&lt;table&gt;&lt;tbody&gt;&lt;tr&gt;&lt;td&gt;&lt;/td&gt;&lt;/tr&gt;&lt;/tbody&gt;&lt;/table&gt;&lt;div&gt;&lt;br/&gt;&lt;/div&gt;" style="shape=partialRectangle;html=1;whiteSpace=wrap;connectable=0;strokeColor=inherit;overflow=hidden;fillColor=none;top=0;left=0;bottom=0;right=0;pointerEvents=1;align=left;" vertex="1" parent="TcOs8MlBDePF8n8dFPZF-102">
          <mxGeometry x="40" width="857" height="60" as="geometry">
            <mxRectangle width="857" height="60" as="alternateBounds" />
          </mxGeometry>
        </mxCell>
        <mxCell id="TcOs8MlBDePF8n8dFPZF-105" value="" style="shape=tableRow;horizontal=0;startSize=0;swimlaneHead=0;swimlaneBody=0;strokeColor=inherit;top=0;left=0;bottom=0;right=0;collapsible=0;dropTarget=0;fillColor=none;points=[[0,0.5],[1,0.5]];portConstraint=eastwest;" vertex="1" parent="TcOs8MlBDePF8n8dFPZF-59">
          <mxGeometry y="871" width="897" height="60" as="geometry" />
        </mxCell>
        <mxCell id="TcOs8MlBDePF8n8dFPZF-106" value="&lt;span style=&quot;color: rgb(79, 79, 79); font-size: 16px;&quot;&gt;&lt;b&gt;15&lt;/b&gt;&lt;/span&gt;" style="shape=partialRectangle;html=1;whiteSpace=wrap;connectable=0;strokeColor=inherit;overflow=hidden;fillColor=none;top=0;left=0;bottom=0;right=0;pointerEvents=1;" vertex="1" parent="TcOs8MlBDePF8n8dFPZF-105">
          <mxGeometry width="40" height="60" as="geometry">
            <mxRectangle width="40" height="60" as="alternateBounds" />
          </mxGeometry>
        </mxCell>
        <mxCell id="TcOs8MlBDePF8n8dFPZF-107" value="&lt;br&gt;&lt;table&gt;&lt;tbody&gt;&lt;tr&gt;&lt;td&gt;&lt;font style=&quot;font-size: 18px;&quot;&gt;Фронтенд уведомляет клиента о том, что запись успешно создана.&lt;/font&gt;&lt;/td&gt;&lt;/tr&gt;&lt;/tbody&gt;&lt;/table&gt;&lt;p&gt;&lt;/p&gt;&lt;table&gt;&lt;tbody&gt;&lt;tr&gt;&lt;td&gt;&lt;/td&gt;&lt;/tr&gt;&lt;/tbody&gt;&lt;/table&gt;&lt;div&gt;&lt;br&gt;&lt;/div&gt;" style="shape=partialRectangle;html=1;whiteSpace=wrap;connectable=0;strokeColor=inherit;overflow=hidden;fillColor=none;top=0;left=0;bottom=0;right=0;pointerEvents=1;align=left;" vertex="1" parent="TcOs8MlBDePF8n8dFPZF-105">
          <mxGeometry x="40" width="857" height="60" as="geometry">
            <mxRectangle width="857" height="60" as="alternateBounds" />
          </mxGeometry>
        </mxCell>
        <mxCell id="TcOs8MlBDePF8n8dFPZF-108" value="" style="shape=image;verticalLabelPosition=bottom;labelBackgroundColor=default;verticalAlign=top;aspect=fixed;imageAspect=0;image=data:image/png,iVBORw0KGgoAAAANSUhEUgAABDIAAAJ/CAIAAAAF3WT/AAAAKnRFWHRjb3B5bGVmdABHZW5lcmF0ZWQgYnkgaHR0cHM6Ly9wbGFudHVtbC5jb212zsofAAAC2WlUWHRwbGFudHVtbAABAAAAeJyllM9OE1EUxvf3KU5YwaINLRVxFganfzS1BbSF/aUdycRhhsxMm7hTCCpBQ3Rj4kJj4gOU2mJtBV7h3jfyO9OWTit142Iyf+45v/PNud+560Eo/bCx74jgue2S7wWWEELWQs8n9VkNVE911aU+JBlQVhwg1q7ZB9INaUF91y/VFS9yiOoscEwhPxP0Qb9X/ViAmRd1GcpdGVi8qlrqp2qR6uDhEqxTfRyF5UwhspS4D6BBqSSpTwi45oL6lerpQ/2O8NBG/XNcHc5UXf40QMShPuVfsJsytFhRIc8kE6R0kh5Vq1sJLjrGGaS+gjHQR/rNCA0gFvB4pK7/gca/mDfoFYj8CCq3DH+jX4N1NlrPmQZlklR5UpqqTKpPD5rSduSuY1UcLwwmbDQgZ1JiBL8Twa+Q3EZqS58A0sWuQNU16rzCUv8v1fr4RjXW26JuxemRtFGDV+fgi5XNDWKds/34rXoTdotf43T0Jeo56FmD7gL+JZJwznB18Z/asaETa6yxcgiK0GNbRGmMHOgzGjY8KtSb44p7t7uCLXc+9DjS+d6eqTFlhdhep5ZvM0OsY7Q4rANiF/c+vkwbYWmeE1I8DOzXDjjD7ItoekYtHeqKSUmPh4dbgE61R7GqPR7wy+GI61OCKJ6uYx4HXD+i1k9VX5mioRNH0TZ29VtgrqJtxES2UGUQDX1rxnUx06Uyt/4JZ+HQmd63ueZK8WR8A4TddTJJxuuMNvVrLhJmWLfcOp+CYsvBubVdLlHT8gPbc3H4pJfTmeTaYsG3acNroiT218hkjMwqlStV4uUlsfhwq0SB1/BrFtXtIPTt3UaI/CVRlE1JTxtuaO9bBm0eWG4x93j8gfJu0/Y9d99yQ1HcKU8CVjMJ0w6pYvlQQjtlkbOeyYYTIqPm1W13z6DtaiGxJkrS3WvIPbAtV2Q9cP0XBrkNxxF/AKnX6Dx45q4zAACAAElEQVR4XuzdB1gU19oHcKSp2LtGI8ZubKhgw26C3tiiiTHGxHI1lojRxKixxk9FE2OLmmtuFLEFKSJ2Y0EgGFRQsaAUCzZUwIaNIrDfy55w7ji7MyBld3bn/3vm8Zk9c6YuZ3z/bMFCAwAAAAAAYFQW4gYAAAAAAADDQiwBAAAAAAAjQywBAAAAAAAjQywBAAAAAAAjQywBAAAAAAAjK9pYkvUqI+HY6WsbdkfOX0//0jy1iDsBAAAAAIC6FVUsSX/y7MLsdTsr9PCyaCucdlbofmH2WloqXgEAAAAAANSqSGLJo9NRe2r1ZTnkYLOBYWO+vfjDAvqX5lnjnlr/enT6sng1AAAAAABQpcKPJZRJfO26UPY46vzZgzD/rKyzwolaqJ2W+tp1RjIBAAAAAABNoceS9CfP2OskJ4d/nZl+WpRJ2ETttJT67K7Z+961G8nJyampqeINAQAAAACAahRyLLkw6z/sdZKMtHDdQMInWspeMzk29ofY2Nj4+HiEEwAAAAAA1SrMWJL1KmNnxfcobOi+d0t3oj7Zb+Uq1y34WGBERERcXFxSUhKSCQAAAACAChVmLEkMOpP9GffmA3VDiN7pYPMPs7+ba9EvAQEBLJkkJyeLNwoAAAAAAOauMGPJtd+zXwAJHztVN4HoncLHfkv9//j3DD8/P5ZM4uPj8YIJAAAAAIDaFGYsubx4E8WM8zPn6SYQvRP1pP7bPv5669at/v7+wcHBsbGxeMEEAAAAAEBtCjOW5LxaMk03geid+KslHh4enp6eBw4ciIiISEpKEm8XAAAAAADMWmHGkpzPlnysm0D0TuyzJdvnLqVYwl4wCQ0NjY+PF28XAAAAAADMWmHGknx8E5d3mS5ef3hSLNmyZYufn19wcHBcXJx4uwAAAAAAYNYKM5Zo/vd3S4bn8e+WeA+c5O3tvWnTps2bN/v4+AQEBMTGxoo3CgAAAAAAZq2QYwn/K+/HP8v9r7x7V+rp7bEFsQQAAAAAQOUKOZaQR6ejfO26UOo44PSp7ru5qIW9TuJV3Nl7yWrKJF5eXngTFwAAAACAmhV+LNFok8nO6r2zs4dF210N+gW4jAro+nnQv0bvazKANWa/TqLNJMTTM/uzJfjIOwAAAACAahVJLCH3rt04Mma+d+nsl01em0p19h70NXvvFnuphAIJviAYAAAAAEDNiiqWJCcnx8bGBh8L9FuwanvrTymQ0L/b5yz1+sOTBxKKIiyT4M8pAgAAAACoWVHFktTU1Pj4+IiIiICAAN8h2X82cduHEz20NmmxeZZJ/Pz8qBt1plVoRfG2AAAAAACgYFITHz27cjsh8AybaJ5axJ2Mp6hiiUb7gklcXByFjb0jZmW/WvLR1+vXr//999//q0Uz9NDT09Pf359lEuqMl0oAAAAAAAou42Vq0vFz0cs3H//om4NNP/Ip7iz+bIV2onZaevyjKdHLPZKOR9Ba4g0ZShHGktTU1KSkJAobR8cvpHP2HzZ969atmzdv3qhFM/TwwIEDwcHBLJNQZ7xUAgAAAACQb5lp6bd3Hjs+8BueQ/Y36Bvy4dhz0+ZEr1p23ePX+8e82ETz1HJ28vch/cdQn39Sim3HIJdx1913ZrxIEW+6iBVhLNFok0lycvKJqSvoJCmc7N2719/f31eLZughBZLY2Nj4+HjqhkwCAAAAAJA/aY+enp/xy86KPajw3l3TJWLq7Du7N6U+CNH9K4J6J+pJ/WktWpe24Fe26/kZK2ib4t0UmaKNJcy5Oevo3MKm/xIeHv73338Ha9EMPUxKSkIgAQAAAAAoiFs+RyiQeFu1O/GZ6/2A7VmZZ3SDR16nzDO0BdoObc2vQvfLG/0MU64XKJYkBJ6JnL8+1+lYt/EUS+jfv77+STTpdqZtincDAAAAAAASzs9YQ8X2kfZDnkTuF2eMAky0NdombTlkwgIDvLmpQLGEUoTwEzOFMtE2xbsBAAAAAAB9LrltpBI6fNzUzFcFeIVEYqJt0pZp+4GTFxf1R8ELFEvwagkAAAAAgLE8Pn/Fx6Zj6JCvdBNFIU60fR+bDsc9d8XGxhZdMilQLBF6+vTpgwcP7t69e/Pmzauvo/hBsYT+PaVD1JOjjdCmaIO02SI6cwAAAAAAk3Zi2Dy/8t3y/rn2/E20fdrL7ve/DA0NLbpkglgCAAAAAGB6MtPSd5TqGj7+O90gUegT7cWnZKc9O/2LLpkglgAAAAAAmJ5HYZeoxr7yn1W6KaLQJ9oL7Wv74lUHDhwICwsrij+DjlgCAAAAAGB6Ylf7UI19eemPuimi0CfaC+3rj+HTfHx8AgICIiMjk5KSxAdUMIglAAAAAACm58Yff1KNfe77ebopotAn2gvta8u4Wdu2bduzZ09YWFh8fLz4gAoGsQQAAAAAwPTcP3Iqu8bu96Vuiij0ifZC+9r83cItW7b4+fkFBwfHxcWJD6hgCi2WyIjU/nkT+lccPq5eFXcFAAAAAIA8SAg8QzX2jtJdDPBNXLSX7FdLvl+8efNm9j6u2NhY8QEVDGIJAAAAAIDpYbHEx7q9If5uiXV7xBIAAAAAABBjseTU6G+9iv6vvLO9IJYAAAAAAMBrWCy5f8zr/Iy5NHOk/ZAnkft1o0W+J9oabZO2TNunvSCWAAAAAACAGI8lFCFueq/fWbG7t1W7E5+53g/YnpVZgFdOMs/QFmg7tDXaJm2ZGhFLAAAAAABAD2EsoSn14fHzM+b6lc3+bPrumi4RU2ff2b0p75+Gp57Un9aidWkLFEhoa7RNthSxBAAAAAAA9BDFEja9en7y2oa1QS4jfWw70lKa9jfoG9J/zNnJ30evWnbd41fqzyaap5Zz0+aEfDiW+rDOPsWdjw8ce8tvY0ZqmHCziCUAAAAAAKCH3ljyv3zy4lRiiE/UsqXHPxp3sOmHlDdY8BBN1E5LqQ/1pP60lu6mEEsAAAAAAEA/+ViiO6UkBD+NPcRfLaF5atHtpndCLAEAAAAAAD3eNJYUZEIsAQAAAAAAPRBL3kzGy9QDjT+h06B/YyMvI5YAAAAAABQcYskbyMrMPD5oBv9IzaFerldiYxFLAAAAAAAKCLHkDUR8s9Ir+2uP37vjH0T/0nzgqB8QSwCY9MdP6YaCiU/pT56JrxGAWTOzmwCGMICBJSCW5FHsGh+v7C8d65QYdIYexh856W2b/cVkIXPWRGlRLElNTRWvBqAa7G6CiU/sXgGgHmZ2E8AQBjAwxJI8id/zl7dVe69i7W5sO0gPKX48ffr01PJN1OJl2S50zVYWS6gRyQRUi91NolcuSwj0UvkUvWIZahpQIbO5CWAIAxgFYknuHp2O2lGqKx165IINmpxM8uDBA8ohQV//SO0+JTuf3XGQHlIjkgmoFrub0P/ouoNfbRO72aGmAbUxm5sAhjCAUSCW5OLFzXu7a3xAx31q5ALWwjLJ3bt3KYdERUX9OeAbWupXxeXyXyepkSWT17cBoApmU5EUfGI3u8Bft0RERNBtLj4+Pjk5WXy9AMyO2dwE2BD+c8X60NBQjGIAg0EskZP+5NnBZkOzy4ueEzPTX2m0L5WwTHLz5k0WSy5fjNzXfiT12d3wo+uRUSyZ4AUTUCGzqUgKPrGb3a7Fa+g2FxYWRne6pKQk8fUCMDtmcxNgQ9hn/vI9e/ZgFAMYDGKJJMohlEboiCmZsK/jYG/f4pmEi4m4QJmEeh7o+O8b165TB7yVC1TIbCqSgk/sZrd97lJ/f3+600VERMTHx4uvF4DZMZubABvCW2cu9vT0xCgGMBjEEkmnRi7Ifg2kxgcvbt7TCD5SwjMJzdzNERd+fmfVXtT/6EfTqB0fMgEVMpuKpOBTzs3OjWqaPXv2hIaGxsXFia8XgNkxm5sAH8KbNm3CKAYwGMQS/SIXbKBj3VGq66PTURpBJmEfKeGZhMUPtij2zxBfuy601l9TlvJFSCagHmZTkRR84jVN0d3sABTIbG4CbAh7/7CMYglGMYDBIJbocWPbQa9i7byt2sfv+UvzeiZhL5UIM0mqFusQuXk3+x7hM79sQzIBtTGbiqTgE2IJqJPZ3AQQSwCMArFELDHojE/xTnSgsWt8NHnIJGwt3u20W/bLLN62zhe9D+h2AzBjea9Irl7dGx3tr9tuNhNiCaiTzE3g+vV9YWHbhNO5c9663RQyIZYAGEVSyDkaeveOeOqOykKfaC/Z/1PPWlJ0Y7ygsSQ5Km5nxffoKCO+WanJcyZheOfjYxfRFnaU7xF9LFSqM4D5kalIhFNCQsD777d3dHw3Pv6w7lLzmBBLQJ1kbgIjRvSztraqVKkcn5o3r6/bTSETYgmAUTy7epuG3vVN/9EdlYU+0V5oX5uX/lJ0Y7xAsSQl4dHedz6kQzw+aEZWZqZG8CdK+Mfc5WMGSyZJiYlHP5hM29lZq8/Vsxf5KuLeAOZFpiJh0x9/LK5f/20LCwtbWxsbG+tixYrVrl19/fp5mZlndDub9IRYAuokcxOgWNK1axvddmVOiCUARpGZlr6jVNfw8dN1R2WhT+Hjv/Mu4bxpg3vRjfECxZK/P5lFt6Ej7UZlvMyOHKmv/4kS9lKJTCZhWDJJvHN3f6thtLVDH3zNX2CRWQvADMhUJDS5ublaWlouXDgxKSlwyBCXnj3bPnoUvGzZt5RPZs78N+tDS7dtc1u58rt27Zp17NjS3X2+cAv0sFs3x5YtG37xRZ/Y2N18FUo7vE9g4HpX1yFsngIP7Ug0zZ8/ni3du/eXPn06Ozg0Gjz4/dOn/3m9WGZrbIqK2inc2r//PUC4lE+IJaBOMjcBmVhy796RsWMHOTk1bdOmyddfD7179whfREPSy+snNh8ZuWPo0N5nz25nD/UOYbaKzCh+oyGMWAJgeCeGzfMr3yP1QYjuwCzEibbvW7arV6cRRTrGCxRLUhIeUTKhfzX6/kQJSxfymYRh6964EHWk75SoU2ffaF0A0yVTkaSmnipd2m7ixE/YQxZL2PyMGSNtbW2ePj1O89RYvXqljz9+78CBtUuWfE2JhVIK67Zq1bSSJYuvWPEdLerfv2vlyuUfPAhkq9AW+I42bpxvb1+DzYeFbfP0XEJT376dW7VqzOaPHv1vljbh0PHQLo4c+e2HH8bRltnb3GW2xqa//tpoYWGxefNC2tSUKZ+VK1dauJRPiCWgTjI3AYolXbq0Tk8Pp0m06Px5n9mzRx88+Kuf33IXlw5vv10tISGALaIhSYto5tIlv2rVKtGYZe1SQ5itIjOK32gII5YAGN7j81d8bDqGDvlnsBfRFPLxBC+r9t4//1qkY7xAsUSIvX1LlEny/opH/l5pATBpMhVJTMwuKgW8vf/5racwluzfv4YWsd+AUmPdujUzMk6zRdOmjWjcuA7NUB1ToULZpUunsHZ6SHXG3LlfslVkShA2TZ36RZ8+nflDWr1KlQq//PK/14hHjuw/dGjvvGyNUg0dbVpaGM37+CyVr2kQS0BtZG4CFEsscpQqVdLR8V0KIbrdUlNP0U2AD0MWS6KidlavXmnRoomsUWYIs1VkRvEbDWHEEgCjuOTmQQPw71HfZr4q/Pd40zZPjP6Wtu/16bdeXl4eHh5btmzx8/MLDg4u9L9NVPixhMnH50OEn0thEEvAvMlUJPHxh6kU+O23OeyhMJZs3bqIFl25sidLW0+MGTOQr3Xo0H+KFSv24sWJ2Njd1OfCBR++6N//HtC3b3bSoFXat29OVQibPvigU66xhLZDWxs//uMffhg3b95YijcuLh1atGiQl63t3Lncxsaazeda0yCWgNrI3AQolrRr1+z69X00nT27fezYQZaWln//vYktPXVqKx93NBidnR1YOw3JwYPfr1Gjcu3a1VmWyJIdwmwVmVH8RkMYsQTAWM7PWEtjcK/Dx48v7tcdofmenkTu3996cPboHuBKmWTbtm0US+jfPXv2hIWFxcfHi4+jYAo5ltzNkY9Ewd7KVcCNAJgQmYqEpjZtmjRvXv/Zs7+zBLHk5cuTbds2a9LkHdaHGr/+eihf5fhxDyo+kpICIyK8aObq1b18kavrkO7dndgqXbu2Wbx4Eps+/vi9XGPJyZNbaGvTpo3ga9H0668z87K15cun1q1bk83nWtMgloDayNwERJ8tycw8U7FiuVmzst+gRdO5c9583FEm6dChBWunIUmjldIF3SW+/34Ua5QZwmwVmVH8RkMYsQTAiP5e7uFdpquXZbvD/cbePbI9qyDfjpN55t7R7ccGjqeteZXu4v3NQpZJhAM8MjIyKSlJfBAFU8ixhMtfnODJpIDbATAJMhUJTRcv+lI1ULNm1enTRzg5NaUigyoSKhfefrsa/7gq1RP8VRSafvttDisakpNDihUr5u+/gi/q0qU1e11F/g0bbBLFkgcPAi0tLX19fxZ1y8rD1gYO7M7fK5JrTYNYAmojcxMQxZKMjNPCWCKcunVzHDmyP5unITls2Ac0Q3eJEiVsg4Pds2SHMFtFZhS/0RBGLAEwori4uJMBwf6Dv/Uqmf3nBH2r9AwZN+3mzo15/zQ89bzl7/H3hBk7qmb/8Y/sQDLA1XvjFp5JPDw8PD09Dxw4EBYWRrtLTk4WH0TBFGYsEcp3lmDJpFA2BaBwMhXJPzeI1FO//z6XCo4qVSqUL1/miy/6/PrrzBcvTvAOVE9YWVnu3Jn9jvObNw/Wq1fr228/Z4uokmjZsiH7ip6tWxdRSjl5cgtbRaYEYZMoltBEu6aMxD8je+mS3+HD63Ld2l9/bbSxsf7zz1/Zw1xrGsQSUBuZmwDFkrZtm8XG7qYpPPyPsWMH0SimMUWLaFzTGMzSZpVffplOkYM6sLV65nzkPUv7bX40Hp88ya5IpIYwW0VqFL/pEEYsATCipKQkGnShoaF7fP22j53t2ewjL+sO2enCoq3f270P9hjx1+ipEUt+jPptNQ1YNsX8vubcjz/9/dWMg++N2ln7X6yzl01H77bDvKYu8v7DkwIJ5ZCtW7dSIKHRTfN79uyhXdCOaHeFXqIXWixJfZ148ZsQbaqAWwNQLJmKRDQJP1sinKhx9OgPW7duXLlyeSpNund3YiUITffvH+3atQ01Up6xsyuxYsV3fBWpEoRPurHk2bO/R43qb21tVbFiuVKlStK/69bNlt8aFT3/fFz3dbS6aHdZiCWgVjI3AeFH3suWLeXo+C7/DowLF3wqVChLEw1tGuDr18/jawljCYWWTp0cKJBkSQ9htoreUZyPIYxYAmBEVDDzZHLgwAFKFFs2bNw8a/HWT6f84fjp9pq9KW/8EzxEE7XX+pdXu2FeX0zzXrDCa8s2ih/btm2jNMJeIWEfc6cN0maLLpNoCjGWAMCbkqlI8jjxeiImZpfwkyR8unXr4PnzPs+fh+ouyseUnBxCW4uL2//q1T/f/SUzUU2jG6UePQqWqWkQS0Bt8n0TSEsLi472j4zcwT/XnpepqIcwYgmAcfFkEhYWdujQIT8/P/ZaB41Kli42rf7P5p9+2fL9YjbR/OY16za9jvVkaEVanTZCm6IN0maLLpNo9MaSuLi46OhoYUtiYmJ4ePiDBw+EjQBQQPmuSPgk+jWnoqbAwPUDBnQTNT5+/FfNmlV1OyOWgDoV/CZQdFM+hjBiCYBeVFqHv+78+fPiToWEJRPaY0RERHBw8IEDB/z9/WlI8hdAtmzZslkWdaBu1JlWoRVpddoIbYo2SJstukyi0RtLRowY0bVrV/7wxo0b9vb2PXr0ePny5f86AUCBFbwiGTz4/YUL//nTBCY9IZaAOhX8JqCQCbEEQAaV1tbW1pUEmjdvLu5UeCg2JCcnx8fH0xikLBEaGkrjkaLFnj17KGP4+fn5yKIO1I060yq0Iq1OG6FN0QZps0WXSTS5xpLbt2/XrVu3S5cuL168eK0TABSY2VQkBZ8QS0CdzOYmgFgCIEP0G3/DYOEkKSmJ55OwsDDKGMHBwQGyqAN1o848jdBGijqQMHKxhI6jQYMGzs7Oz549E3Y4duzYEIE5c+aw9kWLFnl7e7N5OvSRI0d+9913fK19+/b16dPHwcFh8ODBZ86c4e20lqenJ38YFBTk6upKMxs2bBDuhfm///s/3hPA1JlNRVLwCbEE1MlsbgKIJQAy5GNJSEgIdWjbtm3Hjh2nTp36+PFjvojq3s6dOzdv3rxXr147duzItb9IdHQ0q5+p9h40aNCwYcOoto+Li6Ox6eXl9fHHH7du3drJyenLL7+kyjxWiza4evVqHkWOHDnCynKNdMWudymzd+/eGTNmaLTfEkZ7DwwMZO1Pnz6lU9i/f7+ws0Ymlty/f79Ro0atWrV6qvOX2tevX1+5cuXtWkOHDm3Xrh1r79mz5+zZs9n8/PnzixUr1rRpU/Zw48aNpUuX/vHHH48ePfrDDz+ULFmSv6mO1mJHzHh4eNjb29NMeHg420Xfvn3pMNg83eZ4TwBTZzYVScEnxBJQJ7O5CSCWAMig0rpLly6vtMTLNJoVK1YsW7bs8OHDu3btcnZ2phzCF61cuZLyw6FDh6h4trKyOnnypHx/EQowFhYWW7ZsoRJ6ypQp5cqV44ukNiJVlssv0l3K/Pzzzy1btmTzCxcurF69OuULmv/000/btGmTlpb2Wm+pWEKxjBJFmTJl3nrrrUePHok6/Oc//6lXrx6bX7JkiW4suX79eqlSpUaOHMliCT0HVapUoeyVswENLaI8w9eSOUlCua1Pnz7CFgDzYDYVScEnxBJQJ7O5CSCWAMig0lrwFdulHB0dd+7cKe6klZSURH2ioqJE7RkZGVST08gStUv1Z2gY0tL09HSa9/X1FcYSIeFGZMpymUW6SxlhLMnMzHxPa926dWXLlr169errfbPpjyV0cLSV+Pj4Jk2aDBs2TNSB9tGsWTM2rzeW9O3bd/z48WvWrGGx5OLFi7RBaqGoN2/evLlz57q4uLRo0YKv1b59+xk5PvjgA8QSUAmzqUgKPiGWgDqZzU0AsQRABpXWVC3HaUVERIwdO9bS0jI0NJQtTUxMnDlzZvfu3dmrAsWKFTtw4ABf948//hgzZkzr1q1pLRYw5PsL+fv729jYsHlRLJHaiExZLrNIuJTq/A0bNrBXNYSxhNy/f7969eq0Ly8vL94opD+W1K5dm5ITzZ86dcrKyorOStjh22+/pazD5nVjyd69eytXrvzw4UMeS2gjFEumTZu2ROA///kPX6tr1668/eOPP0YsAZUwm4qk4BNiCaiT2dwEEEsAZLDPR/CHWVlZFStWnDVrFnvo5OREJf6hQ4cuXLhw+fJlChLCwpuGEhX3n3zySb169a5cuZJrf6EVK1bUrVuXzYtiidRGZMpymUXCpf/3f//n7OxM8ePevXt6YwlFsmPHjvFGIf2xRHjtvv/++2rVqgn/aAkt5Z9lX/J6LKEIQee/fv16eshjCUUUOgL+SR0R+ZeENIglYL5YRRK9Yhn9j67yiS4CYgmokNncBNgQRiwB0EtUWmdmZvJYQrW7hYVFTEwMW0Qz9FBvzOjVq9fkyZPz3p8MHDiQf2hCGEtkNiJTlsssEi1NS0srXrz41q1bdd/E5eLiMnv27Bo1aiQmJvJ1udxjCW26WbNmlNJo/smTJ5RDrK2tz507x5aKYkn58uXpIaVAjSCWkC+++ILiCv+YO8WyI0eO8LVkTlKDWALmi1UkmPiEWAJqY2Y3AcQSAL1GaL8464rW6dOnx44dW6xYsZCQEFr04sULGxubdevW0XxycjJV7bSIJYSUlBT28ohG+1cEa9euTVW+TH8R2j71PHToEHsojCUyG5Epy2UWCZdScNixYwflnODgYN2PvCckJGRkZHTp0qV3794sLwjlHksIXUGKInSX+emnn+iy7tu3jy8SxRJLS0vqzB4KY8nz589HjRpFG6F0WKpUKfr3t99+42vJnKQGsQTMV/qTZ4lBZ9j054r1PvOXb525mEpz+q9dndPmdb+joAFVMbebgMcWxBIAXSMEH3kvW7aso6Oj8MPrVDDb2tpSyV66dOnly5dTncwSwoMHD6hz1apVqTCmFDFkyBAKKjL9hY4cOcL3KESdWQepjciU5TKL2FK2CzrUevXqrVy5UiP4bAnLSPw1iTt37lSuXHnp0qV8dUZPLCk6T58+vXDhAgU+ykniZQDqFhoaumfPHk9Pz03qRleArgNdjbi4OPE1AjBrZnMTwCgGeFNPnjy5ePFicnKyqJ0K5itXrkRGRlIHYbtUf44CAOUEUePjx495LNHkYSOGZ9BYAgBSIiIiAgIC/P396X/0zWpF505XgK4DXY34+HjxNQIwa+ZxE8AoBlCCoKCgAQMGiBoph9SsWVPUqCiIJQCKEBsbGxYWRv+X79mzx0et6NzpCtB1oKvBvgwQQD3M4yaAUQwA+WagWBI5P/u7uQBASnx8PP0vHhERERoaGmAMm8bPEjcZHJ07XQG6DnQ1FPWyMoABFPVNwDBjHKMYwCQoszI3UCzxsmgrbgIAAfr/Oykpif4jj4uLizWGX2xai5sMjs6drgBdB7oaqamp4msEYNaK+iZgmDGOUQxgEpRZmSOWAEA2DFIA84YxDgCcMm8IiCUAkA2DFMC8YYwDAKfMGwJiCQBkwyAFMG8Y4wDAKfOGYKBYoswP1gAAh0EKYN4wxgGAU+YNwUCxBAAAAAAAQApiCQAAAAAAGBliCQAAAAAAGBliCQAAAAAAGJmBYokyP1gDABwGKYB5wxgHAE6ZNwQDxRJlfg0ZAHAYpADmDWMcADhl3hAQSwAgGwYpgHnDGAcATpk3BMQSAMiGQQpg3jDGAYBT5g0BsQQAsmGQApg3jHEA4JR5QzBQLFHmB2tUJS0tTdwEIIBBCmDeMMYBgFPmDcFAsUTGixcvQkJCVq1a5ebmJl6mIzMzc9euXdOnTx8xYsTkyZP9/PyoRdwJcvj7+7/33nvVqlWzsbFxdXUVLwYAAAAAUAbjx5KJEydWqlSpadOmVlZW4mU6nj179s4770ydOnX58uWzZs2i+T59+mRlZYn7gUazdu3a6tWrb9++PSEhAeENAAAAAJTM+LGEkgb9u3fv3rzEEiIMIdeuXbOwsLh06RJvuXHjRlBQELUIC3Gqy2+/LiUlhbW/ePHiwYMHgYGBtCLvz6SlpUVERJw7dy49PZ030mZjY2NpF7QR3kjbefnyJZtPTU2lRfTvo0ePRDslbFNsv3x1vaR2RA/v3Lnz9OlTQV89h0pXtVSpUuHh4We06Hjk+zPPnz8XHi0/SNEB37t3j11A3UUa7RNE62ZkZLCHNEMHcOLECfZE66X3ZB8/fiw8GOGb0ETH/0aXWnR4AAAAAKAExo8lTN5jiRAVprTW7ZxaduTIke+8806PHj3q1Knj6Oj48OFD1t6yZctatWo1zWFra+vv78/ahw0bRp07depUsmTJpUuX8i1TQV+7dm3qQP3r1at34cIFaoyJiXFwcLC3t+/evXv16tV37drFt799+3Y2/+WXX1JSOnLkyOzZs9nuaMt879HR0az/1q1bc3alh8yO2KYoctB8XFycRuJQQ0JCaL9169Z99913aVO01qlTp9hG9PZn1qxZY2dnxw61RIkSHh4erF10wLQWu4C6izTaOEFXgD0pdL4NGjRo3LgxXeEqVaocPHhQ2JOROtmJEydWqFCBHYylpSWdEWvXPf43utTCwwMAAAAAhTBQLMn1gzVvFEuo87hx4z755BMqeTdt2sTbea2ZmZk5aNCgmTNnsodSVTW10/yjR49oPjg42MbG5tq1axrtL/ibNGkyffp01n/8+PGtW7embTo5OY0ePZq9DkN9njx5wjrwWBIWFlatWjUqpimWsEWkXbt2ospYt1YWysrKynVHr1696tat27x58/QeKm2BDoCK77Fjx7L277//nq4VrSXVnz385ZdfaLNsvk2bNgWMJbTZ9u3bz507l7Xv3r2bLo7uaxdSJzthwgQ6PDZfrlw5Fkvkjz8vlxqxREqugxQATBrGOABwyrwhGCiW5Po1ZG8US6hCXbJkydSpU+vWrfvFF1/w92tReXr06FGqrRcuXNi/f/9evXqxdqmqmtoXLVrE26kQX7t2rUb7O36qXBMTE1k7e6sY7ZT+vXv3Lu/PsbRAh+Ho6Oju7l6zZs1cY8mCBQvCw8NpR6K3V5GrV6/K7MjNzY1W3LVrl729/f79+/Ue6q1btyhl0UxsbCxrf/jwIT28cOGCVH/2kK4qv2iiWMIOmKlVq5YwlojOhdf9169fpxk6kogclC5OnjzJVmRkTnbUqFGTJ09m8zyWyB9/Xi41YomUXAcpAJg0jHEA4JR5QzDJWMI9ePCgTJkyvr6+7GG/fv1atWo1f/781atXf/bZZ1SksnaZWLJhwwbe3rdv3zlz5tBMUFCQtbU1b09JSaFC9rfffhM2CrFYsm7dug4dOlA0ykssadGiBQWAtm3bVqpUib9tiaE6XmZHhK1IZ3rx4kW9h3rq1KkzZ87QzPPnz/miEiVKHDp0SKo/e+jq6jp8+HA2L4ol7IAZOzs7YSwRnQuv++lELC0t+VpMaGgoW5GROVl6NilRsHkeS+SPPy+XGrFESq6DFABMGsY4AHDKvCGYdizRaDPG8uXLNdpfnFMRzD8LPnfu3LzEEv4WI9K8eXPKHpqcX+HHx8ez9qioKFb70r+6n4zXaLezZs2aKlWqRERE0MO8xBLesmjRIgcHB+FS2oXMjviHWGjF9u3b6z1UevjkyRMLwZcB3Lt3jz2U6s8eOjk5rVixgs3n401c7Fx43c9O5M6dO3xFXTInS3vhgZPHEvnjz8ulRiyRkusgBQCThjEOAJwybwjGjyWpqalJSUl//PEHxZIkLfZRgU2bNrG8IXT37t3ff/+dfT4hIyNj3bp11tbW58+fp4c3b96kcvPixYs0f+XKlWrVquUlllCEYHUztZQoUYIVuHQAVJSPGzeOZmgvQ4YM6dy5M7V369Zt0KBB7Eu3KP/wtx7RdmrUqMH/MEjeY0l6evqYMWPYxoVkdsRiCVuxY8eOUodKevXqNXToUGqkRV9++SWtm5mZKdM/ICDA1taW1+tvGkv4uQjr/h49egwePJi9aEN7PHbsmO5XYOmebEpKyrJlyypUqMA/Z8Jjiczxa/J2qRFLpMgMUgAwAxjjAMAp84ZgoFgi88Ga9evXW7yOkgm1jx49umfPnqLOCQkJ7HuZKleuXLx4cZrfs2cPXzp16tSSJUs2adKkfv36U6ZMyUssmThxor29PfW3s7Nzd3fnfS5fvtyiRYuqVatWqlSJ6uCrV69S461bt7p37166dOmGDRtS0Xz48GHWmbZDPXkNnZdYQrujUrt8+fJUKAu/C4uR2ZFwRZbH9B6qRvtCBHvnEi2iCxUZGcna9fbfvXu3pVa5HJQS6WLu27eP7VfvBWSLROcirPspY/Tt25dOpFGjRtTBwcFB9JXEGn0nu2DBAmdnZ+HbvXgs0UgcP5OXS41YIkVmkAKAGcAYBwBOmTcEA8WSwvXixYuYmBiKKOIFGk1iYiIt0v2VvF6s2k5NTaVKNzk5WbxYW1Xfu3dP1Eh1bXR0dK5/eKTg3mhHeg+V3L9/n7/HSUjU39fXl3KgYHm2ESNG8PhREM+ePYuKimLfeCbljU5Wo3P8IPTybtK13/3THur5kQYAAABQJpOMJYVF9CKAmgUEBCxcuFDUOH/+/KCgIFEjmITEoDN+5XqEDpmdFHJOvAwAAABAeVQdSyZNmhQYGChuBTALd/f/7W3VwatYu73vfBizcjtePAEAAAAlU3UsATBvlEx8bDp4WbTdWfF935Jd8OIJAAAAKJaBYokyP1gDYPZ4MqHJx9bZr0JPqRdPMEgBzBvGOABwyrwhGCiWsKoIEyZMRp+8rdrTv37le949GKq7VDSJRzIAmCyMaADglHlDMFwsETcBQNG75XPUR5tDaPKv7OJfrff+hh/zV0vkB6b8UgAwLRjRAMAp84aAWAJgtlgm8bZqv8d+wI7S3U58/oPosyXyA1N+KQCYFoxoAOCUeUNALAEwT5RJvK06eFu2E748IiI/MGmpm5ubu7s7/1uWAGC65Mc7AKiKMm8IBoolyvxgDYC5yv67JeV76r48IiJ/V6KlP/zwwy+//HLkyBHxMgAwNfiPGAA4Zd4QDBRLAMBg8v5X3hFLAAAAQCEQSwDUC7EEAAAAFAKxBEC9EEsAAABAIRBLANQLsQQAAAAUwkCxRJkfrAFQOcQSAPXAf8QAwCnzhmCgWCJf/QCAUcgPTMQSAHMiP94BQFWUeUNALAFQL/mBiVgCYE7kxzsAqIoybwiIJQDqJT8wEUsAzIn8eAcAVVHmDQGxBEC95AcmYgmAOZEf7wCgKsq8IRgolijzgzUAKid/V5KKJZGRkT/++OO///3vadOmhYWFCRdJ8fT0PHz4sLDFw8MjMDBw4Ztwc3Njm2IPV65cKdqmyeHnIhQcHCzuB1AY8B8xAHDKvCEYKJYAgALlL5aUKlVqyJAhVECPHj3a2tp627ZtwqV69erVa/LkycKWdu3azZ07d3SOOnXqNGrUiM2PGTNGb/vYsWPZplq2bDlx4sThw4eXL1++T58+WVlZwi2bEDqXpk2b8pMlVapUoWsu7gcAAKACiCUA6pW/WJKQkMDnv/32WwcHB8FC/fTGEmH9/dFHH1FR/r/F0u3CTUVERFhYWPz111/CDszjx49PnjwZFBR07949YfuNGzeo8dKlS5mZmbyRzuj261JSUlj7ixcvHjx4EBgYSCv+bysaTVpaGu393Llz6enpwnbabGxsLO2CNiJs1yvXyyK1Fzo74dFSN2p5+PChsE98fDydBWU26pCRkcEaqU9ycrJGe2ovX75kjampqdSH/qX5R48eCbfM0N7ZpcjZtqTnz58LVxSuInUuoismdQBSJ6jJ7enj/ekngbXrLiKiC0UzZ86cOXHixLNnz4TdhPQ+17pPDWvXPX2pM9Xk4fAAAMwSYgmAeuUvlggtXrz43XffFbfqyLX+1o0fUu3CTVGVZmVltX37dmEHpnbt2k5OTu3bty9RosTSpUtZ48iRI995550ePXrUqVPH0dGRl7ktW7asVatW0xy2trb+/v6sfdiwYdS5U6dOJUuW5NsJDw+n7dNS6lyvXr0LFy6w9piYGApp9vb23bt3r169+q5du1i7t7f3qFGj2LyQ/GWR2guZOHFihQoV2NFaWlqGhIRs3bqV+vAXjs6fP29jY0PVLVXVlNzi4uJYO11Ptn3aLL9uX375JfVhz/Ls2bPZZul8+TWJjo6m/rQL1l/GmjVr7Ozs2Fp05T08PFi71LnoXjGpA5A6QY3s0yc8Zlqdtesu0mjjBF2E29qAQbtr0KBB48aN6XmvUqXKwYMHhT0Z3SNn7bpPjUbi9KXOVJPb4QEAmCvEEgD1KmAsef78ef369efOnSteoIPq7+bNm48TqFq1asFjye+//16sWLHLly8LOzD898p+fn5vvfUWm+dVXWZm5qBBg2bOnMkeStWv1E7zjx49ovng4GCqg69du0ZbbtKkyfTp01nn8ePHt27dOkuLghAdLXsdhro9efKE9fn111+pwP1n6wIysURqL+zhhAkTqIXNlytXjmrf1NTUypUr82fqq6+++uSTT2jmxYsXVM7SYbN23VgSFhZWrVo1qqRFzzIdifCa6BbKetFPS7du3dh8mzZtWCyROheZK6bROQCpE9ToHJvw6dPbrrtII6j76agozfKf6t27d9P10X3tQurIdZ8aqdNnDzU6Z6qRPTxhIwCAmTFQLFHmB2sAVK4gseTVq1cDBgxwdnbmb1ORQfV3hw4dhB/srlWrVr5jCVV7VGJSsClVqtSqVas02po1KQcv+MLDw/fu3dunT59JkyaxFlp09OhROiM6gP79+9OmWLtU/UrtixYt4u1UZ69duzY6OpoKxMTERNZIFT89vHXr1tWrV2nm7t27vH+uZGKJ1F7Yw1GjRvEVWe1LM9OmTRs8eLBGG0WoMSAggHWgC/Xf//6XzYtiCVXVjo6O7u7uNWvWzDWWLFiwgC4pHRh7u5deS5Ys4VeVxxKpc5G/YrrFutQJyjx97JgZ+pETxhLR6fC6//r16zRDKTQiB+3r5MmTfPtE5sh1nxqp0+er6J6pzOEJu70p/EcMAJwybwgGiiXy1Q8AGIX8wJSJJRkZGZ9++inVncJfb8uQqb8Z3fgh1U6b+uyzz6hYvHLlCk9EXl5epXLwQ5o5c6aLi0vdunX5u5X69evXqlWr+fPnr169mjZCx8DaZeraDRs28Pa+ffvOmTMnKCjI2tqaN6akpFC9eOrUKSpkhe15IXNZpPbCHtKJUNnK5nksoXq3ePHiCQkJGzdubNCgAY9nu3btooqculWqVMnW1lYYS9atW0dxkXrmJZa0aNGCDrht27a0Hf6eJRFXV9fhw4ezeR5LpM5F/orpFutSJyjz9LFjZuzs7ISxRHQ6vO6no7K0tORrMaGhoXz7Gu1LZ1JHrvvUSJ0+b9E9U5nDE3Z7U/LjHQBURZk3BMQSAPWSH5hSsSQzM/Pzzz+nykn0EWQZvaTrb0Y3fki1625KXmRkpI2NDVV1VNRSufn06VPWPnfu3LzEEuFb1Jo3b/7bb7+x35THx8ezxqioKPbwxo0bNCP6ZLw83XPhl0VqL+whHaGvry+b57GE9O7d+6effmrfvv3PP//MWjhKkq9evRo0aBCPJWvWrKlSpQoFPHqYl1jCHy5atEjqew6cnJxWrFjB5nkskToX+SumW6xrJE5Q5unT2y5axE6H1/3sqO7cucNX1CVz5LpPjdTp81V0z1Tm8ITd3pT8eAcAVVHmDQGxBEC95Aem3liSlZU1cuTIOnXqXL58mb1p6sGDB2zRpk2bli9fznsKydTfjG78kGrX3ZSulJQU/gVKhw4doljy8uXLmzdvUmF38eJFarxy5Uq1atXyEkuoXmcVKrWUKFGCqkm6AlRwjxs3jmao1h8yZEjnzp3Zit26daO6n33DFeUf/iafAwcO8M+xCOmeC78sUnuhU1u2bFmFChX4i0LCWLJ79+7KlSsXL16cnpd/tvg64Zu4atSo4erqytrzHkvS09PHjBnDT1koICDA1taWl848lkidi0b6iml0DoDRe4IyT5/eduEifjrCur9Hjx6DBw9+/vy5Rnvwx44d0/0KLN0jl3pqZE6f0T1T+cPLN/nxDgCqoswbAmIJgHrJD0y9sYR9s5MQ1YhsEeWHnj178p5CMvU3oxs/pNp1N6Xr+vXrFStWbNasWePGjStVqsS/D2rq1KklS5Zs0qRJ/fr1p0yZkpdYMnHiRHt7e+pvZ2fn7u7OOlAka9GiRdWqVWnjVHFevXqVtd+6dat79+6lS5du2LAhlaf8rz0uWbKEtsnmhXTPRXhZ9O5lwYIFzs7OwvcUCWMJVb21atUaOnQoXyoijCW0ZV5A5yWW0BWgfZUvX56qZOHXgjEUGCy1yuWwsrKiq71v3z6NxLlopK+YRucAGL0nKPP06W1ni0SnI6z7KWP07duXjqpRo0bUwcHBQfSlxhp9Ry7z1EidPqN7pvKHl2/y4x0AVEWZNwQDxRJlfrAGQOXk70p6Y4mpoDoyNjb22rVrooIyMTExJiZG95fferG6NjU1lcpK9uc+hKh4Ff1RFIYqyOjo6Lz8lY+8kNqLXhQay5Yta5S/E+/r66sbLEeMGMGTgEb6XPJ+xQx5grSvqKgo9j1sUvJ+5Brp039TL+8mXfvdP+2h+AcyV/iPGAA4Zd4QDBRLAECBzDiWFArRr9sVjp6mYcOG8ZeADCwgIGDhwoWixvnz5wcFBYka8824J6goiUFndlZ6P2TAtKSQc+JlAAAmC7EEQL0QS+RNmjQpMDBQ3KpUAwcOHD16NP/LiebH7E/wjVAy8S3R2atY211vfRD109Z8vHgCAKA0iCUA6oVYAmC6sl8zqdDTx7ajt01Hn+Kdgvt8ixdPAMCkIZYAqBdiCYBJY8lkR8lONFpp8i3ZGS+eAIDpMlAsUeYHawBULtdYggkTJlOcfEt1vXswVLddNInHPACohjIrcwPFEtz+ABRIfmB64dUSAGVLDDrjX+k9/4rvsZjhbd3Bv7LLxR9+Z6+W5DrAxU0AoBrKvAMglgCol/zARCwBUDKWSXaU7uZVrJ23TceArhMSg84KO+Q6wMVNAKAayrwDIJYAqJf8wEQsAVCs7G/iKtnFq1hb4csjIrkOcDc3N3d3d/7nOAFAPeTvD8aCWAKgXvIDE7EEQJnY3y0J6j1Z9PKICAY4AEiRvz8Yi4FiiTI/WAOgcvJ3JVQtAAqU97/yjgEOAFKUWZkbKJYAgAKhagEwYxjgAGBaEEsA1AtVC4AZwwAHANOCWAKgXqhaAMwYBjgAmBbEEgD1QtUCYMYwwAHAtBgolijzgzUAKoeqBcCMYYADgBRlVuYGiiXyN0cAMAr5gYmqBcCkYYADgBT5+4OxIJYAqJf8wETVAmDSMMABQIr8/cFYEEsA1Et+YKJqATBpGOAAIEX+/mAsiCUA6iU/MFG1AJg0DHAAkCJ/fzAWA8USZX6wBkDl5O9KqFoATFq+B3hISMi8efNGjhw5adKkXbt2ZWVliTqIeHp6LtRasmTJ5s2bHz58KO4BAAqjzMrcQLEEABQo31ULAChfvgf4xIkTJ0yYQBnjm2++KVeu3HfffSfqINKrV6+WLVvSWuPGjXNycqJVLl++LO4EAJAbxBIA9cp31QIAylcoA9zd3Z1ihrj1dRRLJk+ezOazsrJatGgxY8YMvvTGjRtBQUGXLl3KzMzkjeTx48e3BdLS0lh7QkLCy5cv2Xxqaioton/Zw+fPnwtXefHiBWvXSOyFNiXsc+/evZSUFL5Iai/kyZMnbBdJSUm8EQCKGmIJgHoVStUCAMpUKAN81apVdevWFbe+ThRLWrZsSVtmD0eOHPnOO+/06NGjTp06jo6Owvd3TZw4sUKFCk21LC0tQ0JCWDutvn37djb/5ZdfWlhY8CNcs2aNnZ0dW6VEiRIeHh6sXWovtKmtW7eyeVKvXj1/f3++SO9eTpw4Qd1q1qxJu6hevTqdGl8dAIoaYgmAehVK1QIAylSQAR4aGjpu3Lh+/fpR+X7y5Enx4tdR7e7g4EDJxNXVtWPHji4uLomJiWzR7du32UxmZuagQYNmzpzJ15owYcL48ePZfLly5XRjSVhYWLVq1Si68COko+3WrRubb9OmDY8lUnvJSywR7eX999//6quvWJ+ff/4ZsQTAkAwUS5T5wRoAlStI1QIACleQAX7hwoXFixdTcqCSfeXKleLFr6Pa3dnZecmSJW5ubqNGjbK3t+cZIysr6+jRo7SXhQsX9u/fX1jlU0/+GotuLKGA4ejo6O7uXrNmTX6EtAu+BWEskdpLrrFEdy8ffPDB0KFD2TvKEEvAjCmzMjdQLJG/OQKAUcgPTPmqBQAUrlAG+OHDh62srO7evSteICB8ExeZNWtW06ZN2Xy/fv1atWo1f/781atXf/bZZ+3atePdaNGCBQvYvG4sWbduXYcOHShvCGOJq6vr8OHD2bwwlkjtJddYoruX6Ojorl27Wltb0yGVKFECsQTMlfz9wVgQSwDUS35g5rFqAQBlKpQBfvv2bQsLi4sXL4oXCIhiya+//lqmTBmauXbtmqWl5dOnT1n73LlzhbGEQoKvry+bF8WSNWvWVKlSJSIigh4KY4mTk9OKFSvYPI8lMnuRjyVSe6FY1aNHD8oqeLUEzJj8/cFYEEsA1Et+YOaxagEAZcrfAM/MzNy5c2d6ejrNU60/evRoKtlfvXpFDzdt2rR8+XJhZ4Zq96+++urZs2fJyclnz55t1qxZ//79qf3mzZs80ly5cqVatWosMKSkpCxbtqxChQpPnjxhWxDFkho1ari6urKHPDAEBATY2tryj5HwWCK1F7YpmViidy/Hjx+vVKkS2wtiCZgx+fuDsSCWAKiX/MCUqloAwCTkb4BTLKlbt66VlVXlypXpX0dHxzNnzrBFFFF69uwp7MxQ7W6hVaxYMar1R40axb9Xd+rUqSVLlmzSpEn9+vWnTJnCAsOCBQucnZ1DQ0P5FkSxpGrVqjyxsMCwe/duS61yOejYaMv79u3TSOyFbcrOzo6vQqvTQ7YjvXuhZEXn7unpyRoRS8CMyd8fjMVAsUSZH6wBUDn5u5JU1QIAJqEgA/z+/fuXL19+9OiReMGbS0xMjImJycjIEC94E76+vhSKRI0jRozgr37kcS8DBgwIDAwUtwKojzIrcwPFEgBQoIJULQCgcOY0wAMCAhYuXChqnD9/flBQkKhR3tSpU0+fPi1uBQBlQCwBUC9zqloAQAQDHABMC2IJgHqhagEwYxjgAGBaEEsA1AtVC4AZy3WAG3cSHxAAqJ6BYokyP1gDoHLylYEXYgmAKVPyAJc/NgAoasqszA0US3ADAlAg+YFp3KoFAApIyQNc/tgAoKgpcwwilgCol/zANG7VAgAFpOQBLn9sAFDUlDkGEUsA1Et+YBq3agGAAlLyAJc/NgAoasocg4glAOolPzCNW7UAQAEpeYDLHxsAFDVljkEDxRJlfrAGQOXk70rGrVoAoICUPMDljw0AipoyK3MDxRIAUCD5ysC4VQsAFJCSB7j8sQGAOiGWAKiXfGVg3KoFAAqogAM87WHytd/9X95NEi8oDPLHBgDqhFgCoF7ylUGuVQsAKFm+B3hSyLkTn/+ws+J7iUFnRIsKi/yxAYA6IZYAqJd8ZSBTtQCA8r3pAE97mByzcvuBJp94W7bztu4Qt2X/62sUJvljAwB1MlAsUeYHawBUTr4y0K1aAMCE5H2As5dHdpTpfqDJEF+7zhRLijSTaHI7NgAoasqszA0US3ADAlAg+YGJWAJg0nId4Aumz1o/cIJv7T67a/bZV28QtdBkgEyiye3YAKCoKXMMIpYAqJf8wEQsATBpuQ5w407iAwIAA1LmGEQsAVAv+YHphVgCYMpyHeALps/a8OF4n8rv+ZbqwtOCb4lOCcfCxb0BwLzI3x+MBbEEQL3kByZiCYBJy/sATwo591f/73yKd/Ip0RnJBEAN5O8PxmKgWKLMD9YAqJz8XQmxBMCkvekAT3uYHL1s2+5afb2KtfWx7oBkAmDGlFmZGyiWAIACvWnVAgAmJN8DnL144leuR9H93RIAAF2IJQDqle+qBQCUr4ADvEj/yjsAgC7EEgD1KmDVAgBKhgEOAKYFsQRAvVC1AJgxDHAAMC0GiiXK/GANgMqhagEwYxjgACBFmZW5gWKJ/M0RAIxCfmCiagEwaRjgACBF/v5gLIglAOolPzBRtQCYNAxwAJAif38wFsQSAPWSH5ioWgBMGgY4AEiRvz8YC2IJgHrJD0xULQAmDQMcAKTI3x+MxUCxRJkfrAFQOfm7EqoWAJOGAQ4AUpRZmRsolgCAAqFqATBjGOAAYFoQSwDUC1ULgBkr+AA/ePDgwoUL79+/L16gY9euXZMnTx45cuScOXP+/PNP4aJXr15t27Zt3Lhxo0aNWrly5ePHj/kiT0/Pw4cPC/qap/Pnz9NljIuLEy/Isw8//NDLy0t3Xq9//etf/v7+4latXNfVSD+Vua579+7dZ8+eiVsB3gRiCYB6FbxqAQDFKuAAv3nzZrVq1SwsLCIiIsTLXvfVV19Vr1597ty5q1evnjRpUsOGDfmiJ0+etG3btkGDBm5ubqtWrerSpUuNGjUuXbrElvbq1YsqYN7ZXA0ZMsTa2vq7774TL8izxYsXh4SEsPl27dqtXy/39puWLVtu3bpV3KqV67oyT2Wu67Zp08bDw0PcCvAmEEsA1KuAVQsAKFkBB3jv3r2XLVuWayx58eKFpaXl0aNHeUtmZiafHz16NGWSp0+fsodZWVkDBw5s1qwZzWjyFkseP3588uTJoKCge/fuCdtv3LhBjZRwhLtLSEi4/bqUlBTWTsf54MGDwMBAWvF/W9Fo0tLS6ATPnTuXnp4ubKfNxsbG0i5oI8J2jrb58uVLNv/8+fM7d+68vvwfjx49Kl68+JIlSyjjvXr1ijXSST18+FDYLT4+nh2q3vNKTEyk42fzwnigtzOLJXpPVrhuRkbGmTNnTpw4wV/ikH8qhevqXjQ6nRYtWqxYsYIuFx0ta6QLeOzYsbNnz4quLYAUA8USZX6wBkDlCli1AICSFWSAe3h4UCyhJJBrLKGym/rs2bNHvEBbrNva2m7cuFHYGB0dTf2pmNbkLZbUrl3bycmpffv2JUqUWLp0KWscOXLkO++806NHjzp16jg6OvISnyryWrVqNc1Be2dvZ6L2YcOGUedOnTqVLFmSbyc8PJy2T0upc7169S5cuMDaY2JiHBwc7O3tu3fvXr169V27drF2IVpr+/btGm2iqF+/vpubm7iH1tq1a1u1akWBhGLJ7t27WaO7u7vwhQjKFVZWVnS1pc5LGAn4vFRnqZMVrkvPAsXFxo0bU58qVaocPHhQI/tUagTr6r1os2bNsrOzo522adOGDozyzEcfffTWW2+9//77dCVdXFzEmwNjU2ZlbqBYIn9zBACjkB+Y8lULAChcvgc41cdU3N+4cSMvsYR88cUXFAD69ev3008/nT9/nreHhYXR6hcvXhT0zVa2bNmVK1dq8hZLMjIy2Iyfnx+VuWyev4JB5e+gQYNmzpzJHorev0RFM48lNE9lN80HBwfb2Nhcu3aNttykSZPp06ezzuPHj2/dunWWFgWh0aNHs9cKqNuTJ0/4NjkWS+7evUsBY8GCBeLFOahMZyf7zTfffPjhh6zx6dOnVMSfOHGCPaRj+OCDDzTS56U3lkh11nuywnXpBCnmzZ07lzVSWKLIxF6NkXoq+bpSF03z+pu4aN1SpUrxV3iSk5PZDCiH/P3BWBBLANRLfmDKVC0AoHz5HuBUPbNKOo+xRKMtbamOb9SoEfX/6KOPWJagmpge3rp1S9T57bff/vHHHzX6YklqampSDlbsarS/nt+7d2+fPn0mTZrEWmjR0aNH6eAXLlzYv39/2g5rl4klixYt4u1UQK9du5a9bsPfcUS1Ozvaq1ev0gzlDd5fL9rmqlWrGjduPGbMGPGyHBcuXLC2tk5ISKD5c+fOUUJg8+Tzzz+nml6jjT0Ut3x9fTXS56U3lkh11nuywnWvX79OJ0jPTkSOcuXKnTx5kvXR+1TydaUumub1WEKRieLN4sWLY2NjWQsojfz9wVgQSwDUS35gylQtAKB8+Rvg9LBKlSpUm1ISoBKfis7Vq1dfvnxZ2EcGrU6F+B9//KHRfrSAVuef1WbS09OtrKy2bdum0RdLvLy8SuXgr1HMnDnTxcWlbt267E1TpF+/fq1atZo/fz4d22effUYVM2uXiSUbNmzg7X379p0zZ05QUBAdKm9MSUmhoz116hTV68J2KbRNqrwpLNWsWZO9NKFrypQpFDl+yEEntXz5craIEkX58uUphh08eLBixYppaWka6fPSG0ukOus9WeG6dIKWlpa9XhcaGspXYYRPpSZnXamLptH5yPuhQ4d69+5tZ2dHT5y3tzdvB4WQvz8YC2IJgHrJD0ypqgUATEL+BjhVk8452rZtS0Wng4MD/3V7XlAY4L+tp5J0woQJwqWbN2+map79ul03lsiIjIy0sbF5/PjxtWvXqKrmH6OfO3duXmIJf88Sad68+W+//cZeFYmPj2eNUVFR7OGNGzdoRvRhcV20TVdXV5oZNmzY4MGDxYu1AYwCHi2anIMyTLNmzdjSrKys2rVrU73+6aefTpw4UaN95UHqvHRjiUxnvSfL5tm67ASlPqMvJHwq2bpSF43mnZycRJ8j0mg/HE+piZ44fqigEPL3B2MxUCxR5gdrAFRO/q4kVbUAgEko+AAXvYlr06ZN/Jf93IMHD5YsWcL/tsmePXusrKz4XyPx9fWlELJlyxb2jqwTJ05Ur1593rx5bCnFknHjxvF3bRH+liEmJSWFf08U5SWqbl++fHnz5k2LnI+sXLlypVq1anmJJTVr1mSFOLWUKFGCKmk6pDZt2tAB0Aztd8iQIZ07d2YrduvWbdCgQeyLtqie1vuGLvbZEo32S5ApYFDcEnXw8/MrU6YM+34thq4SXZywsDD2cPbs2bTHkiVLhoeHa7TfyCx1XrqxRKaz3pMVbadHjx6Ul54/f67RBqRjx47RFZB/Ktm6MhdtwIAB3377LftADiWfmJgY1v7333/TdvAnTZRGmZW5gWIJAChQwasWAFCsgg9wUSwZPXp0z549X++S/V23VJhaW1tXqVKlYsWKZcuWXbx4sbCDp6dnrVq1KlSoUKNGjWLFii1dupR/aIRiicXrRJ+Pv379Om2zWbNmjRs3rlSpEn+P0NSpU6mab9KkSf369adMmZKXWDJx4kR7e3vqb2dn5+7uzjpcvny5RYsWVatWpY1TtX316lXWfuvWre7du5cuXbphw4Z05Hr/5iOPJSQwMLB8+fKiP5jYt2/f4cOHC1uIi4sL+0iJRhsn6JSbNm3Kl0qdl24skeksdbLCdSlo0eHRCTZq1IiO3MHBIT09Xf6p5OtKXTSKH/Q0UQp1dnamebpu7FvRaGbdunV8O1C4Xt5Nuva7f9pDM/lSAcQSAPUqeNUCAIplyAH+8uXL2NjYGzdu8D/NIUQ5hAJGSEjIW2+9xb/EKY+oXKYtX7t2TfS3LxITE2NiYkSvrkhhcSU1NZVKat1vhaIaXfRHURgq06Ojo/nXSRnGG52XTGepkxV69uxZVFSU6IMx8k8lJ3XRODoqyml0eMLXi6AoJAad2Vnp/ROf/5AUck68zNQglgColyGrFgAwMAUO8MjIyI8//vj06dPiBUVM9CoKgJm5f+SUj42zt2W7/Y0Hx6zcbrovniCWAKiXAqsWACgsGODcpEmTAgMDxa0AZoSSiW9xZx+bjvvqf7SjTDcTffHEQLFEmR+sAVA5VC0AZgwDHEBVWDKhoU3T7rf67KrxL5kXT5RZmRsolsjfHAHAKOQHJqoWAJOW6wDHhAmTeU8+Nh3p3x1lu989GKq7VDSJ7xHGgFgCoF7yA9MLsQTAlGGAA6hKYtAZ/0rv+Vd875+kUawdBZLT439kr5bkekMQNxkDYgmAeskPTFQtACYNAxxAPVgm2VG6W3YgsWz/Z6sv4nf/JeyQ6w1B3GQMiCUA6iU/MFG1AJg0DHAAlaBM4luyi5f2/Vr85RGRXG8Ibm5u7u7uISEh4mUGZKBYoswP1gCoXK43KVQtAKYLAxxADbL/bknF9450GCN6eUTEJG4IBoolAKBAJnGTAoD8wQAHMHt5/yvvJnFDQCwBUC+TuEkBQP5ggAMAZxI3BMQSAPUyiZsUAOQPBjgAcCZxQ0AsAVAvk7hJAUD+YIADAGcSNwQDxRJ85B1AgUziJgUA+YMBDgCcSdwQDBRL5K8FABiF/MBUyE0KAPIHAxwAOJO4ISCWAKiX/MBUyE0KAPIHAxwAOJO4ISCWAKiX/MBUyE0KAPIHAxwAOJO4ISCWAKiX/MBUyE0KAPIHAxwAOJO4IRgoluAj7wAKZBI3KQDIHwxwAOBM4oZgoFgCAApkEjcpAMifIhrgBw4cWChw6tQpcY/XeXp6sp5LlizZvHnzw4cPxT0AoOgV0Q2hcCGWAKiXSdykACB/imiAjxs37t133x2dI9fVe/Xq1bJly4kTJ9KKTk5O5cqVu3z5srgTABSxIrohFC7EEgD1MombFADkTxENcEoXlDHErdIolkyePJnNZ2VltWjRYsaMGXxpWlpaRETEuXPn0tPTeePjx49PnjwZFBR079493piQkHD79u07d+48ffqUN7L2Fy9ePHjwIDAw8MaNG8JF9JA2cunSpczMTN7I+rP5R48eJScns/lnz54lJSXxbnrXJRkZGWfOnDlx4gT1Zy20kds6hKfD0aZiY2Nps9SBtbCTEkpJSeGLXr58yeZTU1NpEf0rtR2NxJUUbuT58+d09fgiIVokPAZ+fTQSm9XoHIPURaCnUvT6WHx8PDtHqXMXPkGEfgaE10S4SKP9iaIV6Umh0xSeHa1C7aLnjtF79eg4hUdCZ83adU9f6kyl+mukf3QNrIhuCIULsQRAvUziJgUA+VNEA5xiyfDhw0NCQq5evaq37BMRxZKWLVvSftnD8PDw2rVrU0vTpk3r1at34cIF1k6NTk5O7du3L1GixNKlS1kjdatVqxb1LFWqFM3HxcXx9mHDhtWpU6dTp04lS5bk/UeOHPnOO+/06NGDFjk6OvLimPpv3bqVzdOKPCP9/PPPdKjy60ZHRzdo0KBx48a0rypVqhw8eJAaZ8+e3VSL9s6OkFBPtgoXExPj4OBgb2/fvXv36tWr79q1SyM4KcbW1tbf35/1p0Xbt29n819++aWFhQV7pvRuR+pK8o1QGKhfv76bmxtrF1mzZo2dnR07BrrmHh4erF1qs7rHIHUR6FLTivS8sxXPnz9vY2NDZbpG+tyFTxCh1YXXRLhIo40TdGWo6KcZerJWrlzJ2vv16zdw4EBhT0b3yFk7Je0KFSqwI7G0tKQfb43E6UudqVR/jfSProEV0Q2hcBkoluAj7wAKZBI3KQDInyIa4BRLypUr16hRIyrLWrdufeXKFXGP11GtT4UgJRNXV9eOHTu6uLgkJiZqtC87NGnSZPr06azb+PHjaWusfqVFrNHPz++tt95i87zCfvXqVbdu3ebNm8fbqQR89OgRzQcHB1PVe+3aNZq/nfO7cMpOgwYNmjlzJu+fayzRuy4dGyWluXPnskW7d++uVq2a8Jf37dq1ExXNHK1LQWv06NEsyNEJPnnyRKNTZ4tKcHa+YWFhtCMqmumZ0rsdmSvJNnL37t2GDRsuWLDgn93ooB8DuqRsvk2bNiyWSG1W7zH8syGdi5Camlq5cmX+M/bVV1998sknbF7q3KXadRdpBLGE5k+dOkV1P12u5cuXU0ShRcKeGulngUyYMIFOkM3TjzfFEqnTZw81Omcq01/qR9fAiuiGULgMFEvkrwUAGIX8wFTITQoA8qeIBvidO3dYVUclHdXxVJyJe7yO+jg7Oy9ZssTNzW3UqFH29vbsV9HR0dFUULKIQihL0MNbt26xh+Hh4Xv37u3Tp8+kSZNYC9V2tAVq37VrF21k//79vH3RokVsXqOtqteuXavR1qBHjx6lE1y4cGH//v155MhLLNG77vXr1+kIKflE5KD69eTJk2wVjU6dKnT16lVal+KBqF2+BKdali61o6Oju7t7zZo16ZnSux2ZK0kbWbVqVePGjceMGSNcRYSeHX7uPJZIbVbvMXC6F2HatGmDBw+mGYpwdMUCAgJYu9S5UzslqPActWrVEl4TtoiOjb2lTRhLyIoVK+hCUTjR+00MMkdOP5n8NT0WS6ROn68iOlOZ/lI/ugZWRDeEwoVYAqBe8gNTITcpAMgfAwzw0NBQqr2EvyzXJXwTF5k1a1bTpk1pJigoyNramrenpKTQpng1OXPmTBcXl7p16/I3MrXUoq21bdu2VatWFy9e5O0bNmxg86Rv375z5szRaN/GQ93mz5+/evXqzz77jMenvMQSvetSILG0tOz1OroCbBWNTp0qROsKT5aTKs3ZIjr3devWdejQgWISiyV6tyNzJWkjtra2lO5odfaCkl6urq7Dhw9n8zyWSG1W7zFwuheBCvTixYsnJCRs3LixQYMG/AUHqXOn9hYtWvArbGdnJ7wmbBH9DFSqVImqfFEsocxM59upUye+WSGZI6dnnL+axGKJ1OnzFtGZyvSX+tE1MAPcEAoOsQRAveQHpkJuUgCQPwYY4FSKFStWjH/4W69er8eSX3/9tUyZMpqcX13Hx8ez9qioKOFDJjIy0sbGhr0bh5XprH3RokXt27dn89TO31hFmjdv/ttvv1EpTBGCf8KYOuQ9lkite+PGDTpCqU+Na3TqVCG2rugT+Rrp0pwtWrNmTZUqVSIiIughiyV6tyNzJWkjFDk02jNlL1no5eTktGLFCjbPY4nUZvUeA6f3IvTu3funn36ip4wuMm+UOnepdtEi+hlwcHAQxpKMjIyuXbtSjHz77bfpx4xvgZM5ctqLr68vm2exROr0+SqiM5XpL/Wja2AGuCEUHGIJgHrJD0yF3KQAIH+KaIDv3LmTfU8RlVwdO3bkn0nYtGnT8uXLX+uqRbX+V199RdElOTn57NmzzZo169+/v0b7RimqgMeNG0czVFAOGTKkc+fOGu2vmXnOOXToEMUS9l1SvLZLT08fM2YM7Zr1oXYq2VlaoPq1RIkSdGA3b96kopD9WvrKlSvVqlXLeyyRWbdHjx5U3D9//lyjPf5jx47xj8FodOpUEbpQgwYNYudCmYe9lUi+BK9RowYLFZqcWKLRtx2pK8k2wi7akydPateuvXnzZtYuFBAQYGtry19w4LFEZrO6x/DPtiQuwu7duytXrly8eHHhd51JnbtUu3AR+xmg4xHGkjlz5tBPFx3V8ePHS5Uqde7cOb4RTvfI6edt2bJlFSpU4C/6sVgic/qM6Exl+kv96BpYEd0QCpeBYgk+8g6gQCZxkwKA/CngAE97mHztd/+Xd/9XRzJUK1tZWVWqVKlYsWIuLi783fajR4/u2bPn632zUa1voUX9ad1Ro0bx2vTy5cstWrSoWrUqbY1KuqtXr2q0H+GoWLEi1ZeNGzemdv6tUFTb2dnZUclYvnx5KvjOnz/P2ydOnGhvb1+/fn3q4O7uztqnTp1asmTJJk2aUPuUKVOEsYRth1DmoVqZzVOesba2Hjt2rMy6VMX27du3dOnSjRo1osNwcHAQfg+s3oqcowvVvXt3Wrdhw4ZUBB8+fFiTWwlOV4bXyjyW6N2O3ivJNsJ/Tx8YGEjHLPoaKAoMllrsIhB6cunc9+3bp5HerN5jYPReBCrTa9WqNXToUGGj1LlLtbNFwp+BCxcu8Fhy9OjRMmXK8D+J4+bmRs+R7ut4uke+YMECZ2dn4ZvxymljiUb69BndM5XqL/Wja2AFvCEYhoFiCQAokEncpAAgf/I9wJNCzp34/Iedld5PDDojWsTcuXOHKrDC+iMMVOsL/z6JRvtL5djY2GvXrun96x8irIpNTU2lQ+J/hIRJTEyMiYkRvqAh7+DBg8OGDWPzMutSsRsVFSXzUQ0ZVEZHR0eL/vhGPujdju6VzJWvry/lSVHjiBEjeBLQSG9W7zHoRVesbNmywcHB4gVGkvcj10ifvpQ37W8w+b4hGBJiCYB6mcRNCgDy500HeNrD5JiV2w+8O8Tbqr2PrfOVtT6vr6FQol+uF0RoaKjwYypqEBAQsHDhQlHj/Pnzg4KCRI35Rj9gFPb4K05gLG96QzAKxBIA9TKJmxQA5E/eBzh7ecSvfM9j3b860OQT72JtL877r3gFpZo0aVJgYKC4FRRj4MCBo0ePNtbfEAQu7zcE8TIDQiwBUC+TuEkBQP7kOsAXTJ+1fuAEX/u++xt+HPyvKbtr9aVGbwtTyiQAkEe53hDc3Nzc3d3Z52qMxUCxBB95B1CgXG9SiCUApivXAf5HCWf619e+j7d1B5phmeTEsHn0XzbNs/+4MY95zJvHvJd2jMtM9N+9j4/P2bNnNcZjoFjiJXtzBACjkB+YXoglAKYs1wG+YPqsjd2Ge5fu4mXZ7p/SpFhbvzLdpD7pDgBmwM3Njf5zn/fu+z/koBb6v37Lli30331MTIx4BQNCLAFQL/mBiVgCYNLyPsDv/XnycNtR3lba10yQTADMmru7Ow38hRWzXx5hqMXHx4duBWfPnpX5g6EGgFgCoF7yAxOxBMCkvekAT3uYHPHNSr/yPWmRj60zkgmAWQoJCaFR/4tN6yM5qIUCSUxMDGUS0bdsGxhiCYB6yQ9M3aoFAExIvgc4e/HEr1wPJBMAcyV/fzAWA8US9mkbAFAU+buSTNUCAMpXwAEu9VfeAcAMKLMyN1AsAQAFKmDVAgBKhgEOAKYFsQRAvVC1AJgxDHAAMC2IJQDqhaoFwIxhgAOAaUEsAVAvVC0AZgwDHABMi4FiiTI/WAOgcqhaAMwYBjgASFFmZW6gWCJ/cwQAo5AfmKhaAEwaBjgASJG/PxgLYgmAeskPTFQtACYNAxwApMjfH4wFsQRAveQHJqoWAJOGAQ4AUuTvD8aCWAKgXvIDE1ULgEnDAAcAKfL3B2MxUCxR5gdrAFRO/q6U76olLS3tv//976hRo1xdXXfu3ClerMPT03Oh1pIlSzZv3vzw4UNxDxWgi3D48GH+cNf/s3cmYFFcWd9XBGSJCyKCEUXciUZx3yNgRpO4zMR8xkQTl0Hjgrw648TENb4oOolxiZrHbEQTJ25owJjEiSMRh4wbr/sGKIpGUcENUUFE6zvpE+6U1V0XbKWppv+/h8fn1rnbubfqXs+/q6o7Pn7ChAnDhw+fPn36P//5T2G/d+/eP/7xj9GjR9P0Llq06Pr16yJLKZrJGzduCEtMTMyuXbtURYADUUoLHABQDjBmZG4jWQIAMCClEbXcvn27Y8eOQUFBFE9PmzZtyJAh2hJm9O7du1WrVhERERRtt2/fvlq1asePH9cWKu/QJJAO4fS4ceP8/PxmzJixZMmSyMjIJk2asJ30RocOHRo3bhwdHb148eLnnnuudu3ax44dUzdSoUKFqVOnCkvbtm3nz58vDoFDURoLHAAASg/IEgAcl9KIWiiYbtasGYkTbYY+6oj8wYMHLVu2fOedd0Tu3bt3Dxw4cPDgwYKCArZcv3599+7diYmJFy9eFMUuX77866+/nj9//ubNm8LIdnLmypUr27dvz8jIUGfRITVCYf39+/eFkctz+tq1azk5OZzOzc3Nzs4WxRSd6oWFhfv27du1axeVZws18qsZYiwCMQnUu5OT07Zt20SWaD88PJw0iRggzdXLL7/cokULSrCFGuncubOnp+elS5fYoidLqM20tDTyn5zR5hVx69Yttc/qc2p+UhhNsxbHnpWVpbkhduHChby8PKXoJKphO2epHaBTL6poLjaaDapIJ4JzMzMzRRa5R1nkFR9S7p07dzidn59PWfSvKKzG4nTRdah2leaE7eaTY3EeRK7FC0niecndLo0FDgAApQdkCQCOS2lELfXr11+6dCnJg507d4r4T45GlrRq1Yr65cPk5OR69eqRpXnz5g0bNjx8+DAZydK+fftOnTq5ubl98MEHXJLK+Pv7UzEKyil95swZYR8yZAh51a1bN3d3d1F++PDhgYGBYWFhlNWuXTsRKFP5VatWcZoqCoFEwT35yWlFp3pKSgrJBlJl1JePj8+WLVvIOG3atOYmqHf2kKCSoilGTAJNWoUKFb777jtNARIJrq6uX375pdpI7VBhCmr5kBqh7p5//vmIiAi2WJQlqampwcHBAQEBoaGhfn5+8fHxmgIMnUcPDw92mKZ6xYoVbLd4UhRLzVocO50CqiWk1KFDh1xcXCjUVlQnkaHxxsXFcTH1eSGoBc7S2BWTWqA5+dWkHyi3YsWK5BhnbdiwgbKGDRvGh5S7Zs0aTo8aNYqyLF7q5uNiO02yl5cXu0pKMikpSdGZHIvzwNeAxQtJkXpeQreV0lngAABQekCWAOC4PPGohUJnCpIGDx7s6+vbunVrCmqXLVumLWQGBdMU9lFQPn78+C5duvTq1SsrK0sx3XkICgqaPHkyFxszZkybNm0onOUPwomNGzc+/fTTnBax2r1790JCQmbOnCnsFB2yQNqxYwdFwOnp6ZTmsFUxfQ49YMCAKVOmiPIlkSXm1ckxUkozZsxg+6ZNm2gS1B/kd+zYURNAq1FrszfffJMi8n79+r3//vsUtbNx7969NLdHjhz5bx0TVatWXbRoEadZllBkTNVPnz6tWJIl5CeJuvDwcP5sniZT/S6KGjr1NJOcpnZYluidFHmz6rHn5+fXrFlTXFTjxo179dVXOa2nPSRZxcoS8ioyMpKzevTo0aFDB3NZQnNLJ4s0hvmlLhnX2LFjaficrlatGskSvcnhQ8XSNWB+IfGhxPOSuM088QUOAAClio1kiTFfrAHAwXniUUt2djZFhM2bN+dnnyg0r1SpkvjEVw8Kprt27Tpv3rzo6OgRI0YEBATwB898K4AlCkFygg7PnTunmD6T3rx5c58+fUTcRrEaVSd7fHw8tfDDDz8I+5w5czitmMJrVkoULG7bto1GN3v27P79+wvJUUJZYl6dZAC5R8rnQBEUqu7evVtUMQ9J1ahliWKaOgqFmzZtSm2+8sorFO9Sy2L4aurWrUsD5zTLEkpQlTfeeEOxJEtOnTpF7agfENKDzogYspAleidF3qxm7G+//fbAgQMV0xNrNEsJCQls19MenBUVFZVchL+/v5AlbCfH+FkmjSz5+OOP69Spk5ube/jwYTqcNGmSRpaQHmjXrl1MTAwVM7/UJeOia1WcMpYlepMjqphfA+YXEtslnpfEbeaJL3AAQLnBmJG5jWSJfHMEAJQJ8oVpRdRy9+5dJycnCrCExdfXV/PckTmaiHzq1KkkbCiRmJjo7Ows7Hl5eRTk7dmzh9JTpkzp1atXgwYNxNMsrUxQUx06dGjdurW4q0DGL774QjTSt2/f6dOnU6Jfv35UbNasWUuWLBk8eDDFi6J8SWSJeXWSDTT23g+zc+dOUcU8JFWjmQQBTT5NwjfffJOWlkbDZ8EmKCgoIOG3cuVKPuxdJEsoPnZ1daVw1lyWkJ/qWZUwfvz4oUOHclrIEr2TIm9WM3aK1ytXrnz58mW6Nho3bizuJ8hlScuWLcXEenh4CFnCdjrv3t7eJEo1soQaHDduHIX4o0aN+vzzz81lyfLlyzt37kw+WIzvJeOia4AUEadZluhNjrCYXwPmFxLbJZ6XxG3miS9wAEC5Qb4/lBWQJQA4LvKFaV3UQoqCYixxWLNmTUkszmgicorDqlSpohR9UH3hwgW2nzhxQn1IHD161MXFhb8kl2M1ts+ZM6dTp06cJrt4sIp49tlnP/nkEwqLSUKId8epwCPJEovVMzIyyL3z58+z0RzzkFSNnixRTNE53/AhGTZ27Fh11ldffUVxsHgQSMgSxfR+PIW85rKE/dS8/W+R9u3bL1y4kNNCluidFHmz5mN/4YUX3n//fTpNavfkssRiltpOsxQcHGwuS44fP07ix9/f/86dOxpZsnTpUh8fnwMHDtChxfheMi7yITY2ltMsS/QmR1Qxl2fmFxKnJZ6XxG2mNBY4AKB8IN8fygrIEgAcF/nCtC5qoSiTwjV+g3nlypUeHh78EAulFyxYoC1tgoLpcePG5ebm5uTk7N+/v0WLFv3791dMz7dQNDx69Gh+n2TQoEHdu3fPy8sTX3L1008/kSzhbyUSsqSgoGDkyJFdunThMmSnuI3VAgWybm5uFCaePXu2QtF7GidPnvT19X0kWaJXPSwsbODAgbdu3VJMzv/888/iNRjFLCTVIGTJlStX5s2bJ75K67vvvqtUqRL/pAkFwa6url9//TXfXti1a5efnx9Fq+pGhCyhuJwGSwLP/JX3kJCQAQMG8LxRTGzxCaWEhATqSwgeIUssnhQuI2nWfOybNm0iyVq5cmX195vpaQ9JlrDzeSdnzGWJYnrp/LPPPqOERpbUrl17/PjxfKgX35uPiy7CDz/80MvLS7xnwrJEMjmMZh70LiRF6nkJ3VZKZ4EDAMoH8v2hrIAsAcBxkS9M66KWe/fuUfBEaqRu3bre3t4bN25ke3h4eM+ePR8u+zu9Tb+2QVSsWJHirREjRohQ9fjx4y1btqxVqxY1RQHfqVOnTp8+XaNGDZIuzZo1I6P4eiiK1ahTig6rV69OsaB4U7yV6RdRAgICGjVqRAViYmLYTkGeu7t7UFAQ2SdOnKgOB7kdgjQPxc2cphDf2dn5rbfeklSngLVv375PPfVU06ZNyY3g4GD19+eah+ZqaHL4VWmKqsl/6svHx4dGWrVq1blz54piq1ev9vf3p4CYJoo6mjlzpvpbZdWyRDE5SbNqLktIKIaGhlL1Jk2aUFPqn3FkSDM4meCxEySNaLzff/+9YumkcC1Js+Zjp6idBvL666+rjXraQ5KlOe+HDx+2KEsEGllCoxDSQi++Nx9XVFRU165d1U/oVTPJEkV/chjzebB4ISlSz0votlI6CxwAUD6Q7w9lhY1kiTFfrAHAwZHvSsVGLXev5qR/Fncn86Ff82CysrJOnjypvlfwOFC4r/6JEor109LS0tPTzX/9wxwO7/Lz8yleFD9CwpCTqampJXdyy5Yt6l+H1Kuem5t74sSJEn45sqB+/fpLliwRh3fu3KExZmRkkMxTlfqNBw8ekDZLSUkRP5RhHRS+UyMWf2EmNjaWZKTGSDGxEAmK2UkRSJpVQ7NEimvHjh3aDKNSwnExepNjEb0L6fF5zAUOACjHGDMyt5EsAQAYEKujltSFaxK6v/Wt9x+yEvdpsoyG+afOVrNz5071aypPio0bN7788suenp4WH6YqExISEtTfW8DMmjVL/EDKY0JXFAk8cWcAlBJWL3AAACgTIEsAcFweNWq5mZLx775/Xe/aZW3FDhs8exhfkxCRkZHbt2/XWo3E8uXLZ86cmZaWps0ov5AMCw8PFz95CUqJR13gAABQtkCWAOC4lDxqSV245rt6/ddW6EjGLS1ei6/V2y40CQCOTLELPDo6OiYmRvOt0wAAUFZAlgDguBQbtcwd/7evmr+81rkzpfnv55Ax0CQA2AXFLvCPPvpo/fr1+/fv1+YBAEBZYCNZYswXawBwcIqNWla7dvlNjVTqJGTJetcuJ+b/g1Y0pXldI4000sZMry1atnp/X3/99W/3QlNTFQCAg8G7hNGwkSxZK41+AABlgnxhUm7U5Kmfvzw21v+lON8X4n16cyizwfM53C0BwI6IiYn56KOPZtf47fYIQ5b169eTJtm/f7/kN0ABAOUVeQBQVkCWAOC4yBfmWtW7JdlJB3e98d6Gp0K+C/jjOufOUCYA2BFJSUm0ij9yafOvIshCgiQ1NZU0ieaLswEAjoA8ACgrIEsAcFzkC1MtS9hy92pO6qI1PzT9f+ucOsZW7gZlAoAdIV/vAACHwpgbAmQJAI6LfGGayxIB3zyxi98tAQAw8vUOAHAojLkh2EiWGPPFGgAcHPmuJJEljORX3gEARgP/EQMABMbcEGwkSwAABuQxZQkAAAAAwJMCsgQAxwWyBAAAAAAGAbIEAMcFsgQAAAAABgGyBADHBbIEAAAAAAbBRrLEmC/WAODgQJYA4DjgP2IAgMCYG4KNZIk8+gEAlAnyhQlZAkB5Qr7eAQAOhTE3BMgSABwX+cKELAGgPCFf7wAAh8KYGwJkySNw9+5drQkAe0a+MCFLAChPyNc7AMChMOaGYHRZMn/+/NkPc+XKFW2hh7l3794//vGP0aNHjxgxYtGiRdevX9eWeBTi4uKef/55X19fFxeX8ePHa7MBsGfkCxOyBIDyhHy9AwAcCmNuCDaSJVa/WBMZGRleRIcOHapUqXL79m1tIRU3btygYo0bN46Ojl68ePFzzz1Xu3btY8eOacuVjGXLlvn5+a1Zs+by5cv379/XZgNg58h3JcgSAMoTVv9HDAAofxhzQ7CRLHki9O7de9SoUVrrw5B6IU1y8+ZNPnzw4MHLL7/cokULStDhtWvXfjWjoKBAMT2gdeDAgYMHD/IhkZub6+npmZycvM9Efn5+UScKqRRSR1euXNm+fXtGRoawM2RJTEwkLcRKprCwkHoRD4BlZ2dTy5zOycm5dOmSXkUBtUAO7Nq1S1SUDEQDNZWWlkbNUgG2kPOainl5eSLrzp07nKbxUpYYtXk7iqVJUx5u5NatW+fPnxdZaihL7YNabVpsVjHzQW8Srl+/fvXqVXXFCxcu0BjlA1c7cPHiRc7S2BXTFUUV6YxQmoapHh1VoSxz+Wpx6gjyU+2MuELMh683UouFlaJTTL6JhaAHZAkAAAAADILdyJKzZ886OTnt3r1bm6GCIl1XV9cvv/xSbUxJSalQoQIFhZSeNm1acxPu7u7+/v6cpgKkPerVq9eqVSs6bNiw4eHDh6lwUlISFWvQoMEzzzwTHBxM5ffs2cNtUskhQ4bUr1+/W7duVOaDDz4Q3Q0fPjwwMDAsLIxy27VrR/ExBbIjRox44YUXOHAkcbVo0SJKnDlzpm7dumvWrNGryHZyj4RWs2bNqC8fH58tW7Yo+gP53YkiUlNTyfOAgIDQ0FA/P7/4+HjF5LyoQtCMxcXFcXnKEv6QAqR543jUYjsWJ03dCImBRo0aRUdHs13D0qVLPTw82Ac3N7cVK1awXa9Zcx/0JmHVqlVUkYUocejQIRcXF4rU5QOnWpwmqDpnaeyKSUvQtPxqEhiUppPFZ5Po168faWB1YcWS2yIrIiLCy8uLnaFrm643RWf4eiO1WFhRnWLS1ZSmK010qgGyBAAAAAAGwW5kyaxZs0geaK0Ps3fvXgoZjxw5orFXrVpVxI5Mx44dRbhZWFgYFBQ0efJkPhwzZkybNm0oqKVQjFp766232P7uu++SPLh3755iCvsoCrx27Rqld+zYQVFveno6F+OAVTF9Rj5gwIApU6Yopi4oPWjQIDKyLLl06RK19umnn3JhvYrkRqdOnWbMmMFZmzZt8vX1VX9+rx6IBqrbvn378PBwcdPmxo0bilmoLUJwzmJFQTNJHVHQTJNgsR29SRONZGZmNmnSJCoq6vduzKBgNyQkhNNt27ZlWaLXrEUffm/IbBLy8/Nr1qwpIulx48a9+uqrSnEDt5gllyUEKVUK/Wm6FixYQBJF8yKT3O2xY8fSADldrVo1kiV6wxdVSnLdKqrzSJcrTfLMmTOLGtACWQIAAAAAg2AfsoSCrYCAAIr8tBkPQwqBQsZz585p7HXr1tV8Zq8O7/h2SlZWFh+SwOBGuLW0tDS2X716lQ75A2kK++bMmcN2xRRVL1u2jNPk6rZt2yiSmz17dv/+/UmEsJ1i5aZNm44ePZosFOpRC5GRkaIFvYqnT5+mTsmTA0VQ/Kq+ZSSRJadOnaK6JA80dr0QnLMonKUYul27djExMXXq1KF41GI7epPGjSxevLhZs2YjR45UV9Ewb948MTlClug1a9EHgfkkvP322wMHDqQESTiasYSEBKW4gZOCSi7C399fyBK2k2P8PJtGlhALFy6kiSJxIm6mCeRujxgxYsKECZxmWaI3fFGlJNetYnKbLnhyOz4+nhbODz/8IFrQAFkCAAAAAINgI1nymC/WbN261cXFRURgepCEoMiMH4YRFBQUVKpUaeXKlWqjOrxLTEx0dnYWWXl5edQIhZj79u2jxK1bt0SWm5vbTz/9pJjCvi+++ELY+/btO336dE7369evdevWs2bNWrJkyeDBg6kjtpNX3t7eHTp0cDVBETnFi+pH/y1WJEHi5OTU+2F27twpaplH5AKqqx6XQB6dkyxZvnx5586dSSaxLLHYjt6kKaZGaIB9+vSh6nxDySLjx48fOnQop4Us0WvWog8C80mgGL1y5cqXL1/+8ssvGzduLO4hSAbesmVLMcMeHh5ClrCdThydPoryzWXJ+fPnabzdunUTFoHcbTrj4m4SyxK94QtLSa5bxeQ2wW7TRWV+/1AAWQKA4/CY/xEDAMoTxtwQbCRL5NFPsQwaNGjAgAFaqyUaNGgwduxYteWrr76i6E0dRyoPh3f8kfaFCxf48MSJE3x448YNSohv8bp48aI4pJhPPFhFPPvss5988oliioZJRQixQWVYXdy5c4eCY+qRwvTAwMDXXnuNjK+//vro0aO5pF7FjIwM6lTvrXHFUkQu4Lrmb+TLo/OlS5f6+PgcOHCADlmWWGxHb9K4Ef4m5SFDhvAtC4u0b99+4cKFnBayRK9Ziz4ILE7CCy+88P7773fq1Gn+/PlskQ/cYpbaPmfOnODgYI0sKSws7NGjB8nIunXrfvzxx6IFRu429RIbG8tpliV6wxdVSnLdKkXyku3kNk0Cp82RL0zIEgDKE/L1DgBwKIy5IdiBLLl69WrlypW///57tXHlypUWn+miOM/V1fXrr7/mD8h37drl5+c3adIkTTF1eEclKSwmhUAJijJJAnXv3p2zevfuTeKBjJQ1atQoivb4JQFKUMjOaoHiVzc3Nw4Hz549W6Ho5ZaTJ0/6+vqyupgwYUL//v1Fm/yiy5UrV8g3Dvj0KhJhYWEU3PNNG3Lj559/5q+BYixG5IKQkBCSc/y9WKR5+GkivRCcs2rXri1+noVliWKpHcmkiZiYdF29evVIFrJdTUJCAp0mEdwLWSJp1tyH39vSmYRNmzbVrFmTrpzs7Gy2yAduMUvYCwoKRo4cSc5oZMn06dNbtGhBXv3yyy+enp4HDx4UjTAW3c7Ly/vwww+9vLzEqyYsSyTDZ0p43YpTwG536dJFtKBBvjAhSwAoT8jXOwDAoTDmhmAHsoSioqefflodiyumLwLu2bOn2iJYvXq1v78/xXwUYT/11FMzZ840/85WTSB7/Pjxli1b1qpVy9vbm0K9U6dOsT0jI4Of3qGs5s2bHz16lO0U9kVERAQEBDRq1MjDwyMmJkY0RRLI3d09KCiIsiZOnEgdUbhJ8fHFixe5gJAlxLfffise5TKvyGUokO3bty8NpGnTptWrVw8ODlZ/FazFiFxw7ty50NBQqtukSROakK1btyr6IThn0UhFrCxkicV29CZN/VH99u3byWfNN0GRYHAyUa2ISpUq0dhZeeo1a9EHxuIk0AVDlwGpSmGRD9xiFtnp/JKHNAoK+g8fPqyWJdu2batSpQo5zLWio6PpHIkvcWYsuh0VFdW1a1f1w3gsSxT94TMlvG41bh86dEhU0SBfmJAlAJQn5OsdAOBQGHNDMIosuXs1J/2zuDuZv3+w/Zg8ePDg9OnTKSkp4rcgSgIJACEe1Fy6dEn9II1SFMXm5+dTXJiTk6POIrKyslJTUzU6qiRIKlKwe+LECcmrGhIokqapkP8MZUmw2I7epEmIjY0lVakxDhs2TIgERb9Ziz5YhGasatWqO3bs0GaUBSV3m9EbvkUeqbAG+cKELAGgPCFf7wAAh8KYG4KNZInkxZrspIM7XvrLhqqhWYn7tHlGRfPhOngkEhISZs+erTHOmjWLf1vmiUBh9JAhQ8QdJ6CHfFeCLAGgPCH5jxgA4GgYc0OwkSwx5+7VnBPvr4p/+qW1FTusc+58+edkbQkDExkZuX37dq0VGIaXX345PDxc8jOCgIEsAQAAAIBBKANZwrdH1lfuts6lC8U9sZW72ZcmAaDcAFkCAAAAAINgO1kibo/EunencIf/oEkAKEOKlSXR0dExMTGa3wICAAAAAHji2EiWZG7ZubF6T4py4nx6C01Cf3tHRh+d9Tkl+BE3pJFG2pbpYv8++uij9evX79+/XwEAAAAAKE1sJEsoBrp7NSd10Zofnxm0uf4ft7YZGlu5GwU96yp2SF34jbY0AMC2REdHvzfwz++pIAtpkq+//vpf//pXamqqtgIAwN7gjyQAAEAx6oZgI1myVvWsSHbSwV1vvLexWthPbYfF+fSCMgGgzImJiZld47d7IwKyrF+/njTJ/v37+ZdDAQB2jfo/YgCAg2PMDaEMZAkjbp6sc+q43rnLyaXrNQUAADYjKSnpI5c2/1JBFhIkqamppEnMf5wHAGB3mP9HDABwWIy5IZSZLBHwzZNvazxvR79bAkD5Q7JIAQDlAKxxAIDAmBtC2csS5sn+yjsA4FEpdpECAOwarHEAgMCYG4KNZIkxX6wBAAiwSAEo32CNAwAExtwQbCRLAAAAAAAAAEAPyBIAAAAAAABAGQNZAgAAAAAAAChjIEsAAAAAAAAAZYyNZIkxX6wBAAiwSAEo32CNAwAExtwQbCRLjPk1ZAAAARYpAOUbrHEAgMCYG4JDy5K7d+9qTQA4KsZcpACAJwXWOABAYMwNwRCy5IcffoiMjBw1atSnn35arFRYvXr1bBPz5s376quvrl69qi0hJS4u7vnnn/f19XVxcRk/frw2GwBHRb5IAQD2DtY4AEBgzA2h7GXJ/Pnzq1WrNmfOnGXLljVr1uyll17SlniY3r17t2rVKiIiYvTo0e3bt6e6x48f1xbSgbrw8/Nbs2bN5cuX79+/r80GwIGRLFIAQDkAaxwAIDDmhmAjWSJ5saZFixZ///vfOZ2cnFyhQgXSDA8XeQiSJRMmTOD0gwcPWrZs+c477/AhVbx9+/Z/i5oK/Prrr4WFhZTOzc319PSkLvaZyM/PF8W44pUrV7Zv356RkfHf+opCh4mJiceOHRMy5tq1a7+aUVBQYN67RaidtLQ0apNqCeP169fVralvGVH6wIEDBw8epC7YoueAqMLcunVLXUDtm6Q74saNG2zPzs5W2xmqu3v3bvL/4sWLarv5RCmmiVV3ROTl5bH9zp07XIZOBNnF6bA4P5Ly4EkhWaQAgHIA1jgAQGDMDcFGskRCjx49pk2bxumEhAR3d3fSDw8XeQiNLGnVqtV7773Hh5RetWqVKKmYYmjSORzgJiUlUeMNGjR45plngoOD/f399+zZIyoOGTKkfv363bp1ozIffPAB24cPHx4YGBgWFkZZ7dq14wfGyNvmJqgkNcLplJQU897NSU1Npa4DAgJCQ0P9/Pzi4+PZHhER4eXlxU05OTmRq2wnEVWvXj1qmewNGzY8fPiwou+A6IVZunSph4cH57q5ua1YsUJk6XW3a9cu6qVOnTpkJ/doqkUVAfnTvn37Tp06UZvyiVJMEys8JFxdXePi4ti+Zs0aLjNq1Cg6R//6178U/fnRKw8AAAAAAMoHZS9Ljhw5QmHu0KFDIyMjW7RosW7dOm2Jh6FYmSJXUibjx4/v0qVLr169srKyOMtcGKhlCQWylH7rrbc46913323cuPG9e/e4IoXj165do/SOHTtcXFzS09MpLT6wv3///oABA6ZMmcKHTMeOHdXdmfeugUQUjTQ8PJzvJxQWFt64cYOzxo4dO2bMGE5Xq1aNdQIVCAoKmjx5MtupQJs2bagRPlTMHNDw0UcfhYSEcLpt27ZqWWKxO+IPf/jDuHHjOD1//nyLsoRvPREbN258+umnOa03UZo5oUnWyJK9e/f6+vqSRqKzI5kfi+VFswAAAAAAwN4pe1ny448/BgYGjhgxYuLEiRS2zp49W1viYShW7tq167x586Kjo6lWQECAiKopeI2KikpOTk5JSeGHfNSyhPQGpdPS0rjw1atX6ZDvP1DFOXPm/N6BKYhftmyZYhIS27Zto/ievOrfv78mTDeXJZreNZw6dYp6zMzM1GYoCg1E3AISOoHaofJCdJFSosNz586JWnJZQlMkHNbIEovdES+99NLrr7/Oz3TpyRLFdA9n8+bNffr0ISXJFr2JkssSkh/t2rWLiYmpU6cOyQzJ/Fgsry0EAAAAAADsljKWJffu3fPy8vrss8/48OTJkxUrVty3b9/DpR5C/RAXMXXq1ObNm3OagteWLVtSgQ4dOnh7e8fHx6tlCTVL6Vu3bom6bm5uP/30E1f84osvhL1v377Tp0+nRL9+/Vq3bj1r1qwlS5YMHjyYZIAoo5ipAvPeVWV/g3SRs7OzxshQRyRpOC10QmJiorp8Xl4e+S8ePFPMHNAwfvz4oUOHclojSyx2p5iEUI8ePahTMtLk6MmSKVOm9OrVq0GDBuLBKr2JksuS5cuXd+7cmSQNywzJ/Fgsry0EAAAAAADsFhvJEr0Xa7KzsynU3r17t7B4enpu2LBBVUSLRpZ8/PHHVapU4bQ6CJ4zZ05wcLBalty4cYPSx44d4wIXL14Uh1RxxowZbCeeffbZTz75JD093cnJ6ebNm2ykAsXKEk3vIovJyMigHjWv1DMUr8fGxnJa6AS+e3DhwgW2nzhxQn2omDmgoX379gsXLuS0RpZY7I4hmRcWFkahv+RuCXP06FEXFxeaYclESWTJ0qVLfXx8Dhw4QIcsMyTzY7G8thB4PPQWKQCgfIA1DgAQGHNDsJEskXwNWWBg4KhRo/iNha+//trZ2Znf61i5cuWCBQu0pU2yZNy4cbm5uTk5Ofv372/RokX//v05SwTBBQUFI0eO7N69u1qWcN3XX3+d+qKwmzql8vwaAyUo0j1//rxi+mETNzc3iv7Pnj1LdY8cOaKYbuP4+vqWUJaI3v9btIiQkJABAwbwl0pRHJ+ZmZmXl/fhhx96eXmJ9yiETiAnSU6MHj2aEuTzoEGDNG1KZElCQoKrq6sYuJAlku6IX375xdvbm2tZlCVUXXwhwU8//USyhMYimSiJLKldu7b43RghM8znhwvolQdPEMkiBQCUA7DGAQACY24IZS9Ldu3a1bhx4xo1atStW5dCZPEwVXh4eM+ePR8u+xsUK1cwUbFiRQpVR4wYIb7HloJXDw8PaqR69eoUwR8+fFgjSzIyMvgJq1q1ajVv3vzo0aOiYkREREBAQKNGjaiFmJgYtk+aNMnd3T0oKIjsEydOLFaWaHpXlf2dc+fOhYaGPvXUU02aNCFtsHXr1qioqK5du+7cuVOUUeuE48ePt2zZkrwln0lanDp1ShRTzBwQbNq0yclEtSIqVapEA/n+++8l3ZHeaNCgwerVq9luUZacPn2azhRJwWbNmpFL4g6M3kRJZAkNSkgjITPM54cL6JUHTxDJIgUAlAOwxgEAAmNuCGUvSxTTbYHz589TzG3+4xulwaVLl9SPQilF0XN+fj7JgJycHHVWVlZWamqq+PqpJwKJpZSUlJL8yAmTmZmp+ZEQObGxsSTqNMZhw4axJHhM6BylpaWlp6drTtYTnKhHnR+g4U5mdvpncXevPnQlF4t8kQIA7B2scQCAwJgbgiFkSZmj+VDf3klISDD/QrNZs2YlJiZqjKC8kpW4b2O1sF9eeTc76aA2TweDL1IAwGOCNQ4AEBhzQ7CRLDHmizWCyMjI7du3a60A2DOXftq9rlLntRU7fFevf+rC1cXePDH4IgUAPCZY4wAAgTE3BBvJEgCA7SFlst61y9oKHTY8FbLerfsj3TwBAAAAALAlkCUAlGeEMqG/dZU6b6gaWsKbJwAAAAAAtsRGsoSjIvzhD39l/re+clf6d2P1nplbdprnav60KxkAAAAAoHSwkSwBAJQJGat+XOfUkTXGd3X7xdd+6Ydmr6YuWsN3S+TCQ54LAAAAAPAEsZEsMeaLNQCUb1iTrK/c9fsm/29DldBdb7ynebdELjzkuQAA+wL/EQMABMbcEGwkSxDfAGBjftMklTqTLFHfHtEgX5iUGx0dHRMTI37fEwBgv8jXOwDAoTDmhgBZAkA55LffLfF63vz2iAb5wqTc995776OPPvrXv/6lzQMA2Bvy9Q4AcCiMuSFAlgBQ3ij5r7zLFyZkCQDlCfl6BwA4FMbcECBLAHBc5AsTsgSA8oR8vQMAHApjbgg2kiXGfLEGAAdHvitBlgBQnsB/xAAAgTE3BBvJEgCAAYEsAQAAAIBBgCwBwHGBLAEAAACAQYAsAcBxgSwBAAAAgEGALAHAcYEsAQAAAIBBsJEsMeaLNQA4OJAlADgO+I8YACAw5oZgI1kij34AAGWCfGFClhicu3fvak0A6CNf7wAAh8KYGwJkCQCOi3xhSmTJjz/+GBkZOWbMmISEBE2WRVavXr1161a1ZcWKFdu3b5/9KERHR3NTfLho0SJNm/bF/fv34+PjJ0+ePGzYsAkTJmzcuJEs2kJmxMXFPf/8876+vi4uLuPHj9dmA6CPfL0DABwKY24IkCUAOC7yhaknS+bNm+ft7f3+++/PnTu3evXqX3/9tTrXIr1796bIW23p2LHjjBkzwouoX79+01xR/rEAAG2SSURBVKZNOT1y5EiL9rfeeoubatWqVURExNChQ6n3Pn36PHjwQN2yvZCbmxsYGDhp0qQFCxZMnTqV0sWOZdmyZX5+fmvWrLl8+XJJNAwAauTrHQDgUBhzQ4AsAcBxkS9Mi7Lk7t27lStXXrt2LR9++eWXFCgXFhaKAhaxKEuocXH4yiuvkPD4b7a+Xd3UgQMHKlSo8O9//1tdgLl+/fru3bsTExMvXryotmdkZJDx2LFj6rCeovxfHyYvL4/tt2/fvnLlyvbt26nif1sxzQP1fvDgwYKCArWdmk1LS6MuqBG13SJqEZKenk5jIcf40NxPkjGenp7Jycn7TOTn54u6Ej8VHVe5ijikWRJDvnPnDhupCxqF6EjSi14XVP38+fM3b95UlbUwtGvXrmnmn+CmNH7qYXHa6RpQNyieeTP3VuJAeUK+3gEADoUxNwQbyRJjvlgDgIMj35UsyhIK/ih6PnnyJB8ePnyYDvfv3y8KWKSUZAnJoUqVKq1Zs0ZdgKlXr1779u07derk5ub2wQcfsHH48OGBgYFhYWH169dv167d1atX2d6qVSt/f//mRbi6usbFxbF9yJAhVLhbt27u7u6iHdIG1D7lUuGGDRvSJLA9NTU1ODg4ICAgNDSU1Fp8fDzb161bN2LECE7rQVEyjeVXU1Rt0c+kpCTyoUGDBs888wz1Qg7v2bOH6+r5qei7SpZVq1aJYpQlhizmc9SoUXRyxdnX60XSBc8qqSlKnzlzRtEZ2rRp03jmqVlxIlJSUrgRtZ8W0Zv2iIgILy8vbs3JyYkmUNHxVuJAeQL/EQMABMbcEGwkSwAABsQKWZKbm1uxYsUtW7bw4caNGyly/fbbb0UBi5CWePbZZ0erqFWr1uPLks8++4ycOX78uLoAI27gkIdPP/00pznoV0wfrg8YMGDKlCl8KInRKX3t2jVK79ixw8XFJT09nVoOCgqaPHkyFx4zZkybNm0emCAhRN7yTQAqduPGDS7z8ccfUyj/e+sPs3nzZpqNV199tXHjxitXrmSjRT/pLNBU85NsxLvvvktV7t27p+j4qZh8sOgqV9EbMsuSvXv3+vr6UlivliXmvci74KbIyZCQkJkzZyo6QxOQWNWIkGJliWTax44dS/5wulq1aiRLJN4y5g4AAACwGZAlADguVsgS4s9//jMFxCRFYmNjn3nmmUqVKolnuvQgLdG5c2f1++v+/v5WyxIKMSk+JmHj6em5ePFixfS4UXYRIspMTk6moL9Pnz6RkZFsoaxt27bRiMiB/v37U1Nsl8Toc+bMEfa2bdsuW7YsJSWF5EFWVhYb+eGrc+fOnTp1ihKZmZmifEmgWHnevHmTJk1q0KDBm2++ybG1RT9JCVD7aWlpXPHq1at0yB/2W/STEnqucpWoqKjkIuh0qGUJudGuXbuYmJg6deqoZYl5L/IuoqOjqfH4+PiAgIAffvhB0RmawFwVCD+pI/VzawLJtI8YMUIoWJYlEm8ZcwcAAADYDMgSABwX62TJvXv35s+f/+KLL1JYuXXrVgrsEhMT1QXMebIPcQ0ePPjAgQMnT54UbwuQLvIsQnxYPmXKlF69elG4L55K6tevX+vWrWfNmrVkyRJqhHxgu0SWfPHFF8Let2/f6dOn02CdnZ2FMS8vj2Zgz549JBvU9kflypUrVapUIaWn6Pi5b98+6ujWrVuiipub208//aTo+EkJPVe5SsuWLXsX4eHhoZYly5cvJxlJEkIjS8x7kXdBUOMdOnSg4Rw5ckTRGZrAXBUIP6kRb29v8YCWQDLt1BdJGk6zLJF4y5g7AAAAwGZAlgDguFgnS9Rs2LCBlIA6VrbIk5UlmqbkHD161MXF5fr16+np6U5OTuL16xkzZpREllAxYX/22Wc/+eQT/nj+woULbDxx4gQfZmRkUML8jfOSQ/0uWLBAz0+SWxVU78RfvHhRHFr0Uym6k2DuKlfRG/LSpUt9fHxI+NGhRpaY9yLvQgjCOXPmdOrUSW9oAnNVoPaTGgkODlbnKqYX6PWmnQbFMk8pkiUSbxlzBwAAANgMG8kSY75YA4CDY50sSU1N5S9rOnToUGBg4NSpU9m+cuVKiqrVJQXmWqJUZUleXl5ubi6nf/rpJ5Il5PDZs2cpBuXP7E+ePOnr61sSWUJx+fnz5xXTD4a4ublRCPvgwYO2bduOHj2aEoWFhYMGDerevTtXDAkJGTBgAE8OBd/iyaIff/xR8xIFQbmfffYZf80UtbN8+XJnZ2eaUomfNPbXX3+dClPXo0aNIvf4oS+LfiqmJ6b0XJUMuXbt2uIXUTSyxLwXeRcsSwoKCkaOHNmlSxfJ0BhzVSD85EZE42rMp50ugA8//NDLy0vcOmNZIvGWMXegPIH/iAEAAmNuCDaSJfLoBwBQJsgXpp4smTFjBgXQ1atXd3V1nThxoni5nPRDz5491SUF5lqiVGXJ6dOna9So0aJFi2bNmnl7e69YsYLtkyZNcnd3DwoKatSoEXleElkSEREREBBA5T08PGJiYrjA8ePHW7ZsWatWLWqcwtxTp06x/dy5c6GhoU899VSTJk0oJha/9jhv3jxqk9OCy5cv8zdE1axZs3LlypT+7rvvOEvPz4yMDH6Wibqm8kePHmW7np+KvquSIVNhEc1rZInFXiRdUDHSA3SpUPRPikvRHxpjrgo0jYiv+VJjPu1RUVFdu3bduXOnKMOyRNH3ljF3oDwhX+8AAIfCmBsCZAkAjot8YerJEiI7O/vYsWOa36MwFAUFBWlpaenp6Zpfn8jKykpNTS32h1YYjt3z8/Mpls3JydHkZmZman4Uhbl+/XpKSkpJfm2DoGLkD0kUjV3i56VLl9TPHSnF+anou/pIyHspeReSoT0OjzTtJffWgNzJzE7/LO7uVe0pKBb5egcAOBTG3BAgSwBwXOQLUyJLHATNLQXDYhs/bdMLKAlZifu+9f7Djj5/zU46qM3TR77eAQAOhTE3BMgSABwX+cKELImMjNy+fbvWajxs46dtegElhJRJrHv3tRU7xPm+cGx2TElunsjXOwDAoTDmhmAjWWLMF2sAcHDkuxJkCQBGhpRJXI3nYz26r63UeZ1L1+1/iJTfPMF/xAAAgTE3BBvJEgCAAYEsAcCuYWWysWoorVb6W+/ateQ3TwAAwGhAlgDguBQrS/CHP/zZ41+sZ4/MLTvN7Zo/7ZoHAIAyBbIEAMdFHpesxd0SAIzN73dLqvRgmbG+ctd4vxePR6/guyXFLnCtCQAAyhTIEgAcF3lcAlkCgJH5/d0S927rKnVe59p1e6//0bxbUuwC15oAAKBMsZEsMeaLNQA4OPK4BLIEAMMivolLfXtEQ7ELPDo6OiYmhn9oEgDgUBgzMreRLJFvjgCAMkG+MCFLADAm/Lsl/+5bzO+WYIEDAPSQ7w9lBWQJAI6LfGEiagHAgJT8V96xwAEAesj3h7ICsgQAx0W+MBG1AGDXYIEDAPSQ7w9lBWQJAI6LfGEiagHArsECBwDoId8fygobyRJjvlgDgIMj35UQtQBg12CBAwD0MGZkbiNZAgAwIIhaACjHYIEDAOwLyBIAHBdELQCUY7DAAQD2BWQJAI4LohYAyjFY4AAA+wKyBADHBVELAOUYLHAAgH1hI1lizBdrAHBwELUAUI7BAgcA6GHMyNxGskS+OQIAygT5wkTUAoBdgwUOANBDvj+UFZAlADgu8oWJqAUAu8bqBX779u2kpKTFixdHR0drsg4ePPg///M/4eHh8fHxmiyLrF69eraJefPmffXVV1evXtWWAE+a/fv39+vXT2stLxw6dIgupzNnzmgzHoU//elPa9euVSckvPjii3FxcVpryeoStFImTJgwfPjw6dOn//Of/2RjSepmZmbm5uZqrQ8zdOjQhIQErbVkyPeHsgKyBADHRb4wJVELAMD4WL3AIyIivL29mzdvXqlSJbV97969bm5uJEtIY1SvXn3hwoXqXIv07t27VatW1ODo0aPbt29frVq148ePawuBJ0rPnj1JDWqt5YVBgwY5Ozv/7W9/02Y8CnPnziXhTYmOHTt+/nkxzzLRBbxq1SqttWR1x40b5+fnN2PGjCVLlkRGRjZp0oTtJanbtm3bFStWaK0PQzonODhYay0Z8v2hrIAsAcBxkS9MSdQCADA+Vi9w/ox28+bNGlnywgsvDB8+nNMUqFWtWjUvL09dwBySJRMmTOD0gwcPWrZs+c4774jcjIyMxMTEY8eO3b9/XxiJ69ev/6ri7t27ZLx8+fKdO3e4QH5+PtnpXz68deuWuvzt27dFUxa7oKbUZS5evCgGIumFuXHjBveSnZ2ttguoo7S0NOqUygijxRERlDhw4MDBgwcLCgrYcu3aNXVJRuRaHI6aI0eOeHl5CZ9pOJqmeKQ8A1euXNm+fTu1qW7B3CWlqJ3z58/fvHlTVfY3CgsL9+3bt2vXLvVH+3rtq6eXzho1KLKKHZpimpzKlSuTKvb19b137x4baW41d+EuXLggTqjFZrOysvgC0MgDi4VZlpiPRVPXfB6oCycnp23btokyollNXfM5pxHRYiHlT9NO3rKRrquff/55//79ohitqbp165LPfPhIyPeHssJGssSYL9YA4ODIdyVJ1AIAMD6PucA1soSiLooIN23axIcUe1WsWLHYeEgjSyjCo075kBROYGBgWFhY/fr127Vrp44sIyIiKLZuboICO/5gm+quWbOGC4waNapChQrC86VLl3p4eHB5Nzc38RmzXheaz78bNmwontKR9EIRJ5WsU6cO9eLn50dDY7ua1NTU4ODggICA0NBQKiMedbM4ouTk5Hr16lGPZKSWDx8+TMZp06ZxMXd3d39/f06npKQo+sNRM2PGjIEDB4pDalw0Qri6uvJIyT5kyBBqp1u3btTRBx98wOUtuqRux9PTk9LiGSpyrHHjxs2aNaN2fHx8tmzZIspbbF9MLymHRo0aiacESzI0YtmyZa1btyZBQrJEXIoxMTHiLgRBooKuW5Kain6zQhWo5YFeYb2xqOtanAcSUXT9fPfdd1xGjbquxTmfOnUqXdLUadu2bckx0jOvvPLK008//Yc//IEusF69eomm3nrrrbFjx4rDkmPMyNxGsgQAYEAeM2oBABiZx1zgGllCcSTFWPv37xcWirO//vprcWgRit0piiJlMn78+C5dulA4JT76/bXoZgKFXAMGDJgyZYqoRWHWmDFjOF2tWjWNLNm7dy9FpdS78JxGERISwmn1oy96XZRElpj3QhHhuHHjOD1//nxzWUK6q3379uHh4fyhOAm5GzducJb5iCg3KCho8uTJbKTcNm3aUAt8qJgiV82zQ3rDUUNR9dy5c8Wh3kjJTmmKmym9Y8cOFxeX9PR0iUtiWkgS0FTPnDlTMY23U6dOJIS4POkEmjG+C2GxfdFOZmYmCYmoqCiuqJRsaIrp5C5atIgSf/nLX/70pz+x8ebNmxTBk2jkQ/L/pZde4rResxZliV5hvbGIupJ5ePPNN0kK9uvX7/333z906BAXUNeVzLn6Sqa6JAjFLb6cnBxOEJ9++il5KA7tHcgSAByXx4xaAABG5jEXuEaWnDlzhmSJ+s2Qp59++osvvhCHFqHYvWvXrvPmzYuOjh4xYkRAQABrDMUUzG3bto0cmD17dv/+/dVRPpUU91g0soRCxnbt2sXExNSpU0d4Tu2L6upgTq8LvWCds/R6oWD39ddf5+evLMqSU6dO0RRRzK2xK5ZGlJKSQoWFSKNIlw7PnTsnqpjLEr3hqGnWrJn6pOiNlOxz5swRdpq0ZcuWSVyi8nQGk5OT4+Pj6ST+8MMPZDx9+jQVoEj9QBE0tN27d+u1z/bFixeTkyNHjhS5SsmGdvjwYWdn58uXLyumr14gecBp4o033mDVR1E+XZaxsbFs12vWoizRK6w3FlFXMg+KSaWQUm3atCmVeeWVV8hDdV3JnGsENskbEpxpaWlsEdAJ9fHx0RjtF8gSAByXx4xaAABG5jEXuEaWXL9+nQKm//znP8Li5ua2YcMGcWgR9UNciunRlObNm3O6X79+rVu3njVr1pIlSwYPHkyBmihGWeKjdI0sWb58eefOnSmCVAuG8ePHDx06lNPqYE6vC71gnbP0eqEIskePHhQZk0s0dvPQmQJTytUYGfMRJSYmqgvn5eXR9O7Zs0dYzGWJ3nDU0PR++umn4lBvpGRXq5e+fftOnz5d4lIrEzTkDh06kA9HjhxRTON1cnLq/TA7d+7k8ubts53C6z59+tDE8v0HpiRDmzhxIkmO94rw9PRcsGABZ5GcqF69en5+/pYtW2rUqCFe3dFr1qIs0SusNxZRVzIPauhCoun95ptv1HUlc6555f2nn3564YUXPDw8GjRosG7dOmGnNejn5ycO7R3IEgAcl8eMWgAARuYxF7j5K+/16tVbunQpp48fP07xk/lntxp6PyxLPv744ypVqiimT4UpkhPvT8+YMUMdiVL0LD7wVssS6t3Hx+fAgQN0qBYM7du3F18LJoI5SRd6wTpn6fWimGRVWFgYyRWLd0syMjJoTjRvkDPmI+JbKxcuXGDjiRMn1IeKmSyRDEfNiy+++L//+7/iUG+kZBcPHRHPPvvsJ598InGJ1Rrb58yZ06lTJ6VovOrX1gUW22c7aUhKDBkyRLwDU5KhFRQU0EmhKhOKIG3TokULzqUzQhcnBeuvvfZaREQEGyXNmssSSWG9sYi6knnQQPPPN15EXcmc01X95Zdfqmr/BikuUk0uLi7CVbpcSSs+XMqOsZEsMeaLNQA4OI8ZtQAAjIzVCzw/Pz87O/ubb74hWZJtgh92nz59etOmTa9du3b//v033nijc+fOXH7lypXic2sNFLuPGzcuNzc3Jydn//79FEf279+f7GfPnqXwiz90P3nypK+vL0eBeXl5H374oZeXl3grQy1LateuzUGtohIMCQkJrq6u4sUAIUv0uuCmLAbrnGWxF+KXX37x9vbmjizKEiIkJGTAgAH8ZVMUOGZmZuqNiKaUXB09ejQlCgsLBw0a1L17d3VTGlkiGY6auXPnqn+0RG+kZKehcSRNFjc3NwqFJS4JWULyYOTIkV26dGE7iTSSCrdu3VJM2uDnn3/mh5Qstq9uh2aDhMRXX32llGxoGzduJEGr/ua3S5cu0fW5d+9ePpw2bRp56+7unpyczBZJs+ayRFJYbyyirqIzD1euXJk3bx75yWW+++47cnjr1q3qupI5/+Mf//jXv/6V31Mi5ZOamsr2//znP9SO+L6vN998c9KkSZx+JIwZmdtIlsg3RwBAmSBfmJKoBQBgfKxe4BQwVXgY/jJcCgopVKLIr0aNGkFBQRS9cfnw8PCePXs+1EQRFLtzCxUrVqRwf8SIEeJ7dSmWoqaonUaNGk2cOJGjwKioqK5du6ofgFHLklq1aongngXDpk2bnExUK4IiNmr2+++/1+uCm/Lw8BBVqDodSnpRTN881qBBA/F7IHqy5Ny5c6GhoU899VSTJk1IilAMKhnR8ePHW7ZsSd2R2qHY9NSpU/9tyEyWKPrDUXPmzBnqXcSsElkSEREREBBATdHYY2JiuICeS2LGqlevTnGzeHubdFffvn2pR9KrlBUcHMzfXavXvpAlxPbt26kKf6lXsUOjXsRzeoJevXqJLxKgq5EuM/GIIKPXrLkskRTWG4u6rsV5uH79Os2Vs7Ozj48PLZmqVauKbyNQ19Wbc5IfzZo1I8lN1w+l6XLiL0OjxPLly7kM9VLDq8bm6QvuXv3vS/AlRL4/lBWQJQA4LvKFKYlaAADGp5QW+IULF9LS0vj+yWOSlZWVmprKn69bR2xsLIkijXHYsGHi7kcJuyC5RVGy1motFI+mpKSofxpFAkW0/G22JaEkwxk4cODHH3+stT4My5X8/HyKidVf68Q8kkuKSbOdOHFC/a6IvH2LlGRoVvBIzUoKl2Qs5vNA3Llzh9ZLRkaG+KEVixQ75+QVSThyT33LaO3atWFhYVmJ+76t8fx/Bk3LTjqoqlEM8v2hrIAsAcBxkS9Mq6MWAIARcIQFnpCQMHv2bI1x1qxZxf6gioZJkyb93//9n9Zqn6Snp2u+58oczV2UJ05ptw+Yv/71r/wSFCmT9a5d11bsuDnwT6mL1pTk5ol8fygrIEsAcFzkC7N8RC0AOCxY4ECPyMjIJ3h3yJzSbh+YQ8pkg+dztK43ej0f6/5csTdP5PtDWWEjWWLMF2sAcHDkuxKiFgDsGixwABwKoUzob71r143Ve0punhgzMreRLAEAGBBELQCUY4pd4PjDH/4c4W9D1dDMLTvN7Zo/7R5RFkCWAOC4yLehtZAlANgzWOAAOBS/vftePWy9SxeWGetdu8bVeuFYVAzfLSl2Q9CaygLIEgAcF/k2hKgFALsGCxwAx4E1yTrnzmudOq1z6fpzz/Gad0uK3RC0prIAsgQAx0W+DSFqAcCuwQIHwEEgTRLr1o0Wtfr2iIZiN4To6OiYmBj+UZ2ywkayxJgv1gDg4BS7SSFqAcB+wQIHwBHg3y3Z3ivycb56yyAbgo1kiXwuAABlgnxhGmSTAgBYBxY4AOWeO5nZ6Z/FWbw9osEuNgTIEgAcF/nCNMgmBQCwDixwAIDALjYEyBIAHBf5wjTIJgUAsA4scACAwC42BMgSABwX+cI0yCYFALAOLHAAgMAuNgQbyRK88g6AAbGLTQoAYB1Y4AAAgV1sCDaSJQAAA2IXmxQAwDqwwAEAArvYECBLAHBc7GKTAgBYBxY4AEBgFxsCZAkAjotdbFIAAOvAAgcACOxiQ4AsAcBxsYtNCgBgHVjgAACBXWwINpIleOUdAANiF5sUAMA6sMABAAK72BBsJEvkcwEAKBPkC9MgmxQAwDpKaYHfvn07KSlp8eLF0dHRJbFLWL169WwzduzYoS0HAHhsSmlDeLJAlgDguMgXpkE2KQCAdZTSAo+IiPD29m7evHmlSpVKYpfQu3dvKh+uwsfHh7zSlgMAPDaltCE8WSBLAHBc5AvTIJsUAMA6SmmB5+bm0r+bN2/WyA89uwSSJRMmTFBbOnbsKGTJ3bt3Dxw4cPDgwYKCAnWZW7du/ari9u3bZLx27ZrayHDFy5cvU/r8+fM3b95Ut0MUFhbu27dv165d7DxD5anNK1eubN++PSMjQ5SkRsglPszOzhZVcnJyLl26xGlFxz2GWktMTDx27Nj9+/eFUbHkhmQ4aqidtLQ0apNyhfH69evqWsJnxdKUlrAjUA4opQ3hyQJZAoDjIl+YBtmkAADWUaoLXE9+6NktIpElycnJ9erVa9WqVfPmzRs2bHj48GFRZunSpR4eHs1NuLm5rVixgozTpk1ji7u7u7+/P6dTUlIoixphi6enJ6XPnDnD7VBu48aNmzVr1q1bNx8fny1btrCdygwZMqR+/fpkp9Y++OADMj548GDEiBEvvPACh+zk+aJFiyhBrdWtW3fNmjVcV9Fxjxg+fHhgYGBYWBi13K5du6tXr7LdohuS4QhSU1ODg4MDAgJCQ0P9/Pzi4+PZHhER4eXlxVWcnJySkpLYbnFKS9IRKB+U6obwpLCRLMEr7wAYELvYpAAA1lGqC1xPfujZLaInSwoLC4OCgiZPnszGMWPGtGnThoQBH5LPISEhnG7btq2I+xlqYdWqVWoLBeIsG+7du0cVZ86cqZhkRqdOnWbMmMFlNm3a5Ovry3c2qDxF7deuXaP0jh07XFxc0tPTFdM9jQEDBgwaNOj+/fssSy5dukSK4tNPPxV9Kfru/Vp0Q4OqUztTpkxRpG4w5sNhqGL79u3Dw8P5xgv5duPGDc4aO3YszRinq1WrxrJEPqWKfkeg3FCqG8KTwkayBABgQOxikwIAWEepLnA9+aFnt4ieLElJSalQoUJWVhYbSRXQ4blz5/hw3rx5VJHTJZQl0dHRycnJ8fHxAQEBP/zwAxlPnz5NbZLqOFAERfC7d+/m8nPmzBHVqYtly5ZxOj8/v2nTpqNHjyYHyE8qGRkZKUoyeu6RBti2bRtN+OzZs/v3789lJG4w5sNhTp06RRUzMzO1GYoyYsQIMatClsinVNHvCJQbSnVDeFJAlgDguNjFJgUAsI5SXeB68kPPbhE9WZKYmOjs7CyMeXl5FEPv2bOHD8ePHz906FBOl1CWENRXhw4dWrdufeTIEcV0G8TJyan3w+zcuZPLf/HFF6J63759p0+fzmkK8b29vakdVxNUhXSO5pUVPff69etHvc+aNWvJkiWDBw8mPxWpG4z5cBiqqJ4iNdRRVFQUp4UskU+pot8RKDeU6obwpIAsAcBxsYtNCgBgHaW6wPXkh57dIr11ZAnfCrhw4QIbT5w4oT5s3779woULOV1CWSLe/ZgzZ06nTp0U09vn1Ob58+fVJRkqL56qIp599tlPPvmEEnfu3GncuDE1fu3atcDAwNdee42Mr7/++ujRo0VhRce99PR0kh9CwFD7LEskbjDmw2G4ongjX03Dhg1jY2M5LWSJfEoV/Y5AuaFUN4QnBWQJAI6LXWxSAADrKKUFnp+fn52d/c0335D8yDbBryjo2VeuXLlgwQJtKyb0ZAlVpICewn1KFBYWDho0qHv37lwgISHB1dVVvKfxSLKkoKBg5MiRXbp0YXtYWNjAgQNv3bqlmJ6w+vnnn6kvLl+nTh2WCnFxcW5ubhy+k6v9+/fnur2LXnm/cuWKn5+fmEM9986ePUsygG/UnDx50tfXl2WJou8GYz4cQUhIyIABA0gsUZoET2ZmZl5e3ocffujl5SXeMxGyRDKljKQjUD4opQ3hyWIjWYJX3gEwIHaxSQEArOMxF/jdqznpn8XdyczW2D///PMKD0MKRGIPDw/v2bOnphFGT5ZQ4vjx4y1btqxVq5a3tzfF06dOnVJMb4Q7mahWBEkgd3f377//Xt2CuSzx8PCgwtWrV6dY/NChQ2ynOL5v375PPfVU06ZNKSs4OJi/ZYvKR0REBAQENGrUiCrGxMQopse3atasefHiRa4rZAnx7bff8qNccvcmTZpE6aCgIGp24sSJQpboucGYD0dw7ty50NBQqtikSROSIlu3bo2Kiuratav6GTAhSxSdKRVIOgLlg8fcEGyDjWSJfC4AAGWCfGEaZJMCAFiH1Qs8O+ngrjfe+7bG81mJ+zRZNoZCdqEEiNjYWBI5qvzfGDZsWFxcnMZYcnJzc0+cOMHfu8WQLKEAPT8/n+L4nJwcVdliKNa9rKys1NRU9c0QgbkbJeT69espKSnqL++So5lS4DhYvSHYEsgSABwX+cI0yCYFALCOR13gd6/mpC5a8+Mzg9Y5dVzv3OV0zKaHa5Q9CQkJs2fP1hhnzZqVmJioMT4OLEu01hJgG/cAsI5H3RDKBMgSABwX+cI0yCYFALCOki9wvj2yoWrYllZDNlYLI1mS/tnvv83ngERGRm7fvl1rBcDOKfmGoM2zIZAlADgu8oVpkE0KAGAdxS7wqMlTP395bGxA3+/q9dvS4rV1zp3J6OCaBIDySrEbghH+x7eRLMEr7wAYELvYpAAA1lHsAv/GretvOsTzOfqX/9ZV6LBvwkL6L5vS/B830kgjXT7Sa4vbEIzwP76NZAkAwIDYxSYFALCOYhd41OSpX/Qbva5Gz/Vu3dYWKZNY925Z2/9PWxoAYOcUuyEY4X98yBIAHBe72KQAANZR8gWenXRwx4sT17t2XefcBcoEgHJJyTcEbZ4NgSwBwHGxi00KAGAdj7rA717NOfH3r+Jrv7i2Yof1zl2gTAAoTzzqhlAmQJYA4LjYxSYFALAOqxc43zzZWC2szH+3BADwpLB6Q7AlNpIl/LYNAMBQ2MUmBQCwjsdc4Hq/8g4AsEcec0OwDTaSJfK5AACUCfKFaZBNCgBgHVjgAACBXWwIkCUAOC7yhWmQTQoAYB1Y4AAAgV1sCJAlADgu8oVpkE0KAGAdWOAAAIFdbAiQJQA4LvKFaZBNCgBgHVjgAACBXWwINpIleOUdAANiF5sUAMA6sMABAAK72BBsJEsAAAbELjYpAIB1YIEDAAR2sSFAlgDguNjFJgUAsA4scACAwC42BMgSABwXu9ikAADWgQUOABDYxYYAWQKA42IXmxQAwDqwwAEAArvYEGwkS/DKOwAGxC42KQCAdVi9wG/fvp2UlLR48eLo6Gi1/ejRo3//+9///Oc/v/3223v37lVnWeT+/fvx8fGTJ08eNmzYhAkTNm7cSBZtIYdn9erVW7duFYc5OTlz587dtm2bqggATwCrNwRbYiNZIp8LAECZIF+YBtmkAADWYfUCj4iI8Pb2bt68eaVKldR2T0/PQYMGzZ49Ozw83NnZ+R//+Ic615zc3NzAwMBJkyYtWLBg6tSplO7Tp8+DBw+05Ryb3r17k2bjNM1YFxOUeLgUAI+L1RuCLYEsAcBxkS9Mg2xSAADrsHqBc0y8efNmjSy5fPmySP/1r38NDg5WZVpGLULS09MrVKhw7NgxPszIyEhMTKRD9S0U6uLXh8nLy2P7nTt3uEx+fj7Z6V9Ri1pIS0uj1sgu2rl9+7YooJg8odzCwkLOpfT58+dv3rypLqPoeEVQxX379u3atUsIhmvXrj3s6W8UFBSoaynSvhghS8jh5557rkOHDjk5OeoC169fV3dx9+5dRX9CNAO/ePEiTyBjPgpFp4pkdPK5VaN3NhmLZ83ioMhIEygqUiOUxSeIZuPAgQMHDx7UzLzFSdMrr/FTZEkKS06oYbF6Q7AlkCUAOC7yhWmQTQoAYB2PucDNZYmauXPnPvPMM1qrFArvqMFfTTHo8OHDAwMDw8LC6tev365du6tXr3KZVq1a+fv7Ny/C1dU1Li6O7WvWrOEyo0aNInkj3E5NTSWBFBAQEBoa6ufnFx8fz+VXrVrFBRiKU6kW9y568fT0pPSZM2e4jJ5XKSkpjRs3btasWbdu3Xx8fLZs2ULGadOmsZPu7u7CZyr5e39F6PUlYFlCkTf127p1a/JTUyAiIsLLy4vbd3JySkpKUvQnRDPwhg0b8gQqOqPQqyIZnXxu1eidTUX/rFkcFLVPZ2TRokWc1a9fv5dffpkSycnJ9erVo1rUOLl9+PBhLqDoTJpeeY2fR48eLUlhvRNqWB5zQ7ANkCUAOC7yhWmQTQoAYB2PucAlsuTWrVuNGjWaMWOGNsMS1M7o0aNfffVViolXrlzJRhHC3r9/f8CAAVOmTOFDiyEy2zlg3bt3r6+vL0Wc7PaDBw/at28fHh7On50XFhbeuHHDvB3FTJZwa/fu3QsJCZk5cyaXsegVddGpUycx2E2bNpED6tsFHTt21PSlRq8vAcmSMWPG0L/k3tq1azW5xNixY6kAp6tVq6aRJZoJ0ZtAySj0qjDmo5PPrRq9liVnzeKgiD179pAMIPuCBQtIolCPVCsoKGjy5MlcgKaoTZs24u6c+aRJypuPSF5YfkINy2NuCLbBRrIEr7wDYEDsYpMCAFjHYy5wPVlC0dgf//jHrl27igdj5FBEOG/evEmTJjVo0ODNN9/kSJQivG3btlHvs2fP7t+/PwXlXFgvkOVYkOq2a9cuJiamTp067PapU6coIM7MzBRVGCofFRWVnJyckpLCDwJpZEl0dDTlxsfHBwQE/PDDD1zLolenT5+mijt27DhQBIW5u3fvFn2ZB+5q9PoSUC8uLi4UBL/77rv+/v4coKsZMWKEePlEI0vMJ0QMnKEGeQIlo9CrwpiPTj63mpIWz6bkrFkcFLNw4UKykDghiaKYbv5QI1lZWZzLjwieO3eOD80nTVLeXJbIC8tPqGF5zA3BNthIlgAADIhdbFIAAOt4zAVuUZYUFha+9tprbdu2NY+ei+XKlStVqlSJjY1VTM/htG7detasWUuWLBk8eDDFvlxGL5DlgHX58uWdO3cm8SACVoqznZ2dRXkBlW/ZsiVF/B06dPD29qYIUiNLCM4lN44cOcK1LHpFXTg5OfV+mJ07d4q+zAN3NXp9CSircePGFy9epHCcxN7w4cM1BcgrkgGc1sgS8wkRA2c8PDx4AiWj0KvCmI9OPreakhbPpuSsWRwUc/78eVdX127duvFhYmKiupG8vDzygRWLYmnSJOU1firSxos9oYblMTcE2wBZAoDjYhebFADAOh5zgZvLEoqb33jjDYrJxEsXjwoFpgsWLEhPT6cQWbwxPGPGjJLIkqVLl/r4+Bw4cIAORcCakZFB8SL9K6ow6nbmzJkTHBxs8SEuzu3UqZNi+kTcolfchfqVaw3mgbsai32p6a36Jq60tDRSBZoP4GkSWMspD8sSixOiN4GSUehVYcxHJ59bNXotS86axUEpJj3co0cP0op169b9+OOPlaJbLhcuXOACJ06cUB+aT5qkvMZPRdp4sSfUsDzmhmAbIEsAcFzsYpMCAFiH1Qs8Pz8/Ozv7m2++IVmSbeKBieHDh9evX//48eNsvHLlCpdfuXIliY2H2/iNzMzMzz77jF9goLBy+fLlzs7Ohw4dOnv2LAV5/DHzyZMnfX19SyJLateuPX78eLarA9aQkJABAwbwNziRqOBHg0Q7BQUFI0eO7N69u0VZwrldunShtMSrsLCwgQMH3rp1SzE96PXzzz+rv3XKPHBXY7EvNWpZQixevPjpp5/mF9/z8vI+/PBDLy8vcW9KLUssTojeBCr6o5BUUSyNTj63Fksy6pb1zprFQRHTp09v0aIFlf/ll188PT0PHjxIQ2jbtu3o0aMpQQMZNGgQeaLoT5peecXMT8U0P5LC8hNqWKzeEGwJZAkAjotdbFIAAOuweoF//vnnFR6GREhubq7GWLlyZS4fHh7es2fPh9v4jcuXL/P3INWsWZMKU/q7777jrEmTJrm7uwcFBTVq1GjixIklkSW1atUSgaY6YD137lxoaOhTTz3VpEkTCkb5pwmpvIeHB8Wj1atXp4Dy8OHDGlmiziWlxE3peUVBc9++famLpk2bUpXg4GD1N8aaB+5q9PoSaGQJxcE9evR48803KR0VFdW1a1f1A2NqWWJxQvQmUNEfhaSKYml08rnVlNRrWe+sWRzUtm3bqlSpQnqY7dHR0TQEuiDJ0rJlS6ri7e1NKuLUqVOKdNIsllfM/GQkheUn1MbcycxO/yzu7tWHvlTaIlZvCLbERrIEr7wDYEDsYpMCAFiHQRb47du3U1NT1b95wmRlZZHd/McurIMi45SUFM3vaViBxCuKg0+cOHHt2jVthl1hqFE8kbNGcuvixYtaqz6PVP6RCpcVWYn7vvX+w6433stOOqjNU2GQDUGOjWSJfC4AAGWCfGEaZJMCAFgHFjgADsKlf+5a79p1nVPHH4NeTV20xuLNE7vYECBLAHBc5AvTIJsUAMA6sMABcBxMyqTLBo/nfgwatKFqqPnNE7vYECBLAHBc5AvTIJsUAMA6sMABcChYmdDSpr/vGw7YVKeP+uaJXWwIkCUAOC7yhWmQTQoAYB3FLnD84Q9/5ftvg+dzv/1bNTRzy861xW0IRvgf30ayBK+8A2BA7GKTAgBYBxY4AA5FVuK+OO8/bPJ7QSVLeuwZ9r95l377oSG72BBsJEsAAAbELjYpAIB1YIED4DiwJvm2es/fBEnFTj82f+3c2oeWtl1sCJAlADgudrFJAQCsAwscAAeBNMkGD9PzWqrbIxrsYkOALAHAcbGLTQoAYB1Y4AA4Ar/9bkmN57d2GKG5PaLBLjYEyBIAHBe72KQAANaBBQ5AuQe/8m4NeOUdAANiF5sUAMA6sMABAAK72BBsJEvkcwEAKBPkC9MgmxQAwDqwwAEAArvYECBLAHBc5AvTIJsUAMA6sMABAAK72BAgSwBwXOQL0yCbFADAOrDAAQACu9gQIEsAcFzkC9MgmxQAwDqwwAEAArvYEGwkS/DKOwAGxC42KQCAdWCBAwAEdrEh2EiWAAAMiF1sUgAA68ACBwAI7GJDgCwBwHGxi00KAGAdWOAAAIFdbAiQJQA4LnaxSQEArAMLHDwOd+/e1ZqAPWMXGwJkCQCOi11sUgAA6yilBX779u2kpKTFixdHR0er7WScOXPm8OHDIyMj4+PjHzx4oM415/79+1Rs8uTJw4YNmzBhwsaNG8miLQRsS1xc3PPPP+/r6+vi4jJ+/HhtNrBnSmlDeLLYSJbglXcADIhdbFIAAOsopQUeERHh7e3dvHnzSpUqaexjx46dN2/eX/7yl2rVqv3tb39T55qTm5sbGBg4adKkBQsWTJ06ldJ9+vQpVsyA0mPZsmV+fn5r1qy5fPkyJGL5o5Q2hCeLjWSJfC4AAGWCfGEaZJMCAFhHKS1wkhP07+bNmzWyRE1MTAwpE63VDLUISU9Pr1ChwrFjx/gwIyMjMTGRDtXxMYXLvz5MXl4e2+/cucNl8vPzyU7/ilrUQlpaGrVGdtHO7du3RQFzrl+/fvXqVbXlwoUL3Jei06BFx4jCwsJ9+/bt2rWL502UFw5cu3YtJyeH01QmOzvbvAxx8eJF0aZiesLqwIEDBw8eLCgoEEYNt27dUrukbs28OnXt6emZnJy8z4R6AhXp6Th//vzNmzdVZX+bPXW/6ofBip0N5eGRWuwXWEcpbQhPFsgSABwX+cI0yCYFALCOUl3gclmyePHiBg0aaK1SKESmBn81BfrDhw8PDAwMCwurX79+u3bthEJo1aqVv79/8yJcXV3j4uLYvmbNGi4zatQokjdiUKmpqcHBwQEBAaGhoX5+fvHx8Vx+1apVXMAilNuwYUOhmg4dOuTi4kLRs6LfoEXHUlJSGjdu3KxZs27duvn4+GzZsoUbVDswZMiQd955h9Pz58/v3bu3eRmC/OE2CRIP9erVowLUF9kPHz4siqlZunSph4cHu+Tm5rZixQq2W6yelJTk7u5OZ+2ZZ56hAdJw9uzZw+WLPR2kZyh95swZtkdERHh5eXG/Tk5O1DLbSzIbimqkev0C6yjVDeFJAVkCgOMiX5gG2aQAANZRqgvcoizZuXPn6NGj+/XrR4Hm7t27NbkWoXaoyquvvkoB68qVK9nI4kQx3ZcYMGDAlClT+FAvfhWyZO/evb6+vhQT86BIV7Rv3z48PJw/ay8sLLxx44Z5O+bk5+fXrFlTzMy4cePIQ6XEDbJjVLhTp04zZsxg46ZNm8g3vi3wOLKEOg0KCpo8eTLbx4wZ06ZNG4sPv9HJDQkJ4XTbtm1ZluhVp8GSnHvrrbfY/u6779IZuXfvniI9HTztVIw6mjlzJtvHjh1LzXK6WrVqLEtKOBuKaqR6/QLrKNUN4UkBWQKA4yJfmAbZpAAA1lGqC9yiLDl8+PDcuXMpKqWIc9GiRZpci1DMOm/evEmTJjVo0ODNN9/kcJ9C2G3btpFvs2fP7t+/f7GROsfHVLddu3YxMTF16tThQZ06dYpC7czMTFGFofJRUVHJyckpKSmap5UEb7/99sCBAxXTK/4UWyckJCjSBs0dO336NBXesWPHgSKoHVZrJZQl7CTj7+8v7sBQs1lZWVyMH3479//buxO4qKr+f+CigLjkjkualktqLmmi4C5a6D/J0jJSn1LT1N+jpk/mllk8Ii3mklrZE+KCG4wCggspoiCFCgEuKIsoaKDIKIqKgALz/zJHT5c7M5eBYYZZPu/XffG6c+655y54LufjnTtz/Tp7KUQnlrfGY4mm1Wk/aSYlJYWV37lzh16yGykSvw5PT0/at/3797dr1+7QoUOsfOrUqfPmzWPzPJZInw21R6ppu1A5er0gVBUDxRI88g5ghEziIgUAlaPXDq42lnBHjx6lparDdwm3b99+7rnn9u7dS/NvvfVW79693d3dN2zYMHHiREdHR1ZH7eiflVMs2bRpU//+/Wksy2MJDYKtra15fY7q9+zZk4a5/fr1a9q0KXsjlgiN12vXrn3r1q0tW7Z06tSJ3Y6QaFB1x6hyzZo1R5YVFRUlqi8RS9hOMnXr1mUHGx4eLtyH/Px8Gu7zN1wJzZkz56OPPmLzPJZoWj02NpZmHj58yBfZ2dkdOXJEIfnrICOVp5EqXLhwgZVTfYoZbJ7HEumzofZINW0XKkevF4SqYqBYAgBGyCQuUgBQOXrt4NKx5O+//6YxLh+naolG82vWrKE8QONX/hT18uXLtYklGzdutLe3j4+Pp5c8lqSnp9Nu0E++CiNsZ+XKlb169Sq7/KlRo0Z9//33Tk5OlBZYiTYNKp7tGKuckZEhqPiUlrFEtU3Fszs2mZmZrDwxMVH4Uqhv375r165l8zyWaFr93r17NQQfOXDz5k32UvrXwR/podNIJ4rN066yeKkQxBItz4bi2ZFKbBcqR68XhKqCWAJguUziIgUAlaOnDl5QUCCXy3ft2kWxRK5UUlJSXFwcEBDAPtaJhpLTpk2jbMCeTNi2bRuFDXErCsWNGzd+++039nRBUVHRpk2brK2tz507d+3aNR5pLl++3KJFC21iSatWrfj3bPBYQoYNGzZu3Dj2OV20Y+wGDm+Hdnj69OmDBw9mlUWCgoKaNWtWu3Zt/ulYivIaZPiODR8+fPz48ewWBJ2l48eP05GK6lc0llA7lDFmzpxJM9Sam5ub2v0PCwuztbXlj2fwWCKxOm16woQJVEiLPvnkE9oB+rVK/zpYLGGnccCAAfn5+atXr27cuDF75EYhiCUK7c6G4tmRSmwXKkdPF4SqhVgCYLlM4iIFAJWjpw7u5eVVoywatdP4tX379hRUaBxPPx0cHGJjY1l9iigjRowo20apW7dusU9qYkN/mg8ODmaLFixYUKdOna5du3bs2HH+/PnaxJLmzZvzobAwlly/ft3Z2bl+/fovv/wyDZePHj3K6tetW5dGzI0aNaJBuaZPsqJBc5s2bWikLizU1KDaHaPQ4urqSpU7d+5M2+rVqxdLbnwHiI2NDR0+m7ezsys3lpBLly717NmTDrlp06aUMVJTU3k1hgJVTSXWLKFfCp3SgwcPSqyenp7O3tVGi+jXkZCQwMolfh3C00iRcsWKFQMHDmRvzWIaCmKJxNlQe6SatguVo6cLQtVCLAGwXCZxkQKAytGxgxfeyb3yW+CjG//cKChXVlYWDXlzcnLECzTLy8tLTk5mn70rlJ2dTeXsf9N1d/fu3aSkJOnvKlH14MGDBg0aREREiBdUsEFqJzExsUKnRRs0yr9586a4VGnv3r2UBkWFkydP5sFGoXl1+iWqviWsCn8dFTobVbhd0PGCYBgGiiV45B3ACJnERQoAKqfSHfxmSNTRvlP8Gw7PDn96x8MC0WmZNGmSif4PfVhYmIeHh6jQ3d09PDxcVAiWo9IXBEMyUCyRPhcAUC2kO6aRXKQAoHIq2sEL7+TGzVvr32g4LZLVHmTJmYSMHTt22rRp/CsCAUxdRS8I1QKxBMBySXdMI7lIAUDlaN/B2e0R31r9qdDPytH/uWEWnkkAzE+5FwRPT09vb2/+LFC1QCwBsFzSHROxBMCkldvBVyz6YuvQj/zqD/G1cqSXpZmkJjIJgHkq94JAf+5lMllcXJx4mQEhlgBYLumOiVgCYNLK7eC77AbSz70vuspsBjyNJTX6RU1YnuDuRfPsoVDMYx7z5jHvq+zjEpOPjw/9uU9OTlZUHwPFEnZGAMCo+JY3akEsATBd5XbwFYu+8Br7f3vbuR56+b2Trp8Ftxvjq0wmF5ZtEtcGAHPh7e1Nf9lXjZu+/hkqkclk9Lc+Li5O7VdeGoyBYgkAGKFyRy2IJQCmS/sOLo88e+pfX/s3GnF8xOyQbm5+VkgmAGYrMjIytCwqoUCSnJxMmSQ3N1e8ggEhlgBYLu1HLeJlAGD0KtrBC+/kJq/bc/gVN79aTjLbgZd/kpVdAwBAvxBLACxXRUctAGBCKt3B2c2TgKZv4Nl3ADAkxBIAy1XpUQsAGD8dO3glvuUdAEAXBooleOQdwAjpOGoBAGOGDg4AmhjnyNxAsUT64ggA1UK6Y2LUAmDS0MEBQBPp60N1QSwBsFzSHROjFgCThg4OAJpIXx+qC2IJgOWS7pgYtQCYNHRwANBE+vpQXRBLACyXdMfEqAXApKGDA4Am0teH6mKgWGKcD9YAWDjpqxJGLQAmDR0cADQxzpG5gWIJABghjFoAzBg6OACYFsQSAMuFUQuAGUMHBwDTglgCYLn0MWrJy8uLjIz88ccfPT09xcuUQkJCPDw8srKyxAtU7N6920NFRESEuB4AqKOPDg4AoD+IJQCWSx+jltmzZzdt2rRbt261atUSL1Morl271qJFixo1asTHx4uXqRg5ciS1M03A3t6edklcDwDU0UcHBwDQHwPFEuN8sAbAwulj1PLgwQP6eeDAAbWxZNSoUatXr9Y+lsybN09Y4ujoKIwlhYWF1M7Zs2cfP378TyWF4uHDh38L5OXlUWFOTo6wkKEVb926RTMZGRn3798XNkKKiopiY2NPnTrFDoqh+tTg7du3T5w4kZ6ezmtSI7Q/7KVcLuer5ObmCm8Nqd03RmJz/OXNmzfz8/NZ+aNHj1hhQUEBNUU/eTW1TQndvXv39OnT4eHh1KCwnI6ICi9evFhcXMwL2SkS0mYfqIWUlBRqjcp5OxL1ocrpo4MDgHkwzpG5gWKJ9MURAKqFdMfUZdSiNpZs3bqVYgmNg6sklsTExLRt2/bVV1/t1q1bhw4dzp8/z6tt3Lixbt263ZTs7Oxou1S4bNkyVlKnTp02bdqw+aSkJGqBvaxXrx7Np6WlsUZoUadOnbp06TJo0CB7e/uQkBBWTnUmTZr04osvUjk1tWrVKiosKSmZOnUqHR0LSLTn69atoxlq7YUXXtizZw9bV6Fh3xSSm9uxYwdfnY40MDCQlfNmP/nkEzql/NekqSkhOnV9+/Z1cnKifWCHQKZMmfLSSy8NHz6cjs7BweHOnTusnJ8ixtbWttx9SE5O7tWrV7t27ZydnVu2bLl//37p+qAP+uvgAGDqpK8P1QWxBMBySXdMXUYtqrGE0ggNbdPT06sklhQVFXXt2nXRokWsfNasWa+99hplA/aS9nnYsGFsvk+fPnzoz1AjwoE+Hys/efKE1vrqq68UyphBQ/bly5ezOkFBQS1atGB3Lag+ZYOcnByaj4iIsLGxuXLlikK5S+PGjXNzcysuLmaxJCsri+LB//73P74thYZ9k96cdCyJjo6myo0bN2a/JommhGhv2Yy/v//zzz/P5vltDToEOpalS5eyl5XYB8o806ZNY7dcaFv37t2TqA96or8ODgCmTvr6UF0QSwAsl3TH1GXUohpL3nnnHXYDoUpiSVJSEjWSnZ3NyikY0Mvr16+zl99++y2ty+a1iSWenp4xMTH79+9v167doUOHqPDq1avUIKWO+GcaNmx4+vRpVn/lypV8dWr/p59+YvMFBQWdO3eeOXMmbZ32k2rOnTuX12TU7pv05lasWBHzDEU7YSSgcb+Dg4O3t3fr1q3Zr0miKRFqjX5No0eP5jtJceLYsWP0G/fw8BgzZgzfT+lYoroPqamptA83btzgqzCa6oOe6K+DA4Cpk74+VBfEEgDLJd0xdRm1iGIJtWBvbx8UFETlNMClMeuGDRsuXbokWEMNiVgSHh5ubW3Ny/Pz86nNM2fOsJdz5sz56KOP2Lw2sYTQtvr169e7d+8LFy4olLdBatasObKsqKgoVn/z5s18dVdX1y+//JLNR0ZGNm3alNqxVaJVKOeIHllRu2/Sm+vZsycvrFu3rjASbNq0qX///hQn+BBfoimRpUuXuri4tG/fnr+x6q233qIz4O7uTr+diRMn0oli5dKxRO0+CH87nKb6oCf66+AAYOqkrw/VxUCxxDgfrAGwcNJXJV1GLaJYcuTIkYHP0KidIkSvXr34TQZNRmqOJez/4zMzM1l5YmKi8GXfvn3Xrl3L5rWJJXxcvnLlSicnJ4XyyW9qMCMjg1fjqD5/ixTp0aPHr7/+SjOPHj3q1KkTtZyTk/PSSy998MEHVDhhwoSZM2fyygoN+ya9OU2RYOPGjRT24pX3nfgQX6IptRISEmxsbO7evXvlyhXKMzxE0TFqE0sk9oF/HgCnqT7oif46OACYOuMcmRsolgCAEdLHqKWgoEAul+/atYtiiVyJP/LBqL6Ja9u2bWvWrBFUeUoillCbNKanET/NFBUVubm5DR48mNUJCwuztbXlj0loH0seP348ffr0AQMGsPLhw4ePHz/+4cOHCuXmjh8/zp7HoPo0nmbjfhqd29nZsThEuzpmzBi27shnj7zfvn27ZcuW/ARK7JvE5jRFglatWs2ZM4eVC4f4mpri8vPz+Sd0UWKkWEKZ6tq1a/R7YTeLLl++3KJFC21iiaZ9GDZs2Lhx49jnblHUYW/okqgP+qCPDg4AoD+IJQCWSx+jFi8vrxplUTIRVlCNJdOmTRsxYoSgylMSsYRcunSpZ8+ezZs3b9q0KY3vU1NTFconvGsqNXyG0lGdOnUOHjwobEQUS+rWrUs1GzVqRNnm3LlzrJxG0q6urvXr1+/cuTMt6tWrF/uULao/e/bsdu3adezYkVb09vZWKN++1axZM/5huzyWkICAAPZWLul9k9icpkhAx84eJVeUHeJraoq7evVqkyZNunfv3qVLFzp7PBotWLCA9qdr1650aPPnz9cmlmjah+vXrzs7O9M+vPzyy40bNz569Kh0fdAHfXRwAAD9QSwBsFw6jloK7+Re+S3w0Y0yqcPAaAgu/OaNvXv3UsgRLC81efJkNoyuhAcPHiQmJrLP3WLYGL2goIByUW5urqBuObTZN9XNVZp0UxRUUlJSrly5Ikos2dnZycnJorsrlXb37t2kpCTVzwEDw9CxgwMAGBhiCYDlqvSo5YpXUNiQWQFN38gOjxUtql5hYWEeHh6iQnd39/DwcFFhpYluHWjPAPsGIFTpDg4AUC0MFEuM88EaAAtX0VFL3rWsP8cvldkN8rXqt6/eUGPLJIYxd+7cEydOiEsBjE9FOzgAWA7jHJkbKJZIXxwBoFpId0zhqOWKV9DBju/6WjlS4aGX39tv72KZmQTAhJTbwT09Pb29vSMjI8XLAMDcSV8fqgtiCYDlku6YpaOW+Yu39xrvazuA5tkU6jgVmQTAJJTbwdevXy+TyeLi4sTLAMDcSV8fqgtiCYDlku6YtHQ3CyRWTzMJTXttByb+sDPB3Yvm2S1gzGMe88Y57/us22qafHx8QkNDk5OTFQBgYXwlBwDVBbEEwHJJd0xaumLRF15j/0/W+v8FNnPxb+DMhjL+z1noUyUAJsrb23v9+vUeTUpvjzBUIpPJKJPExcVp/+WbAGA2pAcA1cVAsYT9zw0AGBXpq5Kv4NkSeeTZU5O+2ltvaNDzo/2sHJFMAExIZGQk9eLdUxaHPkMlFEiSk5Mpk1Toc64BwDwY58jcQLEEAIyQ9rGElRTeyU1et+dgp9Jn3/fWHoRkAgAAAFUFsQTAclU0lnDs5okRfm8JAAAAmCjEEgDLVelYwhjDt7wDAACAeUAsAbBcOsYSAAAAgKpioFhinA/WAFg4xBIAy4E/xADAGecFwUCxRHr0AwDVQrpjIpYAmBPp/g4AFsU4LwiIJQCWS7pjIpYAmBPp/g4AFsU4LwiIJQCWS7pjIpYAmBPp/g4AFsU4LwiIJQCWS7pjIpYAmBPp/g4AFsU4LwgGiiXG+WANgIWTviohlgCYE/whBgDOOC8IBool5q2wsFBcZGrM4BCgEhBLAAAAwEgYeyzJy8uLjIz88ccfPT09heWHDx/2EDhz5oxwqSbFxcUBAQFz586dOnUqrZWQkCCuobXAwMDXX3+9RYsWNjY2c+bMES82BWZwCGrR75f+zeTn548bNy4jI0O8GAQQSwAAAMBIGHssmT17dtOmTbt161arVi1h+cyZM1955ZVpz2gzbLp///6QIUPs7e1p2Lpu3bp58+bRPA3NxfW08NNPP7Vs2XLPnj23bt2iqCNebArM4BA0OXfuXJ8+fV588cVly5aJl0FZiCUAAABgJIw9ljx48IB+HjhwQDWWUGIRlpTrk08+ad++fVZWFi+5e/fuhQsX2HxhYWF8fPzZs2cfP37MK6gtp12qV69eTExMrFJBQQGvTEP8vLw8Np+Tk5Obm8tXkcvlvFpRURGteOrUKXZ0jHBdcvPmzfz8fL7o0aNHbJ429/fff/ONqm1KpEKHwNHJuXPnjrAkMzOT7xIlmZSUlPDwcNoZVkI7+XdZvLJCw36We7okzolC3XEpJM8VR4d2+vRp2nlqUFienp5OhRcvXhTmNInjktiW2vOjqXI1QiwBAAAAI2GgWKLjgzVqY8lHH30UGRmZmpqqzX/2P3z40NbWdsuWLeIFSjRAb9u27auvvtqtW7cOHTqcP39eopw2WqdOHUo4r7zySq9evdq0acPfQkY1d+zYweYnTZq0ePFiNv/DDz+MHDmSzSclJXXq1KlLly6DBg2yt7cPCQlRXZfQ5vidHFq0Z88eNk/hqkaNGmyYqKkpoYoeAkc7Q/VLSkrYy3PnztnY2NDYmuaTk5NprXbt2jk7O7ds2XL//v0K5U5SO92eobPN91/TfpZ7uiTOidrjYquoPVdCtGLfvn2dnJzs7OxWrVrFCqdMmfLSSy8NHz78xRdfdHBw4JFM4rg0bUvT+VFbuXohlgBYDh3/EAOAOTHOC4KBYon06KdcamNJw4YNO3fuTMPr11577fLly8KlqmjYTQNBPngVKioq6tq166JFi9jLWbNmUYM0HNdUTkM0amrGjBmsfMmSJTTmfvLkiUKLcTatTqPh5cuXs/KgoKAWLVqwGwISQ3A+oo2Ojqb6jRs3pn2QaIqrxCFwBQUFzZo14+PRf//73++//75CeQg0pp82bRpLg7SJe/fuKTTvv8R+lnu6NLWp6bjYKqrnirfA0Opsxt/f//nnn2fz/LYGHde4ceOWLl3KXmraB7ZIdVsS50e1Mm+2ukh3TMQSAHMi3d8BwKIY5wXBVGNJRkYGG/bRmI+GsI6OjsKlqsLDw2kgfv36dfEC5f/l06Ls7Gz28sqVK6ympvKIiAiaSUlJYeV37tzhgafccfbVq1epMrUQ/wyFq9OnT7N1V6xYEfNMmzZtRMNfOl4HBwdvb+/WrVvTMFGiKa4ShyC0cOHC8ePHK5QfPECNh4WF0XxqaipVvnHjhqiypuG7xH6We7o0nRNNx8VWUT1XrJoQtUb/qEaPHj137lxWQnHi2LFjNAT38PAYM2YMv7ul6bjYItVtSZwf1cqiOoYn3TERSwDMiXR/BwCLYpwXBFONJUJRUVE0EGT/J60JDcGpzsmTJ8ULlInF2tqav8zPz6eaZ86c0VQeGxtLMw8fPuSL7Ozsjhw5otBinE2j85o1a44si/afrduzZ09eWLduXdHwd9OmTf3796fRMxvRSjTFVeIQhGi4X7t27Vu3bm3ZsqVTp07sdgRtV9gmp2n4LrGf5Z4uTedE03GxVVTPFa/JLV261MXFpX379vyNVW+99Vbv3r3d3d03bNgwceJEHnQ1HRdbpLotifOjWllcyeCkOyZiCYA5ke7vAGBRjPOCYA6xhAapVlZWEs98Mx07dpw5c6a49Nl//2dmZrKXiYmJ7KWmcso/NHPx4kVWfvPmTf6y3HF2eno6VVb7qbXSw9+NGzfa29vHx8fTSzailWiKq8QhiIwaNer77793cnKiQ2AlbLv0s2xFjfsvsZ/lni5NbWo6LraK6rniLYgkJCTY2NjcvXuXAhhlp/v377Py5cuXaxlLVLclcX5UK4vqGJ50x0QsATAn0v0dACyKcV4QDBRLKv1gTUFBgVwu37VrF8USuRL7P/uAgAD2DYA0GB0wYMCwYcNY/W3btq1Zs0bYArd//34ag3733XfswQYag65evdrX15ca7NOnDyWWEuXzJG5uboMHD1Yo39WjtpzQoHnChAlUSIs++eQTGnGyd5SVO84mw4cPHz9+PLtTQasfP36cPeogPfxt1aoV/2oRPqLV1BRXiUMQCQoKatasWe3atYWfJEZne9y4cexzpeg0sjcsSey/pv0s93RpalPiuDSdKy4/P58n2CNHjtA/CTqQa9euUZZgH8t2+fLlFi1aaBlL1G5L0/lRW7l6SV+VEEsAzEml/xADgPkxzguCgWJJpXl5edUoi42PaYRHQaVp06ZWVlYuLi78oZFp06aNGDGiTBMCNKDs1KkTrdKyZUtbW1tXV9crV65Q+aVLl3r27Nm8eXNqkMa7qamprL6m8vT09H79+lEhLerWrRv/WkYaetatW7ehEo13aTTP5u3s7Kytrdkj5jRIpe3Wr1+/c+fOjRo16tWrF/t8W+nhL22Iv0uNj2g1NSVU0UMQoUF/mzZtKMAIC+lsOzs703Zffvnlxo0bHz16VCG5/5r2U+J0SccShebj0nSuuKtXrzZp0qR79+5dunShdbdu3crKFyxYUKdOna5du3bs2HH+/PlaxhK129J0ftRWrl6IJQAAAGAkjCWWFN7JvfJb4KMb//yXfLkyMjJobMrfeKM9WjEpKYl/iQRHo2fRF1lIl2dlZfH3EZUrJCRk0qRJ/OWDBw8SExNzcnIEVSpJm6YqfQjUeIMGDSIiIsQLlN/+QadR9NlfErTZz4rSdFzSKBSlpKRQIhWluOzs7OTkZNEdp0qr6PmpFoglAAAAYCSqP5bII89GvrNwXwPn7PBY8TIzEhUVxT8k11TQYJSiVLmfcgamC7EEAAAAjES1xZLCO7lJq3cFtXH1ternV6t/VmiZT7YFYzB27Nhp06alpaWJF4C5QCwBAAAAI2GgWCJ8sIbdHpHZDZLZDaZxz17bgcgkANUCsQTAchjnE64AUC2M84JgoFhC4xt+e2Rf/aG+Vo5UgkwCUL3KjSWenp7e3t6RkZHiZQBgaqT7OwBYFOO8IBgulvg3GlH6s4EzCyRs+uv/vqe4RjMstGEe85g35Hy50/r162UyWVxcnAIATJyvUY5CAKBaGOcFwXCxpPBObvK6PYdfcQt+4a2QV9z8ajlRoZ+VY+ov+8S1AcCwPD09v3rlja8FqIQyiY+PT2hoaHJysngFADA1xjkKAYBqYZwXBMPFEj4vjzx76l9f72swPKTHRP8GzkgmANXO29vbo0npvRGOSmQyGWWSuLi4jIwM8QoAYGqMcxQCANXCOC8IBool7H0jQvzmiV9NR5l1/9Rf/UUVAMBgIiMjd09ZHCpAJRRIkpOTKZPk5uaKVwAAU6P6hxgALJZxXhAMFEsksJsnAU1eN+/vLQEAAAAAAE2qP5YwlfiWdwAAAAAAMA/GEksAAAAAAMBiIZYAAAAAAEA1M1AsMc4HawCAQycFMG/o4wDAGecFwUCxxDg/hgwAOHRSAPOGPg4AnHFeEBBLAKAUOimAeUMfBwDOOC8IiCUAUAqdFMC8oY8DAGecFwTEEgAohU4KYN7QxwGAM84LgoFiiXE+WAMAHDopgHlDHwcAzjgvCAaKJQAAAAAAAJoglgAAAAAAQDVDLAGoNo/v3r91IhYTnx7feyA+RwBmzcwuAujCAKALxBKAakN/xX1r9MPEp+zwWPE5AjBrZnYRQBcGAF0glgBUGzYiSVq3+tYJXwufktauxpgGLJDZXATQhQFAd2piSVpaWlJSkrAkOzs7Jibm9u3bwkIA0BEbkdBf9JKSOAufso77YkwDFshsLgLowgASaGgdU9a5c+fElUBtLJk8efLQoUP5y/T09Hbt2g0fPvzRo0f/VAIAnZnNiET3iY1pTvzsEx8fn5KSkpmZmZubKz5fAGbHbC4CrAv/vtYrKioKvRhAhIbW1tbWTQV69OghrgTlxpK///67ffv2Q4YMycvLK1MJAHRmNiMS3Sc2ptn/zcawsLDo6Gga08jlcvH5AjA7ZnMRYF1Y5r4mODgYvRhARPQ//qCJVCzJzMzs1KnTwIEDHzwo89kax48fdxP48ssvWfnKlSv9/PzYfEFBwZQpUz7//HO+1sGDB0ePHt2rV6/x48fHxv5zn5fW2r17N38ZHh4+Z84cmtm8ebNwK8x///tfXhPA1JnNiET3iY1p9ixfFRgYSGOa+Ph4uv6IzxeA2TGbiwDrwjuWfkN/0NGLAUSkY0lkZCRV6Nev34ABAxYsWHD37l2+iMa9gwcP7tGjx8iRI/ft21dufZGkpCThKPrjjz/mizQ1omlYLr1IdSlz4MCBxYsX04xcLp80adKJEydY+f3792nrhw4dElZWSMSSrKyszp079+7dm9YUVfDy8mrWrNkepQkTJjg6OrLyESNGLFu2jM27u7tbWVl169aNvdyyZUv9+vW/++67Y8eOff3113Xq1OFvqqO12B4zW7dubdeuHc3ExMSwTbi6utJusHm60vGaAKbObEYkuk9sTOOzxJMuasHBwVFRUWlpaeLzBWB2zOYiwLvwtm3b0IsBRGhoPWTIkCdK4mUKxdq1a1evXn306NH9+/cPHDiQcghftG7dOl9f3yNHjtDguVatWqdPn5auL0LZo0aNGj4+PjSEnj9/fsOGDfkiTY1oGpZLL1Jdyvzwww+vvvoqm/fw8GjZsiXlC5r/4IMP+vTpU1hYWKa2plhCsYwSxXPPPff888/n5OSIKvzyyy8dOnRg899++61qLLl69Wq9evWmTJnCYgn9Duzt7Tds2PCsAQUtojzD15I4SEIZbvTo0cISAPNgNiMS3Sc+ptm+fbtMJgsLC0tJSRGfLwCzYzYXAdaF/b5eTbEEvRhAhIbWNZ6hEbKDg0NAQIC4kpJcLqc6iYmJovKioiIak1PPEpVrqs9QN6Sljx8/pvm9e/cKY4mQsBGJYbnEItWljDCWFBcXv660adOmBg0apKamlq1bSn0soZ2jVjIzM7t27Tpp0iRRBdpG9+7d2bzaWOLq6jpr1qyNGzeyWHLhwgVqkEoo6n311VfLly93cXHp2bMnX8vJyWnxM2+++SZiCVgIsxmR6D4hloBlMpuLAGIJgAQaWtNoOU0pPj5+xowZNWvWjIqKYkuzs7OXLl3q7OzM7gpYWVkdPnyYr7tr167p06e/9tprtBYLGNL1hQIDA21sbNi8KJZoakRiWC6xSLiUxvmbN29mdzWEsYRkZWW1bNmStuXr68sLhdTHkrZt27In1c6cOVOrVi06KmGFzz77jLIOm1eNJQcOHGjWrNmdO3d4LKFGKJYsXLjwW4FffvmFrzV06FBe/t577yGWgIXQfkSSmnogKSlQtdxsJsQSsEwSF4GrVw9GR+8UTmfP+qlWM5IJsQRAAns+gr8sKSlp0qTJF198wV727duXhvhHjhw5f/78pUuXKEgIB97UlWhw//7773fo0OHy5cvl1hdau3Zt+/bt2bwolmhqRGJYLrFIuPS///3vwIEDKX7cvHlTbSyhSHb8+HFeKKQ+lgjP3ZIlS1q0aCH80hJayp9l/7ZsLKEIQcfv5eVFL3ksoYhCe8Cf1BGRviWkQCwB8yUxIhFOt26FvfGGk4PDK5mZR1WXmseEWAKWSeIiMHnyW9bWtZo2bcinHj06qlYzkgmxBECCaGhdXFzMYwmN3WvUqJGcnMwW0Qy9VBszRo4cOW/ePO3rk7Fjx/KHJoSxRKIRiWG5xCLR0sLCwtq1a+/YsUP1TVwuLi7Lli1r1apVdnY2X5crP5ZQ0927d6eURvP37t2jHGJtbX327Fm2VBRLGjVqRC8pBSoEsYR8+OGHFFf4Y+4Uy0JDQ/laEgepQCwB8yUxImHTrl3fdOz4Al0sbG1tbGysrays2rZt6eX1VXFxrGplk54QS8AySVwEKJYMHdpHtdw4J8QSAAmTlZ95dVnpr7/+mjFjBv1Bj4yMpEV5eXn0B37Tpk00n5ubS6N2WsQSQn5+Prs9olB+i2Dbtm1plC9RX4Tap5pHjhxhL4WxRKIRiWG5xCLhUgoO+/bto6FLRESE6iPvt27dKioqGjJkyKhRo1heECo/lhA6gxRF6Crz/fff02k9ePAgXySKJTVr1qTK7KUwljx8+HDq1KnUCKXDevXq0c9ff/2VryVxkArEEjBfEiMSmjw951CH8vCYLZefcHNzGTGiX05OxOrVn1E+Wbr0Y1aHlu7c6blu3eeOjt0HDHjV29td2AK9HDbM4dVXX/7ww9EpKUF8FUo7vM6JE15z5rixeQo8tCHR5O4+iy09cGD96NGDe/XqPH78G3/9tbvc1tiUmBggbO3jj98WLuUTYglYJomLgEQsuXkzdMaMcX37duvTp+unn064cSOUL6Iu6ev7PZtPSNg3YcKouLg97KXaLsxWkejFFerCiCUAak0WPPLeoEEDBwcH4cPrNGC2tbWlIXv9+vXXrFlD42SWEG7fvk2VmzdvTgNjShFubm4UVCTqC4WGhvItClFlVkFTIxLDcolFbCnbBO1qhw4d1q1bpxA8W8IyEr8nkZGR0axZs1WrVvHVGTWxRH/u379//vx5CnyUk8TLACyPxIikoOBM/fp1Z89+n71ksYTNL148xdbW5v79P2ieClu2bPree68fPvzTt99+SomFUgqr9uOPC+vUqb127ee0aMyYoc2aNbp9+wRbhVrgG9qyxb1du1ZsPjp65+7d39Lk6jq4d+8ubP7Ysf+VKBMO7Q9tIjT016+/nkkts7e5S7TGppMnt9BFavt2D2pq/vyJDRvWFy7lE2IJWCaJiwDFkiFDXnv8OIYm0aJz52TLlk0LCfnZ33+Ni0v/F15ocetWGFtEXZIW0czFi/4tWjSlPsvKNXVhtopEL65QF0YsAaice/fuXbhwITc3V1ROA+bLly8nJCRQBWG5pvocBQDKCaLCu3fv8lii0KIRwzNoLAEAIYkRSXLyfhoK+Pk9/V9PYSw5dGgjLWL/A0qF7du3Lir6iy1auHByly4v0gyNYxo3brBq1XxWTi9pnLF8+SdsFYkhCJsWLPhw9OjB/CWtbm/feP36RbxkypQxEyaM0qY1SjW0t4WF0TQvk62SHtMgloClkbgIUCwR/AdnHQeHVyiEqFYrKDhDFwHeDVksSUwMaNmy6cqVs1mhRBdmq0j04gp1YcQSACMRHh7+9ttviwoph7Ru3VpUaFQQSwCqjcSIJDPzKA0Ffv31S/ZSGEt27FhJiy5fDi5RjiemTx/L1zpy5BcrK6u8vFMpKUFU5/x5GV/08cdvu7qWJg1axcmpB41C2PTmm4PKjSXUTo3Sz/h+7+uvZ3711QyKNy4u/Xv27KRNawEBa2xsrNl8uWMaxBKwNBIXAYoljo7dr149SFNc3J4ZM8bVrFnzzz+3saVnzuzg/Y4648CBvVg5dcnx499o1apZ27YtWZYokezCbBWJXlyhLoxYAmDkCrJzHlz+m648bKJ5KhFXqj6IJQDVRmJEQlOfPl179Oj44MGfJYJY8ujR6X79unft+hKrQ4WffjqBr/LHH1tp8CGXn4iP96WZ1NQDfNGcOW7Ozn3ZKkOH9vnmm7lseu+918uNJadP+9Qo/YzvyXwtmn7+eak2ra1Zs6B9+9ZsvtwxDWIJWBqJi4Do2ZLi4tgmTRp+8UXpG7RoOnvWj/c7yiT9+/dk5dQlqbdSuqCrxJIlU1mhRBdmq0j04gp1YcQSAKNS9KhA/sfZpDW7/nh3cUi3D2S1B1E/VZ2onJZSHapJ9WktcUOGot9YUvKk6Nbxv65sDkpw96KfNE8l4koAlkpiRELThQt7aTTQunXzRYsm9+3bjQYZNCKh4cILL7Tgj6vSeILfRaHp11+/ZIOG3NxI5adqrOWLhgx5jd1XkX7DBptEseT27RM1a9bcu/cHUbUSLVobO9aZv1ek3DENYglYGomLgCiWFBX9JYwlwmnYMIcpU8aweeqSkya9STN0lbCzs42I8C6R7MJsFYleXKEujFgCYAyKCx//HXDij7GLeA451OmtyHdmnF34ZdKPq69u/Zk6LJtonkri5i2JHDOd6jxNKbYDw13mXvUOLsorfcLekPQVSx7fe3B+2aaAxiNEgYxKqJyWilcAsDwSIxI2FRSc+e235TTgsLdv3KjRcx9+OPrnn5fm5Z3iFWg8UatWzYCA0necX7sW0qFDm88++xdbRCOJV199mX1Ez44dKymlnD7tw1aRGIKwSRRLaKJNU0biz8hevOh/9Oimcls7eXKLjY3177//zF6WO6ZBLAFLI3ERoFjSr1/3lJQgmmJids2YMY56MfUpWkT9mvpgiTKrrF+/iCIHVWBrjXj2yHuJ8tP8qD/euxdZorkLs1U09eKKdmHEEoDqVZhz/9zinwKavE79Maj1yPgFyzKCthXcLr0IaDNRTapPawW1dqEW/Bs4U2vUpngzeqOXWJLzV2JwG1eWQ0K6j42e/tmFr1fQT5pnhbSU6ohXA7AwEiMS0SR8tkQ4UeG0ae+89lqXZs0a0dDE2bkvG4LQlJV1bOjQPlRIeaZuXbu1az/nq2gagvBJNZY8ePDn1KljrK1rNWnSsF69OvRz06Zl0q3RoOfp47pl0eqizZUgloClkrgICB95b9CgnoPDK/wzMM6flzVu3IAm6trUwb28vuJrCWMJhZZBg3pRICnR3IXZKmp7cSW6MGIJQDW6LjtGgcSvltOpiXOywvaU6PIVZ8Wx1AK141fLcV+j4Re9A3NzcwsK9P7mrqqPJZQ39tYdQpenYwMn3Y4OFB0nlRwbOJGWUh0kE7BwEiMSLSc+nkhO3i98koRP16+HnDsne/gwSnVRJabc3EhqLS3t0JMnTz/7S2KiMY1qlMrJiZAY0yCWgKWp9EWgsDA6KSkwIWEff65dm0nfXRixBKC6nFv8E/XBUKcP7iUcUu2hlZ6otaOObtRy+AyPzMxMfYeTKo4lj+89YPdJTn80r/ix+qselZ/+6FOqs//5/3fzSrq+jxDAaFV6RMIn0X9zGtV04oTX228PExXevXuydevmqpURS8Ay6X4R0N9UiS6MWAJQLS56bqUOGDPz8+InOtwh0TBRmzEzF5Teb5jzTVpamlwu19+4vYpjyfkvfmH3SYoKxV//JJxoKbtnEjrta7psGSB+ARgh3Uck48e/4eHx9KsJTHpCLAHLpPtFwEgmxBKA6nL33GWZzYAoN/0OBqLc/u1n3f+P3fupX+svmVRlLCl5UsQeslF975bqRHWopqzB0IjjJ+Lj4/UdvwCMkNmMSHSfEEvAMpnNRQCxBKC6nJr0lX8jZ+2fa6/cRO3vazjM33l6VFSU/pJJVcaS7PDSy2tIj3dVD0btFNLjHaofsHI9XbxYMsnNzRU3CmC+zGZEovuEWAKWyWwuAoglANWiuPDxvnpDY2Y9/VQbvU60FT+7QcEBgfpLJlUZS678VnoDJGaGtqcmZsZnVH/Xx4v9/f1ZMsnMzKzyIwQwWmYzItF9QiwBy2Q2FwHEEoBqkRN9kbre5V9+VO2VVT7RVmhbe7758fDhw9HR0fq4nVCVseTSN9tod88t/eeTCqUnqkn1d7736Y4dOwIDAyMiIugSVuVHCGC0zGZEovuEWAKWyWwuAoglANUiZYOMut6lVd+p9soqn2grpbcTPlrIOnhCQoJcLhfvkG6qMpY8u1uyQPVI1E78bsnWrVt3795N2Ss+Pr7KjxDAaJnNiET3CbEELJPZXAQQSwCqRfqu36nrnV2i7S0BXSbaSulf6plf7Ny5Mzg4ODo6OjMzU7xDuqnKWPLs2ZJxqkeidmLPluxZvopiCbthEhUVVeVHCGC0zGZEovuEWAKWyWwuAoglANUiK/QMdb2Tb32i2iurfKKt0La2f+7h4+Pj7+8fERGRlpYm3iHdVGUsqdwncfnu2k2xRH9HCGC02Igkae1q+otu4ROdBMQSsEBmcxFgXRixBMDA2DVkX/0hhvgkrvql35bus+Qb/fXxqowliop/b4ls3Fw/Pz9cxcAysasJJj4hloClMbOLAGIJgIGxa4jM2inK7d+q4+0qnKh92oqvacUSwbe8f1rut7zvtX/db6sPYglYLOov2eGxbPp9rZfMfc2Opd/Q0Jz+tFvmtH3Tb7gUgEUxt4vAVh/8QQcwJBZLzkwrfVo7ZuYCvX7LO9uKKcUSkvNX4t66pXd5jg2cqPpuLiph90n87Ab6fbuBMomvry/exAUQFRUVHBy8e/fubZaNzgCdBzobuBSApTGbiwB6MYDBsFiSddz33OLlNBPq5HYv4ZBqtKj0RK1Rm9QytZ/19ClQk4olCmUyCWg5it3SDek+NmL0tOPD/kU/aZ4VypqNYJmE0PULj7wDxMfHUw+nXkA9YrulomOnMxD27FuMxOcIwKyZx0UAvRjAkHgsoQhxzc8roImzXy3HUxPnZIXtKSnW4c5JcSy1QO1Qa9QmtVzyz4fTmFosITevpIdOd/dTPhwjnKjEb9yn7L1b7FYJBRJ8QDAA9e3o6Gjq5MHBwTJLRcdOZ4DOQ4ry62PF5wjArJnHRQC9GMCQhLGEpoI7f5xbvNy/QenwO6i1S/yCZRlB27R/Gp5qUn1ai9alFiiQUGvUJltqwrEkNzeX9jXi+An/FT/uee0DOgz6uefLVb67dvNAQlGEZRJ8nSJAZmYm/funZB4VFRVmqejY6QzQeaCzgUsBWBrzuAigFwMYkiiWsOnJw9NXNv8U7jJFZjuA3RU41Mk1csz0uHlLkn5cfXXrz/wz9GieSs4u/DLynRlUh1WW1R74x9gZ1/23FBVEC5s14VhSUFBAlyR2S3qvW+kjMjvfmb1Vib33lM2zTOLv7x/27IYvrShuC8AC0N9vuVxOXSAtLS3FUtGx0xmg80BnA5cCsDTmcRFALwYwJLWx5J98kncmO1KWuHrVH+/ODOn2DuUN/vYl4UTltJTqUE2qT2upNmXasUShvMLS5YnCxoHJX9Bh7Hn3Uy8vr99+++1/SjRDL4VvQqXK+J8VAAAAAABtSMcS1Sn/VsT9lCP8bgnNU4lqNbWTaceSgoICuVxOYePYLA86jMBJi3bs2EFHskWJZujl4cOHIyIiWCahyvifFQAAAAAAbVQ0lugymXYsUSiTSW5u7qkFa+kwKJwcOHAgMDBwrxLN0EvhO1CRSQAAAAAAtIRYUmFnv9xEhxG9aH1MTMyff/4ZoUQz9BJvPwUAAAAAqATEkn/QuUhw9yp3Oj5sFh0G/Tz56feiSbUytSneDAAAAAAAlIVY8g9KEb4qj/PrOFGb4s0AAAAAAEBZiCX/wN0SAAAAAIBqgVii3v3792/fvn3jxo1r166llkXxgw6Dfp5RIarJUSPUFDVIzeLJEwAAAAAAEcQS9RBLAAAAAAAMBrFEPcQSAAAAAACDQSxRD7EEAAAAAMBgEEvUQywBAAAAADAYxBL1EEsAAAAAAAwGsaTCEpRfb0I/xeEjNVVcFQAAAAAAtIBYUmGIJQAAAAAAVQuxpMIQSwAAAAAAqpY88iyNsW+G7lZNEVU+0VZKY8kX3yKWAAAAAADAPx6k/k1j7KvbflFNEVU+0VZoW9tXrUcsAQAAAACAfxQXPt5Xb2jMrM9VU0SVT7QVWZ1B2zZ7I5YAAAAAAEAZpyZ95d/IueB2pGqQqMKJ2vdvNMxv8JRt27YhlgAAAAAAQBl3z12W2QyIcputmiWqcIpy+7efdX+/H35GLAEAAAAAADUuem6lkXbMzAXFT2JVE4WOE7VJLVP7vh985uvru3XrVh8fH39//4iIiLS0NPGu6AaxBAAAAADAhJ1b/BMNto86ut1LOKQaLSo9UWuhTm7Ust/bcyiT7Ny5k2IJ/QwODo6Ojs7MzBTvh24QSwAAAAAATNufa7bKGgzzq+V4auKcrLA9JcU63DkpjqUWqB1qTdZgqN9/PFgmEb6DKyEhQS6Xi3dCN4glAAAAAACmLS0t7XRYROD4z/zqDqaB9/7nXeIXLMsI2qb90/BUk+rTWkGtXaiF0kDy9hy/LT48k2zdunX37t2HDx+Ojo6mzeXm5op3Qjd6jyVFjwoOd3mfjo1+piRcQiwBAAAAAKhacrk8JSUlKioqeK//nhnL9vR419e6f+kzITX6HezoGjlmety8JUk/rr669ees475sonkqObvwy8h3Zhzq5Moq+9oMkDlO8l2w0m/XbgoklEN27NhBgYRiCc0HBwfTJmhDtLmCggLxTuhGv7GkpLj4j3GLnx5kjX5HRs65nJKCWAIAAAAAUIUoJPBkcvjwYUoUPpu3bP/imx0fzN/l8IGs7ZuUN/iYvMxkM2Bvu9F+TpN8P1zot2Ktr89Oih87d+6kNMLukLDH3KlBalZ/mUSh71gS/591dLQBTV7PCAynnzR/YurXiCUAAAAAAFWLJ5Po6OgjR474+/uzex3bt29n6WLbhl+2f7/eZ8k3bKL57Rs3bSuL1WRoRVqdGqGmqEFqVn+ZRKHXWJKyUUY5RFZ7UHZ4LL3MDD3tZzuQSiK/3JioRLFET0cFAAAAAGBpWDJJS0uLj4+PiIg4fPhwYGCgTCbjN0B8fHy2S6IKVI0q0yq0Iq1OjVBT1CA1q79MotBfLMkMPulXy8nXyjF9Z4hCeY7u379/Zs02KvGt6Ri1cQeLJVSov2MDAAAAALAoNLTOzc3NzMxMSUmhLBEVFRUWFkbRIjg4mDKGv7+/TBJVoGpUmVahFWl1aoSaogapWb2O2/USS3L+StxXb6hvjX4JKzYrnmWS27dvUw4J//S70lsodQbH7Quhl1SIZAIAAAAAUIVYOJHL5TyfREdHU8aIiIgIk0QVqBpV5mmEGtF3IGGqPpbkXbsZ1OpNyh5npqxgJSyT3Lhxg3JIYmLi72//h5b627tcOnmaClkyKdsGAAAAAABUAWFESUtLS5FEFQwZRYSqOJY8vvcgpPuE0kfbR8wufvxEoTwRLJNcu3aNxZJLFxIOOk2hOkEvv3s1IZElEwMfNgAAAAAAGI+qjCWUQyiNUN6gZEL5RPHs7Vs8k3DJ8ecpk1DNwwM+Tr9ylSrgrVwAAAAAABarKmPJmSkrSu+BtHoz79pNheCREp5JaObGM2kx5wKaj6T6x95dSOV4yAQAAAAAwGJVWSxJWLGZMsa+ekNz/kpUCDIJe6SEZxIWP9iilN8j99YdQmudnL+KL0IyAQAAAACwNFUTS9J3hvhaOfrVcsoMPqkom0nYrRJhJilQYhUStgexzxGOXb8TyQQAAAAAwDJVQSzJDo+V1R7kW6NfykaZQotMwtbi1f7yLL3N4mc78ILfYdVqAAAAAABg9nSNJbmJaQFNXqdcEf+fdQqtMwnDK/8xY2XpG8AaDU86HqWpMgAAAAAAmCudYkn+rZwDL71DieKPcYtLiosVgq8o4Y+5S8cMlkzk2dnH3pxH7QS0GZ0ad4GvIq4NAAAAAADmSKdY8uf7X1CWCHWcWvSoNHIUlP2KEnarRCKTMCyZZGfcONR7ErV25M1P+Q0WibUAAAAAAMBs6BRL8m/lUDKhnwp1X1HC0oV0JmHYuunnE0Nd5yeeiavQugAAAAAAYOp0iiVC7O1bokyi/R2Pyt1pAQAAAAAAM1D1sYSpxPMhwudSGMQSAAAAAABLUMWx5MYzlUgU7K1cOjYCAAAAAAAmp4pjCVe5OMGTiY7tAAAAAACACfn/d75QtYJPyucAAAAASUVORK5CYII=;" vertex="1" parent="1">
          <mxGeometry x="80" y="180" width="773.15" height="460" as="geometry" />
        </mxCell>
      </root>
    </mxGraphModel>
  </diagram>
</mxfile>
